<svg width="17" height="14" viewBox="0 0 17 14">
    <path
        d="M14.023 6.002c-.397-.393-.799-.78-1.19-1.18A584.386 584.386 0 0 1 9.61 1.51a.901.901 0 0 1-.162-1.06c.187-.336.564-.528.923-.42.176.052.357.163.49.297 1.958 2 3.909 4.008 5.859 6.02.368.379.374.915.003 1.299-1.965 2.03-3.935 4.054-5.907 6.075-.369.379-.895.367-1.229.01-.331-.356-.325-.89.043-1.268a927.66 927.66 0 0 1 4.07-4.18c.102-.101.24-.162.365-.24l-.09-.164h-.369L1.203 7.872c-.122 0-.24.006-.362-.003-.493-.029-.85-.41-.84-.888a.849.849 0 0 1 .831-.853c.518-.02 1.036-.01 1.554-.01 3.776-.002 7.55-.002 11.322-.002.082 0 .164-.009.25-.015.02-.032.042-.067.065-.099Z" />
</svg>
