<svg xmlns:xlink="http://www.w3.org/1999/xlink" width="18" height="14" viewBox="0 0 18 14"
    xmlns="http://www.w3.org/2000/svg">
    <path
        d="M8.53736 0.241684C8.48733 0.278066 8.1417 0.841993 7.76423 1.50142L7.07751 2.70204L4.23969 2.72478C1.73385 2.74752 1.37457 2.75662 1.21085 2.82483C0.633281 3.05222 0.228527 3.50245 0.0784495 4.06638C-0.0261499 4.47114 -0.0261499 12.257 0.0784495 12.6617C0.196692 13.1074 0.465013 13.4667 0.874315 13.7305C1.32455 14.0215 0.910697 14.0079 8.86025 13.9942L16.0867 13.9806L16.3459 13.876C16.6506 13.7532 16.9963 13.453 17.1918 13.1483C17.4783 12.7072 17.4738 12.7982 17.4738 8.36405C17.4738 3.98452 17.4783 4.04819 17.2191 3.60705C17.0508 3.32054 16.6506 2.97491 16.3459 2.85212L16.0867 2.74752L12.8896 2.73388L9.69705 2.72023L9.58335 2.83393C9.44692 2.97036 9.43327 3.17047 9.55606 3.32054L9.64247 3.42969L12.8214 3.45243L16.0048 3.47517L16.2277 3.6116C16.3641 3.69801 16.5006 3.83444 16.587 3.97088L16.7234 4.19372V8.36405V12.5344L16.587 12.7572C16.5006 12.8937 16.3641 13.0301 16.2277 13.1165L16.0048 13.2529H8.74201H1.47917L1.25633 13.1165C1.1199 13.0301 0.983462 12.8937 0.897054 12.7572L0.76062 12.5344V8.36405V4.19372L0.897054 3.97088C0.983462 3.83444 1.1199 3.69801 1.25633 3.6116L1.47917 3.47517L4.47162 3.45243C6.80465 3.43424 7.47772 3.41605 7.5232 3.37057C7.55503 3.33873 7.89157 2.77936 8.26449 2.11992L8.95121 0.928401H10.743H12.5349L12.7896 1.37863C12.9305 1.62421 13.0943 1.86525 13.1488 1.91073C13.2625 2.00623 13.4308 2.01987 13.5627 1.95166C13.6673 1.89708 13.7446 1.67424 13.7128 1.53781C13.6673 1.37409 13.067 0.346283 12.9624 0.255327C12.876 0.182562 12.7031 0.178015 10.7476 0.178015C9.00123 0.178015 8.60557 0.18711 8.53736 0.241684Z">
    </path>
    <path
        d="M1.94377 1.01875C1.83463 1.12335 1.83008 1.15973 1.83008 1.6327C1.83008 2.10567 1.83463 2.14206 1.94377 2.24666C2.01199 2.31942 2.10749 2.36035 2.1939 2.36035C2.42584 2.36035 2.55773 2.18754 2.55773 1.88283V1.6327H2.92155H3.28537V1.88283C3.28537 2.09203 3.30357 2.1557 3.39907 2.24666C3.5446 2.39673 3.7538 2.39673 3.89933 2.24666C4.00847 2.14206 4.01302 2.10567 4.01302 1.6327C4.01302 1.15973 4.00847 1.12335 3.89933 1.01875C3.79018 0.905056 3.78108 0.905056 2.92155 0.905056C2.06202 0.905056 2.05292 0.905056 1.94377 1.01875Z">
    </path>
    <path
        d="M8.49178 2.83917C8.26439 3.06201 8.42357 3.45312 8.74191 3.45312C8.82832 3.45312 8.92383 3.41219 8.99204 3.33943C9.06481 3.27121 9.10574 3.17571 9.10574 3.0893C9.10574 3.00289 9.06481 2.90739 8.99204 2.83917C8.92383 2.76641 8.82832 2.72548 8.74191 2.72548C8.65551 2.72548 8.56 2.76641 8.49178 2.83917Z">
    </path>
    <path
        d="M2.36085 3.88046C1.58318 4.16697 1.25119 4.99012 1.62866 5.68594C1.86969 6.12253 2.23351 6.34082 2.73832 6.34082C3.24767 6.34082 3.6024 6.12707 3.85253 5.67229C3.97077 5.46764 3.98897 5.38123 3.98897 5.09018C3.98897 4.79912 3.97077 4.71271 3.85253 4.50806C3.707 4.23974 3.54783 4.08966 3.26586 3.94413C3.03393 3.82589 2.59279 3.79405 2.36085 3.88046ZM3.11124 4.71726C3.37956 4.98103 3.2977 5.40852 2.94752 5.57224C2.74287 5.67229 2.51548 5.62682 2.34721 5.44945C2.09708 5.19023 2.19713 4.73545 2.53367 4.58537C2.69739 4.5126 2.97026 4.57173 3.11124 4.71726Z">
    </path>
    <path
        d="M9.82429 4.24878C8.29623 4.53984 7.10016 5.65405 6.68631 7.17756C6.54988 7.67327 6.54988 8.69198 6.68631 9.18769C7.07287 10.6021 8.13706 11.6708 9.54233 12.0573C10.0562 12.1983 11.0658 12.1983 11.5797 12.0573C12.985 11.6708 14.0492 10.6021 14.4358 9.18769C14.5767 8.68743 14.5722 7.67327 14.4358 7.16392C14.0492 5.7541 12.9623 4.67627 11.5661 4.31245C11.1068 4.18966 10.2882 4.16237 9.82429 4.24878ZM11.5388 5.06283C12.5894 5.39937 13.3306 6.14066 13.6854 7.20485C13.79 7.51865 13.8036 7.64598 13.8082 8.15989C13.8127 8.83296 13.7309 9.17859 13.4352 9.75162C13.2079 10.1882 12.5666 10.8294 12.13 11.0568C11.5661 11.3479 11.2068 11.4343 10.561 11.4343C9.91525 11.4343 9.55597 11.3479 8.99204 11.0568C8.55546 10.8294 7.91422 10.1882 7.68683 9.75162C7.39577 9.18769 7.30936 8.82841 7.30936 8.18262C7.30936 7.53684 7.39577 7.17756 7.68683 6.61363C7.91422 6.1725 8.55546 5.53126 8.99204 5.30842C9.61054 4.99462 10.0108 4.90366 10.6975 4.93095C11.0476 4.94459 11.2705 4.97643 11.5388 5.06283Z">
    </path>
    <path
        d="M9.98241 5.70365C9.00008 5.9174 8.19512 6.79513 8.04959 7.80474C7.75399 9.8467 9.84597 11.3611 11.6924 10.4516C12.2063 10.1969 12.5747 9.82851 12.8293 9.31461C13.7798 7.38179 12.0926 5.24433 9.98241 5.70365ZM11.0329 6.4313C11.3831 6.52226 11.6514 6.68598 11.897 6.95885C12.2836 7.38634 12.4428 7.92298 12.3473 8.47781C12.279 8.88257 12.1335 9.15998 11.8379 9.46014C11.5378 9.75574 11.2603 9.90127 10.8556 9.96949C10.2917 10.065 9.75957 9.90127 9.31843 9.50107C8.60442 8.85073 8.5544 7.6774 9.20928 6.96794C9.68225 6.45404 10.3553 6.25394 11.0329 6.4313Z">
    </path>
    <path
        d="M1.21526 6.84113C1.14249 6.90934 1.10156 7.00485 1.10156 7.09125C1.10156 7.17766 1.14249 7.27317 1.21526 7.34138L1.3244 7.45508H3.64833H5.97226L6.0814 7.34138C6.15417 7.27317 6.1951 7.17766 6.1951 7.09125C6.1951 7.00485 6.15417 6.90934 6.0814 6.84113L5.97226 6.72743H3.64833H1.3244L1.21526 6.84113Z">
    </path>
    <path
        d="M15.0414 6.84113C14.9687 6.90934 14.9277 7.00485 14.9277 7.09125C14.9277 7.17766 14.9687 7.27317 15.0414 7.34138C15.146 7.45053 15.1824 7.45508 15.6554 7.45508C16.1284 7.45508 16.1647 7.45053 16.2693 7.34138C16.3421 7.27317 16.383 7.17766 16.383 7.09125C16.383 7.00485 16.3421 6.90934 16.2693 6.84113C16.1647 6.73198 16.1284 6.72743 15.6554 6.72743C15.1824 6.72743 15.146 6.73198 15.0414 6.84113Z">
    </path>
</svg>