<svg xmlns:xlink="http://www.w3.org/1999/xlink" width="20" height="16" viewBox="0 0 20 16"
    xmlns="http://www.w3.org/2000/svg">
    <path
        d="M0.749276 0.46558C0.471946 0.567754 0.277329 0.728313 0.136232 0.97645C0.0194617 1.17107 0 1.25864 0 1.5749C0 1.90088 0.0194617 1.969 0.145963 2.18308C0.238406 2.32904 0.384369 2.475 0.530331 2.56744C0.739545 2.69394 0.817392 2.71341 1.11418 2.71341C1.37692 2.70854 1.50828 2.68421 1.67371 2.59664L1.88292 2.4896L2.00456 2.6015C2.16998 2.75233 2.55435 3.32645 2.73437 3.68649C3.21118 4.64012 3.6442 6.1484 3.82422 7.50585C3.87288 7.86589 3.90694 7.98753 3.99451 8.07511C4.22806 8.30865 4.64648 8.14322 4.64648 7.81724C4.64648 7.24312 4.3205 5.69591 3.98478 4.69364C3.59555 3.5162 3.17226 2.71827 2.57868 2.03225C2.35 1.76951 2.32081 1.71113 2.29648 1.45326C2.2381 0.864545 1.8148 0.45585 1.23095 0.421792C1.04607 0.407195 0.856315 0.426657 0.749276 0.46558ZM1.41097 1.30243C1.65424 1.54084 1.48395 1.95927 1.14338 1.95927C0.943893 1.95927 0.754141 1.76951 0.754141 1.57003C0.754141 1.37055 0.943893 1.1808 1.14338 1.1808C1.23582 1.1808 1.33799 1.22459 1.41097 1.30243Z">
    </path>
    <path
        d="M6.45619 4.76213C6.11561 4.8497 5.83828 5.01999 5.59014 5.27786C5.13279 5.75467 5.03548 6.09525 5.03548 7.18024C5.03548 7.92952 5.04035 7.94898 5.15712 8.06575C5.29821 8.21171 5.51716 8.22145 5.67285 8.09494C5.78476 8.0025 5.78962 7.97331 5.81395 7.13159C5.83828 6.26068 5.83828 6.25581 5.98424 6.01741C6.07668 5.87144 6.22265 5.72548 6.36861 5.63304L6.60701 5.48708L9.54573 5.47248C11.8568 5.46275 12.5039 5.47248 12.6012 5.52113C12.6645 5.55519 13.2726 6.37258 13.9635 7.36026C14.6496 8.33822 15.2577 9.17507 15.3113 9.21886C15.394 9.29184 15.5156 9.30643 16.1335 9.30643C16.9655 9.30643 17.2574 9.35509 17.6515 9.55944C18.0067 9.74919 18.284 10.0557 18.4787 10.4644C18.6295 10.7855 18.6343 10.8099 18.6489 11.6029L18.6684 12.4203H18.0651H17.4569L17.4034 12.1722C17.238 11.457 16.6347 10.7077 15.9681 10.3817C15.3307 10.0752 14.5474 10.0265 13.8614 10.2601C13.0537 10.5277 12.3239 11.3353 12.1293 12.1722L12.0758 12.4203H10.0955H8.1153L8.06178 12.1722C7.89635 11.457 7.29304 10.7077 6.62648 10.3817C5.9891 10.0752 5.20577 10.0265 4.51975 10.2601C3.71209 10.5277 2.98227 11.3353 2.78765 12.1722L2.73413 12.4203H2.13082H1.53237V10.8634V9.30643H7.24925H12.971L13.0878 9.1848C13.2337 9.0437 13.2435 8.82476 13.117 8.66906L13.0245 8.55229H6.98165H0.938792L0.846349 8.66906C0.758772 8.7761 0.753906 8.88801 0.753906 10.8731V12.9604L0.875542 13.0771C0.992312 13.1988 1.00204 13.1988 1.86322 13.1988H2.73413L2.79252 13.4664C3.05525 14.6292 4.19376 15.5342 5.40039 15.5342C6.65567 15.5342 7.78931 14.6487 8.05691 13.4664L8.1153 13.1988H10.0955H12.0758L12.1341 13.4664C12.3969 14.6292 13.5354 15.5342 14.742 15.5342C15.9973 15.5342 17.1309 14.6487 17.3985 13.4664L17.4569 13.1988H18.3278C19.515 13.1988 19.4371 13.2864 19.4371 11.9678C19.4371 10.8439 19.369 10.4401 19.0868 9.94381C18.7706 9.38428 18.0797 8.84908 17.4423 8.66906C17.3207 8.63501 16.8877 8.59608 16.4741 8.58149L15.7248 8.55229L14.4793 6.77641C13.2143 4.98107 13.0926 4.83511 12.7277 4.73293C12.6207 4.70374 11.4481 4.68428 9.63331 4.68915C7.26385 4.68915 6.6654 4.70374 6.45619 4.76213ZM5.93072 10.985C6.30536 11.0823 6.59242 11.2575 6.85515 11.5494C7.26871 12.0067 7.439 12.5809 7.33683 13.1744C7.26385 13.6075 7.10815 13.9043 6.7919 14.2254C6.47078 14.5416 6.17399 14.6973 5.74097 14.7703C4.43703 14.9941 3.28879 13.8459 3.5126 12.5419C3.71209 11.3937 4.79708 10.6931 5.93072 10.985ZM15.2723 10.985C15.647 11.0823 15.934 11.2575 16.1968 11.5494C16.6103 12.0067 16.7806 12.5809 16.6784 13.1744C16.6055 13.6075 16.4498 13.9043 16.1335 14.2254C15.8124 14.5416 15.5156 14.6973 15.0826 14.7703C13.7787 14.9941 12.6304 13.8459 12.8542 12.5419C13.0537 11.3937 14.1387 10.6931 15.2723 10.985Z">
    </path>
    <path
        d="M5.03053 11.7541C4.7532 11.8563 4.55858 12.0169 4.41748 12.265C4.30071 12.4596 4.28125 12.5472 4.28125 12.8634C4.28125 13.1894 4.30071 13.2575 4.42721 13.4716C4.51966 13.6176 4.66562 13.7635 4.81158 13.856C5.02566 13.9874 5.09378 14.002 5.42462 14.002C5.75547 14.002 5.82359 13.9874 6.03767 13.856C6.18363 13.7635 6.32959 13.6176 6.42204 13.4716C6.5534 13.2575 6.568 13.1894 6.568 12.8586C6.568 12.5277 6.5534 12.4596 6.42204 12.2455C6.21769 11.9147 5.91117 11.7347 5.5122 11.7103C5.32732 11.6957 5.13756 11.7152 5.03053 11.7541ZM5.69222 12.591C5.93549 12.8294 5.7652 13.2478 5.42462 13.2478C5.33218 13.2478 5.23001 13.204 5.15703 13.1262C5.07918 13.0532 5.03539 12.951 5.03539 12.8586C5.03539 12.7661 5.07918 12.664 5.15703 12.591C5.23001 12.5131 5.33218 12.4693 5.42462 12.4693C5.51707 12.4693 5.61924 12.5131 5.69222 12.591Z">
    </path>
    <path
        d="M14.3723 11.7541C14.095 11.8563 13.9004 12.0169 13.7593 12.265C13.6425 12.4596 13.623 12.5472 13.623 12.8634C13.623 13.1894 13.6425 13.2575 13.769 13.4716C13.8615 13.6176 14.0074 13.7635 14.1534 13.856C14.3675 13.9874 14.4356 14.002 14.7664 14.002C15.0973 14.002 15.1654 13.9874 15.3795 13.856C15.5254 13.7635 15.6714 13.6176 15.7638 13.4716C15.8952 13.2575 15.9098 13.1894 15.9098 12.8586C15.9098 12.5277 15.8952 12.4596 15.7638 12.2455C15.5595 11.9147 15.253 11.7347 14.854 11.7103C14.6691 11.6957 14.4794 11.7152 14.3723 11.7541ZM15.034 12.591C15.2773 12.8294 15.107 13.2478 14.7664 13.2478C14.5669 13.2478 14.3772 13.0581 14.3772 12.8586C14.3772 12.6591 14.5669 12.4693 14.7664 12.4693C14.8589 12.4693 14.961 12.5131 15.034 12.591Z">
    </path>
    <path
        d="M9.82867 5.97373C9.70703 6.0905 9.70703 6.10023 9.70703 7.0198C9.70703 7.93936 9.70703 7.94909 9.82867 8.06586C9.90165 8.14371 10.0038 8.1875 10.0963 8.1875C10.1887 8.1875 10.2909 8.14371 10.3639 8.06586C10.4855 7.94909 10.4855 7.93936 10.4855 7.0198C10.4855 6.10023 10.4855 6.0905 10.3639 5.97373C10.2909 5.89588 10.1887 5.8521 10.0963 5.8521C10.0038 5.8521 9.90165 5.89588 9.82867 5.97373Z">
    </path>
    <path
        d="M13.72 8.69864C13.4767 8.93704 13.647 9.35547 13.9876 9.35547C14.187 9.35547 14.3768 9.16572 14.3768 8.96623C14.3768 8.76675 14.187 8.577 13.9876 8.577C13.8951 8.577 13.7929 8.62079 13.72 8.69864Z">
    </path>
</svg>