<svg xmlns:xlink="http://www.w3.org/1999/xlink" width="48" height="47" viewBox="0 0 48 47"
    xmlns="http://www.w3.org/2000/svg">
    <path
        d="M8.42211 47C8.25505 47 8.08532 46.9838 7.91826 46.9541C6.53864 46.6945 5.58205 45.5427 5.54432 44.0935C5.53354 43.7447 5.53623 43.3959 5.53893 43.0282C5.53893 42.8578 5.54162 42.6848 5.54162 42.5064V42.3793L5.42308 42.3333C3.54496 41.6222 3.18926 41.1139 3.18926 39.1266V5.77836L3.07874 5.72969C2.98713 5.68914 2.89551 5.65399 2.80659 5.61613C2.61527 5.53773 2.43479 5.46202 2.25965 5.3755C1.23301 4.86989 0.642845 3.70998 0.855716 2.61766C1.07398 1.4983 2.01708 0.641201 3.1488 0.530346C3.24581 0.522235 3.34286 0.519531 3.46142 0.519531H16.6352C25.8614 0.519531 35.0876 0.519531 44.3166 0.524939C44.6992 0.524939 45.0414 0.570903 45.3378 0.660127C46.3537 0.971061 47.0543 1.85519 47.119 2.91777C47.1836 3.97224 46.6043 4.9456 45.6424 5.39983C45.4834 5.47554 45.3136 5.54043 45.1357 5.61073C45.0495 5.64317 44.9606 5.67832 44.869 5.71617L44.7558 5.76214C44.7558 5.76214 44.7558 12.1376 44.7558 14.7089C44.7531 22.731 44.7504 31.0235 44.7693 39.1807C44.772 40.8516 44.2573 41.7196 42.9909 42.1765C42.7187 42.2738 42.5678 42.7037 42.5355 42.9525C42.5032 43.2039 42.5031 43.4554 42.5031 43.7014C42.5031 43.9475 42.5032 44.18 42.4735 44.4098C42.293 45.7752 41.2879 46.8053 39.9676 46.973C39.849 46.9892 39.7304 46.9946 39.6092 46.9946C38.4586 46.9946 37.4104 46.2835 36.9389 45.1831C36.8041 44.8722 36.6855 44.545 36.567 44.2314C36.4026 43.7879 36.2301 43.3256 36.02 42.8903C35.8771 42.5983 35.4433 42.2576 35.0957 42.2576C30.6955 42.2414 26.2225 42.2387 21.895 42.2333C18.9148 42.2306 15.9346 42.2279 12.9544 42.2225C12.4101 42.2225 12.1164 42.4361 11.9412 42.9579C11.7041 43.6609 11.4265 44.3801 11.0924 45.1561C10.6101 46.2754 9.56192 47 8.42211 47ZM37.4859 42.5226C37.5748 42.7497 37.6529 42.9795 37.7283 43.2012C37.9143 43.7393 38.0867 44.2476 38.3777 44.6991C38.6068 45.0533 39.1996 45.4508 39.6523 45.4508C39.7008 45.4508 39.7466 45.4454 39.7897 45.4372C40.2882 45.3318 40.8109 44.7424 40.9699 44.28C41.1074 43.8745 41.0777 43.4256 41.0481 42.9903C41.0373 42.8119 41.0238 42.628 41.0238 42.455V42.2711H37.3915L37.4859 42.5226ZM7.01285 42.4577C7.01285 42.6551 6.99936 42.847 6.98858 43.0336C6.95894 43.4635 6.93469 43.8691 7.06403 44.2368C7.23649 44.7289 7.70269 45.3102 8.18232 45.4318C8.23621 45.4454 8.29277 45.4535 8.35744 45.4535C8.78588 45.4535 9.38946 45.1209 9.62658 44.7586C9.92837 44.2935 10.1089 43.7717 10.3029 43.2174C10.3811 42.9903 10.4619 42.7578 10.5535 42.5253L10.6505 42.2765H7.01555V42.4577H7.01285ZM22.3773 40.7678C29.8979 40.7678 36.1197 40.7705 41.9561 40.7786C42.4465 40.7786 42.7726 40.6759 42.9909 40.4542C43.2118 40.2325 43.3115 39.8945 43.3061 39.3916C43.2872 37.5179 43.29 35.6144 43.29 33.7732C43.29 32.8431 43.2927 31.913 43.29 30.9802C43.29 30.8126 43.2684 30.6449 43.2468 30.4854C43.2361 30.4124 43.228 30.3394 43.2199 30.2637L43.2037 30.0988H28.4078L28.3971 30.2691C28.3917 30.3556 28.3863 30.434 28.3782 30.5124C28.3647 30.6693 28.3539 30.8099 28.3512 30.9532C28.2946 32.6944 27.3273 33.6704 25.6216 33.7029C25.0504 33.7137 24.4333 33.7245 23.8163 33.7245C23.1777 33.7245 22.609 33.7137 22.0782 33.6921C20.6636 33.6326 19.6666 32.616 19.5965 31.1613C19.5857 30.9613 19.575 30.7639 19.5615 30.5611L19.5319 30.1069H4.65779V30.2907C4.65779 31.1478 4.65779 32.0022 4.6551 32.8539C4.6524 35.144 4.64972 37.5125 4.66589 39.8323C4.67397 40.7759 5.54164 40.7759 5.9593 40.7759H6.26915C11.6394 40.7678 17.0097 40.7678 22.3773 40.7678ZM21.1217 30.2556C21.0516 31.0775 21.0678 31.5804 21.3453 31.8859C21.6121 32.178 22.0594 32.2347 22.7896 32.2374C23.2342 32.2401 23.6761 32.2401 24.1207 32.2401C24.4953 32.2401 24.8725 32.2401 25.247 32.2374C26.0123 32.232 26.4192 32.1131 26.651 31.8265C26.9339 31.4804 26.9015 30.9396 26.7668 30.2367L26.7372 30.0879H21.1324L21.1217 30.2556ZM4.68207 28.5008H43.2333V17.9453H28.3944L28.3728 18.3157C28.3647 18.4455 28.3566 18.5645 28.3539 18.6834C28.2973 20.549 27.2949 21.544 25.4599 21.5548C25.1581 21.5576 24.8564 21.5576 24.5546 21.5576L23.0914 21.5548C20.4884 21.5548 19.7313 20.8492 19.575 18.2752C19.5696 18.186 19.5211 18.1265 19.4753 18.067C19.4564 18.0427 19.4349 18.0156 19.4106 17.9805L19.3567 17.8994H19.2597C18.9956 17.8994 18.7289 17.9048 18.4621 17.9129C18.1927 17.9183 17.9178 17.9264 17.6456 17.9264C17.166 17.9264 16.778 17.9048 16.425 17.8615C16.2525 17.8399 16.0586 17.6101 15.87 17.3856C15.8107 17.318 15.7514 17.245 15.6921 17.1802C15.7406 17.1288 15.7918 17.0774 15.8403 17.026C16.0532 16.8016 16.2552 16.588 16.4924 16.4366C16.5301 16.4123 16.5894 16.4015 16.6729 16.4015C16.7484 16.4015 16.8319 16.4096 16.9181 16.4204C17.0097 16.4312 17.1068 16.4393 17.2011 16.4393H43.2307V5.69454H28.4024L28.3917 5.86488L28.3782 6.04063C28.3701 6.15419 28.362 6.25422 28.3566 6.35426C28.2946 8.36046 27.3408 9.29596 25.3576 9.30408C24.8591 9.30678 24.3579 9.30678 23.8594 9.30678C23.4174 9.30678 22.9756 9.30678 22.5336 9.30408C20.6394 9.29596 19.6504 8.31179 19.5992 6.384C19.5965 6.25693 19.5777 6.13255 19.5615 6.01359C19.5534 5.96222 19.5453 5.90814 19.5399 5.85407L19.5211 5.69184H4.71437V16.4393H4.89758C5.12123 16.4393 5.33685 16.4393 5.55241 16.442C5.7599 16.442 5.96199 16.4447 6.16409 16.4447C6.42816 16.4447 6.68681 16.442 6.94549 16.4393H6.98318C7.57599 16.4393 7.8805 16.6854 7.8832 17.1693C7.88589 17.391 7.82663 17.5614 7.70538 17.6831C7.55718 17.8318 7.30923 17.9102 6.98588 17.9102H6.95897C6.68952 17.9075 6.41736 17.9048 6.14521 17.9048C5.93772 17.9048 4.68746 17.9075 4.68746 17.9075V28.5008H4.68207ZM21.1055 18.1265C21.0489 18.9052 21.0732 19.4162 21.3588 19.7244C21.639 20.0272 22.1241 20.0867 22.8651 20.0867H24.0884C24.4387 20.0867 24.789 20.0867 25.142 20.0867C25.8372 20.0867 26.2926 20.0272 26.5701 19.7352C26.8584 19.4297 26.8935 18.916 26.8531 18.1292L26.845 17.9561H21.119L21.1055 18.1265ZM21.1082 5.85407C21.0489 6.64357 21.0732 7.16269 21.3588 7.47362C21.639 7.77645 22.1214 7.83593 22.8597 7.83593H24.0857C24.436 7.83593 24.789 7.83593 25.1393 7.83593C25.8291 7.83593 26.3438 7.76563 26.624 7.44118C26.9096 7.10591 26.8988 6.58138 26.791 5.84325L26.7668 5.68643H21.1217L21.1082 5.85407ZM43.8369 4.17773C43.9124 4.17773 43.9933 4.18584 44.0741 4.19395C44.1657 4.20206 44.26 4.21288 44.3516 4.21288C44.4594 4.21288 44.6157 4.20206 44.7477 4.11014C45.2786 3.73431 45.5615 3.37741 45.5965 3.05296C45.6234 2.77718 45.3729 2.47976 44.7531 2.05527C44.6319 1.97146 44.4863 1.96334 44.3893 1.96334C44.3112 1.96334 44.2277 1.97146 44.1442 1.97957C44.0741 1.98497 44.0013 1.99309 43.9367 1.99309H4.02454C3.95718 1.99309 3.88711 1.98497 3.81705 1.97957C3.73352 1.97146 3.65001 1.96334 3.57187 1.96334C3.47487 1.96334 3.3294 1.97416 3.20814 2.05527C2.58839 2.47976 2.33506 2.77718 2.35931 3.05026C2.39165 3.37471 2.67461 3.73161 3.20275 4.11014C3.33209 4.20206 3.49106 4.21288 3.59884 4.21288C3.69046 4.21288 3.78478 4.20477 3.87639 4.19395C3.95723 4.18584 4.03804 4.17773 4.11348 4.17773H27.9605H43.8369Z">
    </path>
</svg>