<svg xmlns:xlink="http://www.w3.org/1999/xlink" viewBox="0 0 17 21" fill="currentColor"
    xmlns="http://www.w3.org/2000/svg">
    <path
        d="M5.7357 0.911472C5.55227 1.03555 5.50911 1.2028 5.56306 1.56425C5.62241 1.99045 5.80583 2.40585 6.09176 2.75652C6.42624 3.16653 6.53414 3.43088 6.53414 3.84629C6.53414 4.2509 6.43164 4.50986 6.10794 4.93605C5.55767 5.66436 5.36345 6.6732 5.72491 6.86742C5.88136 6.95374 6.07558 6.93216 6.22124 6.81347C6.32913 6.73255 6.3669 6.63544 6.39927 6.39806C6.44782 5.98805 6.52335 5.82621 6.84165 5.43238C7.64549 4.44512 7.64009 3.33917 6.83086 2.30875C6.52875 1.92571 6.44782 1.74228 6.39927 1.34306C6.3669 1.11108 6.32913 1.01398 6.22124 0.933052C6.05939 0.803575 5.89754 0.79818 5.7357 0.911472Z">
    </path>
    <path
        d="M3.27421 2.66498C3.02605 2.8592 3.09079 3.43645 3.41448 3.92199C3.51159 4.06765 3.63567 4.25108 3.68422 4.32661C3.82988 4.53701 3.8083 4.92004 3.64646 5.14663C3.34434 5.56743 3.17171 5.97204 3.14473 6.3335C3.12315 6.66798 3.12855 6.69496 3.26882 6.80285C3.57093 7.04023 3.90541 6.89996 3.97015 6.50614C4.01331 6.24718 4.10502 6.04757 4.34779 5.71309C4.82254 5.05491 4.78478 4.27266 4.23989 3.60909C4.11042 3.44724 4.03489 3.28539 3.99713 3.08578C3.91081 2.60564 3.58711 2.41682 3.27421 2.66498Z">
    </path>
    <path
        d="M8.4539 2.66498C8.20573 2.8592 8.27047 3.43645 8.59417 3.92199C8.69127 4.06765 8.81536 4.25108 8.86391 4.32661C9.00957 4.53701 8.98799 4.92004 8.82615 5.14663C8.52403 5.56743 8.3514 5.97204 8.32442 6.3335C8.30284 6.66798 8.30824 6.69496 8.4485 6.80285C8.75062 7.04023 9.0851 6.89996 9.14984 6.50614C9.193 6.24718 9.28471 6.04757 9.52748 5.71309C10.0022 5.05491 9.96447 4.27266 9.41958 3.60909C9.29011 3.44724 9.21458 3.28539 9.17681 3.08578C9.09049 2.60564 8.7668 2.41682 8.4539 2.66498Z">
    </path>
    <path
        d="M0.134872 7.91994L0 8.05481L0.0161846 11.3349C0.0377642 14.5287 0.0377642 14.6204 0.156451 15.0358C0.636596 16.7514 1.97453 18.0515 3.67391 18.4507C4.02997 18.5371 4.36985 18.5479 6.47925 18.5479C8.58865 18.5479 8.92852 18.5371 9.28459 18.4507C10.984 18.0515 12.3381 16.7406 12.7967 15.0358C12.8992 14.6689 12.9207 14.4262 12.9423 13.2771L12.9639 11.9445L12.8236 11.8096C12.6618 11.6424 12.4244 11.6262 12.2464 11.7719C12.1169 11.8744 12.1169 11.8906 12.0845 13.2177C12.0576 14.4046 12.036 14.5988 11.9335 14.9333C11.7069 15.6238 11.4587 16.0284 10.9354 16.5571C10.3959 17.0912 9.99132 17.3394 9.28459 17.5606C8.88537 17.6847 8.8476 17.6847 6.47925 17.6847C4.1109 17.6847 4.07313 17.6847 3.67391 17.5606C2.96718 17.3394 2.56257 17.0912 2.02308 16.5571C1.49978 16.0284 1.25701 15.6346 1.02503 14.9333C0.900945 14.561 0.900945 14.5233 0.879365 11.5992L0.863181 8.64825H6.47385H12.0899V9.15537C12.0899 9.94302 12.0252 9.91065 13.5034 9.94302L14.7064 9.96999L15.0463 10.1534C15.424 10.3584 15.5912 10.5311 15.8016 10.9357C15.9203 11.1677 15.9419 11.2809 15.9419 11.6694C15.9419 12.0632 15.9203 12.1657 15.7962 12.4085C15.5103 12.9642 15.0032 13.3148 14.3989 13.3796C14.1508 13.4065 14.0321 13.4443 13.9404 13.536C13.676 13.8058 13.881 14.2589 14.2641 14.2589C14.906 14.2589 15.5696 13.973 16.0606 13.4821C17.0856 12.457 17.0856 10.8817 16.0659 9.86749C15.4509 9.24708 14.9546 9.07984 13.7515 9.07984H12.9531V8.56733C12.9531 8.09258 12.9423 8.03863 12.8182 7.91994L12.6888 7.78507H6.47925H0.269744L0.134872 7.91994Z">
    </path>
    <path
        d="M12.2247 10.509C12.1384 10.5899 12.0898 10.7032 12.0898 10.8057C12.0898 10.9082 12.1384 11.0215 12.2247 11.1024C12.3056 11.1888 12.4189 11.2373 12.5214 11.2373C12.6239 11.2373 12.7372 11.1888 12.8182 11.1024C12.9045 11.0215 12.953 10.9082 12.953 10.8057C12.953 10.7032 12.9045 10.5899 12.8182 10.509C12.7372 10.4227 12.6239 10.3741 12.5214 10.3741C12.4189 10.3741 12.3056 10.4227 12.2247 10.509Z">
    </path>
    <path
        d="M0.140731 20.0041C0.0544133 20.085 0.00585938 20.1983 0.00585938 20.3008C0.00585938 20.4033 0.0544133 20.5166 0.140731 20.5975L0.270208 20.7324H6.47971H12.6892L12.8187 20.5975C12.905 20.5166 12.9536 20.4033 12.9536 20.3008C12.9536 20.1983 12.905 20.085 12.8187 20.0041L12.6892 19.8692H6.47971H0.270208L0.140731 20.0041Z">
    </path>
</svg>
