<svg xmlns:xlink="http://www.w3.org/1999/xlink" viewBox="0 0 63 35" fill="currentColor"
    xmlns="http://www.w3.org/2000/svg">
    <path
        d="M31.2853 34.8972C29.515 34.8972 27.7285 34.8891 25.977 34.8701C25.3869 34.8647 24.9261 34.6836 24.6459 34.3483C24.3468 33.9887 24.2444 33.4561 24.3495 32.8072C24.6836 30.7685 25.8989 29.7438 28.0653 29.6735L28.2404 29.6681V12.6884H26.6884C25.7668 12.6884 24.8426 12.6884 23.9211 12.6911C22.9995 12.6911 22.0753 12.6938 21.1537 12.6938C19.8549 12.6938 18.5562 12.6911 17.2574 12.683C16.2711 12.6776 15.5247 12.3451 15.1556 11.7448C14.781 11.1365 14.8161 10.3037 15.258 9.40065C15.9128 8.05958 17.7532 7.00781 19.4454 7.00781C19.9034 7.00781 20.3157 7.08893 20.6714 7.24574C20.8816 7.33767 21.1456 7.77027 21.1241 7.98117C21.0998 8.18395 20.7495 8.53003 20.507 8.58681C20.1971 8.65981 19.8657 8.66522 19.5774 8.66522H19.2163C19.0708 8.66522 18.8984 8.66793 18.7205 8.67874C17.3894 8.77067 16.616 9.49528 16.3547 10.8904L16.3143 11.1067H46.0947L46.0759 10.9066C45.9384 9.37902 45.1678 8.68956 43.5807 8.67063C42.5621 8.65711 41.4466 8.6517 40.067 8.6517C39.3529 8.6517 38.6388 8.65441 37.9248 8.65441C37.2107 8.65711 36.4993 8.65711 35.7853 8.65711H30.5524C28.8494 8.65711 27.1438 8.65711 25.4408 8.6517H25.3276C24.9423 8.6517 24.5058 8.6517 24.2902 8.42999C24.1743 8.31103 24.1205 8.12988 24.1258 7.87302C24.142 7.20789 24.5839 7.16193 25.3114 7.16193H34.9607C37.817 7.16193 40.6732 7.16193 43.5295 7.16463C45.3429 7.16734 46.6337 7.96224 47.3693 9.52772C47.7654 10.374 47.7788 11.1635 47.4097 11.7556C47.0405 12.3451 46.3292 12.6722 45.4022 12.6803C44.2489 12.6884 43.0014 12.6938 41.4762 12.6938C40.5655 12.6938 39.652 12.6911 38.7412 12.6911C37.8305 12.6884 36.917 12.6884 36.0062 12.6884H34.3544V29.6735L34.5296 29.6789C36.6475 29.7546 37.8466 30.7469 38.2023 32.7152C38.329 33.4101 38.2319 33.9752 37.9275 34.3429C37.6445 34.6863 37.1838 34.8647 36.564 34.8701C34.8018 34.8891 33.026 34.8972 31.2853 34.8972ZM30.3692 31.2255C29.5042 31.2255 28.6393 31.2255 27.7743 31.2282C26.5725 31.2309 25.9393 31.8771 25.8881 33.1533L25.88 33.3425H36.758L36.7338 33.137C36.5775 31.85 35.9469 31.2255 34.8098 31.2255H30.3692ZM29.7279 27.4294C29.7279 29.1652 29.7279 29.8141 30.9135 29.8141C31.2584 29.8141 31.6976 29.7654 32.3039 29.6978C32.3874 29.6897 32.4548 29.6519 32.5302 29.6113C32.5653 29.5924 32.6057 29.5708 32.6569 29.5464L32.762 29.4978V12.7722H29.7279V27.4294Z">
    </path>
    <path
        d="M4.21026 34.8549C4.12673 34.8549 4.03511 34.8387 3.93272 34.809C3.70907 34.7414 3.56355 34.6386 3.48811 34.4926C3.3399 34.2141 3.45308 33.7869 3.56895 33.4057C4.24259 31.2021 4.91624 28.9959 5.60066 26.7436L6.43059 24.0263L6.26891 23.9669C3.17823 22.8015 1.63963 20.5709 1.42676 16.9452C1.22466 13.5087 0.874368 10.0262 0.534851 6.65733L0.370485 5.02155C0.224978 3.56963 0.219584 2.19882 1.7043 1.37687C2.15429 1.12813 2.76326 0.990234 3.42074 0.990234C4.65486 0.990234 5.83778 1.45799 6.43867 2.1826C7.08807 2.96669 7.5704 4.04549 7.69704 4.99722C7.95303 6.92771 8.112 8.90416 8.2656 10.8184C8.34913 11.8567 8.43535 12.9301 8.53505 13.9845C8.76409 16.3774 9.19253 16.7694 11.588 16.7721H11.7524C12.3802 16.7721 13.0081 16.7694 13.6359 16.764C14.2637 16.7613 14.8916 16.7559 15.5167 16.7559C16.4921 16.7559 17.2924 16.764 18.0361 16.7829C20.7253 16.8478 22.4579 18.4025 22.6654 20.9386C22.7489 21.9661 22.5442 22.7637 22.0565 23.3044C21.5633 23.8506 20.7846 24.1372 19.7418 24.1561C19.6098 24.1588 19.4777 24.1588 19.3403 24.1588L18.2517 24.1561L18.8337 26.0974C19.2083 27.3439 19.5667 28.547 19.9304 29.7502C20.0921 30.2829 20.2565 30.8155 20.4208 31.3481C20.6149 31.9808 20.8115 32.6135 21.0002 33.2462L21.0433 33.3841C21.2669 34.1114 21.3559 34.5683 20.7199 34.79C20.5987 34.8333 20.4882 34.8522 20.3939 34.8522C20.0005 34.8522 19.8523 34.4764 19.6717 33.9032C19.6529 33.8464 19.6367 33.7869 19.6178 33.7329C19.4077 33.0921 19.2137 32.454 19.0089 31.778C18.92 31.4833 18.8283 31.1832 18.734 30.8804L18.6936 30.7506L14.1047 30.7479C11.8629 30.7479 9.21948 30.7506 6.61113 30.7749C6.27431 30.7777 5.85394 31.1616 5.7273 31.4779C5.53868 31.9511 5.39587 32.4459 5.25845 32.9244C5.17491 33.2164 5.086 33.5193 4.99168 33.8113L4.96474 33.8951C4.77073 34.4764 4.61445 34.8549 4.21026 34.8549ZM12.3048 24.1507C11.1138 24.1507 9.90929 24.1615 8.72368 24.1805C8.38686 24.1859 7.87758 24.4752 7.76171 24.805C7.41411 25.7946 7.11501 26.7923 6.79974 27.8522C6.69196 28.2172 6.57879 28.5903 6.46562 28.9688L6.39286 29.2041H18.2221L18.1493 28.9688C18.0334 28.5876 17.9203 28.2172 17.8098 27.8495C17.4918 26.795 17.1927 25.7973 16.8478 24.8104C16.732 24.4833 16.2254 24.1886 15.9047 24.1832C14.7083 24.1615 13.4985 24.1507 12.3048 24.1507ZM3.66056 2.64494C3.25638 2.64494 2.7983 2.70713 2.36717 2.82069C1.89562 2.94506 1.84711 4.36724 1.87406 4.73766C2.23782 9.39625 2.57465 13.5979 3.02195 17.878C3.3426 20.944 5.26114 22.6582 8.42457 22.7042C9.03085 22.7123 9.67756 22.7177 10.4563 22.7177C11.0141 22.7177 11.5745 22.715 12.1323 22.7123C12.682 22.7096 13.2344 22.7069 13.7841 22.7069C14.3607 22.7069 14.9401 22.7096 15.5167 22.7096C16.096 22.7123 16.6727 22.7123 17.252 22.7123C18.1736 22.7123 18.928 22.7096 19.6313 22.6988C20.2915 22.6907 20.6984 22.5609 20.949 22.2797C21.1996 21.9985 21.2804 21.5767 21.213 20.9089C21.0541 19.3272 19.8792 18.2889 18.2167 18.27C17.4056 18.2592 16.5164 18.2565 15.4224 18.2565C14.8458 18.2565 14.2664 18.2565 13.6898 18.2592C13.1131 18.2592 12.5365 18.2619 11.9572 18.2619H11.2754C8.51081 18.2565 7.29825 17.1236 7.09076 14.355L7.03957 13.6817C6.83208 10.905 6.61652 8.03626 6.26353 5.22974C6.15305 4.34561 5.57102 3.36414 4.91354 2.94236C4.60905 2.74498 4.18601 2.64494 3.66056 2.64494Z">
    </path>
    <path
        d="M42.1992 34.8429C42.0995 34.8429 41.981 34.8213 41.8516 34.778C41.1887 34.559 41.2992 34.1021 41.539 33.3721C41.566 33.2882 41.5929 33.2071 41.6172 33.1287C42.0241 31.7714 42.4363 30.4168 42.8459 29.0596C43.2016 27.8861 43.5573 26.7154 43.9103 25.542C43.9803 25.3094 44.0369 25.0742 44.0989 24.8228C44.1285 24.7038 44.1582 24.5794 44.1905 24.4523L44.2444 24.2414L44.0288 24.2252C43.9103 24.2144 43.8025 24.2063 43.7055 24.1982C43.5169 24.182 43.3525 24.1657 43.1881 24.163C41.7977 24.1306 40.7765 23.6926 40.2376 22.8977C39.6986 22.1001 39.6717 20.9861 40.1594 19.6775C40.8061 17.9417 42.0321 16.9764 43.7028 16.8872C45.5028 16.7899 47.3432 16.7872 49.1189 16.7844C49.8249 16.7844 50.5309 16.7817 51.2368 16.7763C53.3009 16.7574 53.7886 16.3248 53.9853 14.3402C54.1955 12.2232 54.3841 10.0656 54.5646 7.98098C54.6509 6.97788 54.7371 5.97478 54.8287 4.97439C55.0362 2.66266 56.8065 0.986328 59.0403 0.986328C59.4364 0.986328 59.8406 1.0377 60.2421 1.14315C61.6271 1.50004 62.3789 2.64103 62.2523 4.193C61.9451 7.94853 61.5975 11.7635 61.2607 15.4542L61.1663 16.4762C61.1502 16.6411 61.1367 16.8061 61.1232 16.971C61.0613 17.7227 60.9993 18.4986 60.7864 19.207C60.7271 19.4071 60.4307 19.5856 60.1451 19.7586C60.0589 19.81 59.9726 19.864 59.8891 19.9181C59.8433 19.8397 59.7975 19.7613 59.749 19.6829C59.5873 19.4206 59.423 19.1475 59.4391 18.9285C59.6574 16.2545 59.908 13.5372 60.1478 10.9119C60.331 8.91648 60.5196 6.85351 60.6948 4.82298C60.7056 4.70401 60.7244 4.57693 60.746 4.44174C60.8457 3.79825 60.9858 2.91412 59.8406 2.60318C59.5792 2.53288 59.3098 2.49773 59.0376 2.49773C57.9086 2.49773 56.9008 3.1169 56.529 4.03888C56.3835 4.40119 56.2919 4.83379 56.2407 5.39888C55.9766 8.36762 55.7098 11.4797 55.4512 14.6458C55.2571 17.0305 53.9637 18.2472 51.606 18.2634C51.0859 18.2661 50.5659 18.2688 50.0431 18.2688C49.5231 18.2688 49.003 18.2688 48.4803 18.2661C47.9602 18.2661 47.4375 18.2634 46.9174 18.2634C45.8881 18.2634 45.0528 18.2688 44.2956 18.2796C42.5711 18.304 41.3504 19.5153 41.3262 21.2213C41.3181 21.7296 41.4393 22.1109 41.6819 22.3596C41.9001 22.5813 42.2127 22.6949 42.6115 22.6949C46.7827 22.6922 50.8731 22.6868 55.0335 22.6273C55.3649 22.6219 55.6829 22.5002 55.9901 22.384C56.2649 22.2785 56.5263 22.1812 56.7823 22.1649C56.8038 22.1649 56.8227 22.1622 56.8442 22.1622C57.1191 22.1622 57.4074 22.265 57.7119 22.3731C57.7927 22.4029 57.8763 22.4326 57.9598 22.4597C57.9275 22.5273 57.8951 22.5948 57.8655 22.6624C57.7281 22.9626 57.596 23.2465 57.3993 23.4546C57.2538 23.6088 57.014 23.7007 56.7365 23.8061C56.5936 23.8602 56.4428 23.917 56.2892 23.99L56.1463 24.0576L56.7419 26.0124C57.4667 28.3944 58.1754 30.7251 58.884 33.0584C58.911 33.1477 58.946 33.2369 58.981 33.3288C59.0592 33.5343 59.14 33.7479 59.105 33.8966C59.0053 34.3211 58.7843 34.7239 58.6227 34.7726C58.6146 34.7753 58.5957 34.778 58.5688 34.778C58.3263 34.778 57.8951 34.5347 57.8116 34.3508C57.4748 33.6046 57.2538 32.7826 57.0383 31.9904L56.9628 31.7147C56.8011 31.1225 56.529 30.7305 55.7341 30.7305H55.7098C54.0607 30.7467 52.2958 30.7521 49.9838 30.7521C49.0057 30.7521 48.0249 30.7521 47.036 30.7494C46.0363 30.7494 45.0285 30.7467 44.0127 30.7467H43.8779L43.8375 30.8738C43.754 31.1388 43.6759 31.4037 43.595 31.6687C43.4118 32.2716 43.2258 32.8935 43.013 33.4937C42.9699 33.6154 42.9321 33.7479 42.8971 33.8777C42.7408 34.4806 42.6088 34.8429 42.1992 34.8429ZM44.3549 29.2245H56.1922L56.1194 28.9866C55.9981 28.5891 55.8796 28.2052 55.7664 27.8293C55.4646 26.8316 55.179 25.8907 54.8583 24.9688C54.7506 24.6632 54.3625 24.1955 54.0149 24.1901C52.3686 24.1603 50.7518 24.1576 49.3884 24.1576C48.8252 24.1576 45.8692 24.1603 45.8692 24.1603L44.3549 29.2245Z">
    </path>
</svg>
