<svg xmlns:xlink="http://www.w3.org/1999/xlink" viewBox="0 0 112 112" fill="currentColor"
    xmlns="http://www.w3.org/2000/svg">
    <path
        d="M76.0001 75.4183C75.8546 75.4183 75.5879 75.4183 75.348 73.3689L75.2726 72.7227H36.7671L36.6916 73.3689C36.6647 73.6068 36.6539 73.842 36.6458 74.0719C36.6 75.1966 36.5408 75.3778 35.8105 75.4048H35.762C35.5519 75.4048 35.312 75.4048 35.1423 73.4662L35.1019 73.0066L34.668 72.8471C32.3857 71.9981 32.1243 71.6168 32.1243 69.1321C32.1243 68.2047 32.127 67.2773 32.127 66.3526C32.1324 64.1355 32.1351 61.8454 32.1136 59.5716C32.1001 58.2521 32.5743 57.4058 33.6495 56.8272C34.1237 56.5704 34.4983 55.9431 34.5036 55.3969C34.5171 53.872 35.0641 52.6661 36.1797 51.7063C36.6836 51.2737 36.7428 50.4626 36.7455 50.1354C36.7617 48.1562 36.759 46.15 36.759 44.2114C36.759 43.1921 36.759 42.1755 36.759 41.1562C36.7644 38.2442 38.4755 36.503 41.3398 36.5003C46.1819 36.4949 51.0241 36.4922 55.8663 36.4922C60.8027 36.4922 65.7365 36.4949 70.673 36.5003C73.6074 36.503 75.2942 38.2199 75.2969 41.2076C75.2969 42.062 75.2969 42.919 75.2942 43.7734C75.2915 45.8526 75.2888 47.9913 75.3211 50.0948C75.3319 50.7167 75.6418 51.4359 76.0945 51.8901C77.0618 52.8581 77.5253 53.9234 77.5145 55.1482C77.5091 55.7565 77.6304 56.5163 78.6274 57.0003C79.4708 57.4085 79.9181 58.1548 79.9235 59.1525C79.945 63.1703 79.945 66.7663 79.9235 70.146C79.9154 71.3167 79.4923 72.1711 77.4067 72.8146L76.9379 72.9579L76.8948 73.45C76.8759 73.6636 76.8732 73.8772 76.8678 74.0854C76.8489 75.1966 76.7573 75.3562 76.0971 75.4183C76.0648 75.4156 76.0325 75.4183 76.0001 75.4183ZM35.312 58.0845C34.8809 58.0845 34.3393 58.1359 33.954 58.5279C33.5713 58.9199 33.5255 59.4499 33.5336 59.9176C33.5767 62.7944 33.5794 65.9119 33.5363 69.4511C33.5309 69.9108 33.5767 70.4326 33.954 70.8138C34.3339 71.2005 34.8539 71.2491 35.2635 71.2491C42.035 71.2383 49.1002 71.2329 56.2624 71.2329C62.8829 71.2329 69.7999 71.2383 76.822 71.2464C77.2289 71.2464 77.7462 71.1978 78.1154 70.8219C78.4872 70.4434 78.5304 69.9243 78.525 69.516C78.4926 66.9096 78.463 63.4704 78.5304 59.9852C78.5384 59.5337 78.498 58.9605 78.0938 58.5468C77.6977 58.1413 77.1534 58.0845 76.628 58.0845H76.593C72.6454 58.1034 68.7625 58.1061 65.82 58.1061C64.2114 58.1061 62.6054 58.1061 60.9967 58.1034C60.9967 58.1034 57.5773 58.1007 56.1088 58.1007C55.2977 58.1007 47.2005 58.1034 46.3921 58.1034C43.3661 58.1034 39.3755 58.1007 35.3363 58.0818L35.312 58.0845ZM54.9232 52.3146C49.6499 52.3146 44.3793 52.3146 39.1087 52.3173C37.9527 52.3173 37.0204 52.7202 36.4788 53.4529C35.9641 54.1532 35.8509 55.1022 36.1635 56.1215L36.3225 56.638H75.8681L75.9732 56.0323C76.1753 54.8724 76.0001 53.9477 75.4531 53.288C74.9304 52.6553 74.1247 52.3309 73.0604 52.3173C72.7235 52.3146 72.384 52.3119 72.0472 52.3119L70.4574 52.3146H54.9232ZM60.6141 46.5232C59.1644 46.5232 59.1617 47.456 59.159 48.4428C59.159 48.6727 59.159 48.9322 59.151 49.2378C59.1429 49.5919 59.1725 50.1084 59.5417 50.4869C59.8084 50.76 60.1776 50.8952 60.668 50.8952C60.703 50.8952 60.7408 50.8952 60.7812 50.8925C61.1746 50.8789 61.5976 50.8708 62.1177 50.8708C62.4518 50.8708 62.7859 50.8735 63.1201 50.8762C63.4515 50.8789 63.7856 50.8816 64.1198 50.8816C64.3515 50.8816 64.5805 50.8816 64.8123 50.8843C65.044 50.8843 65.2784 50.887 65.5102 50.887C65.7877 50.887 66.0653 50.8843 66.3428 50.8816C66.4587 50.8789 66.5664 50.8789 66.6688 50.8789C66.8601 50.8789 67.0272 50.8816 67.1781 50.8843H67.1996C67.3263 50.887 67.4422 50.8898 67.5419 50.8898C69.0616 50.8898 69.067 49.9705 69.0724 48.9079V48.8863C69.0724 48.67 69.0751 48.4131 69.0832 48.1157C69.0966 47.5966 68.9727 47.2099 68.7032 46.9341C68.3503 46.5718 67.8706 46.5232 67.4907 46.5232H67.4206C66.9248 46.5313 66.3886 46.534 65.7311 46.534C65.3404 46.534 64.9497 46.534 64.5617 46.5313C64.1709 46.5313 63.7775 46.5286 63.3868 46.5286C62.8722 46.5286 62.3602 46.5313 61.8482 46.5367C61.7701 46.5367 61.6946 46.5394 61.6219 46.5394C61.3794 46.5394 61.1719 46.534 60.9967 46.5313C60.8405 46.5259 60.7192 46.5232 60.6141 46.5232ZM50.3963 50.8762C50.6523 50.8762 50.8705 50.8816 51.0564 50.887C51.21 50.8925 51.3421 50.8952 51.4552 50.8952C51.7139 50.8952 52.1936 50.8952 52.5358 50.5518C52.9049 50.1787 52.9049 49.6974 52.9022 48.8214C52.9022 48.5807 52.9022 48.3131 52.9049 48.0021C52.913 47.5236 52.7918 47.1667 52.5358 46.9071C52.2852 46.6502 51.9403 46.5259 51.4849 46.5259H51.431C51.0106 46.534 50.558 46.5394 50.0083 46.5394C49.6634 46.5394 49.3184 46.5367 48.9708 46.5367H48.9089C48.6017 46.5367 48.2945 46.534 47.9846 46.534C47.7448 46.534 47.505 46.534 47.2652 46.5313C47.0227 46.5313 46.7802 46.5286 46.5376 46.5286C46.2466 46.5286 45.9556 46.5313 45.6619 46.5367C45.5433 46.5394 45.4329 46.5394 45.3305 46.5394C45.1338 46.5394 44.964 46.5367 44.8131 46.534C44.673 46.5313 44.5625 46.5286 44.4628 46.5286C42.997 46.5286 42.9943 47.4208 42.9916 48.451C42.9916 48.6727 42.9916 48.9349 42.9835 49.2486C42.9754 49.5974 43.0051 50.1057 43.3715 50.4815C43.7326 50.8519 44.2149 50.8952 44.5436 50.8952H44.6029C45.1122 50.887 45.6619 50.8816 46.3355 50.8816C46.7317 50.8816 47.1277 50.8843 47.5239 50.8843C47.9307 50.887 48.3295 50.887 48.7256 50.887C49.208 50.887 49.6903 50.8843 50.1726 50.8789C50.2535 50.8762 50.3262 50.8762 50.3963 50.8762ZM64.0955 45.0929C65.3188 45.0929 66.5395 45.0956 67.7628 45.101C69.4712 45.1091 70.4655 46.0933 70.4924 47.802C70.5005 48.3185 70.4978 48.8268 70.4951 49.3621C70.4951 49.6055 70.4924 49.8515 70.4924 50.1003V50.833H73.866V50.1003C73.866 49.1729 73.8687 48.2536 73.8687 47.3424C73.8741 45.0496 73.8768 42.9028 73.8553 40.7101C73.8391 39.031 72.7262 37.9657 70.9559 37.9306C70.4035 37.9198 69.808 37.9144 69.0859 37.9144C68.6412 37.9144 68.194 37.9171 67.7494 37.9171C67.3021 37.9198 66.8629 37.9198 66.4209 37.9198H41.7925C39.0979 37.9198 38.1871 38.8445 38.1871 41.578V50.8086H41.5634V50.0759C41.5634 49.8164 41.5634 49.5622 41.5607 49.3162C41.5581 48.7808 41.5581 48.2941 41.5634 47.8048C41.5877 46.0933 42.582 45.1064 44.2877 45.0983C45.5029 45.0929 46.7182 45.0902 47.9334 45.0902C49.1541 45.0902 50.372 45.0929 51.5927 45.0983C53.301 45.1064 54.298 46.0906 54.3223 47.7993C54.3304 48.3077 54.3277 48.8322 54.325 49.3351C54.325 49.5919 54.3223 49.8326 54.3223 50.0759V50.8086H57.7255V50.0759C57.7255 49.8164 57.7255 49.5676 57.7228 49.3216C57.7201 48.7997 57.7201 48.305 57.7255 47.8048C57.7498 46.0933 58.7441 45.1064 60.4498 45.0983C61.6704 45.0956 62.8829 45.0929 64.0955 45.0929Z">
    </path>
</svg>
