<svg xmlns:xlink="http://www.w3.org/1999/xlink" width="112" height="112" viewBox="0 0 112 112"
    xmlns="http://www.w3.org/2000/svg">
    <rect opacity="0.05" x="0.644531" y="0.59375" width="111.075" height="111.075" rx="55.5375" fill="none"></rect>
    <path
        d="M41.8204 79.465C40.5 79.465 40.4219 79.3866 40.4219 78.0888C40.4219 63.5182 40.4219 48.9449 40.4219 34.3716C40.4219 33.0629 40.4866 32.998 41.8204 32.998H70.3532C71.6736 32.998 71.7517 33.0765 71.7517 34.3743C71.7517 39.8386 71.7517 56.2315 71.7517 56.2315C71.7517 56.2315 71.7517 72.6245 71.7517 78.0888C71.7517 79.3974 71.687 79.4623 70.3532 79.4623H55.0642L41.8204 79.465ZM46.2233 34.7258C49.1038 35.9073 52.2538 37.1132 55.8564 38.411C56.5193 38.6489 56.7537 38.9707 56.751 39.6331C56.7375 50.5671 56.7375 61.7337 56.751 72.8218C56.751 73.487 56.5112 73.8195 55.8645 74.0521C53.6038 74.8605 51.3133 75.7122 49.1011 76.5368C48.4221 76.7883 47.7457 77.0424 47.0667 77.2939C46.8592 77.3723 46.6544 77.4588 46.455 77.5453C46.3634 77.5832 46.2745 77.6237 46.1829 77.6616L46.032 77.7238L46.1506 78.1293H70.3802V34.3743H46.2907L46.2233 34.7258ZM41.7665 77.7616L41.9901 77.7103C42.0683 77.6913 42.1383 77.6778 42.203 77.6643C42.3377 77.6373 42.4644 77.6129 42.5856 77.567C43.747 77.1371 44.9083 76.7045 46.0724 76.2746C48.899 75.2255 51.8226 74.1386 54.7031 73.0949C55.3795 72.8489 55.4361 72.4028 55.4361 71.8836C55.428 60.836 55.4253 50.8591 55.4468 40.6281C55.4495 39.9008 55.1908 39.5385 54.493 39.287C51.7499 38.2947 48.9691 37.2673 46.2799 36.2723C45.1482 35.8532 44.0164 35.4341 42.8847 35.0178C42.6961 34.9475 42.5021 34.8907 42.3 34.8312C42.203 34.8042 42.106 34.7744 42.0036 34.742L41.7665 34.669V77.7616Z">
    </path>
    <path
        d="M52.5624 58.9368C52.1636 58.9368 51.7783 58.7584 51.4442 58.4204C50.9241 57.8932 50.6223 57.0577 50.6331 56.1871C50.652 54.746 51.5331 53.5293 52.5597 53.5293H52.5867C53.6456 53.5509 54.4729 54.7379 54.4729 56.2358C54.4729 57.7337 53.6402 58.9206 52.5813 58.9368H52.5624ZM52.3981 54.8839C51.8079 55.8491 51.8133 56.6576 52.4169 57.5904L52.5759 57.8337L52.7268 57.5849C53.3277 56.5927 53.3223 55.8086 52.7052 54.8785L52.5462 54.6405L52.3981 54.8839Z">
    </path>
</svg>