<svg xmlns:xlink="http://www.w3.org/1999/xlink" viewBox="0 0 35 46" fill="currentColor"
    xmlns="http://www.w3.org/2000/svg">
    <path
        d="M3.12939 45.5965C2.83029 45.5965 2.62281 45.5343 2.49347 45.4018C2.34527 45.2531 2.2752 44.9854 2.27789 44.588C2.29675 41.9788 2.29407 39.3264 2.29138 36.7606C2.29138 35.8034 2.28868 34.8463 2.28868 33.8891V25.1587L2.12162 25.1452C0.83361 25.0451 0.8336 25.0451 0.830905 23.8338C0.830905 23.6283 0.833602 23.4229 0.833602 23.2147C0.836297 22.7875 0.841678 22.3441 0.825511 21.906C0.814732 21.6032 0.871322 21.3923 0.997968 21.2625C1.12461 21.1301 1.34019 21.0652 1.65276 21.0652H1.69049C2.16474 21.0733 2.67941 21.076 3.30994 21.076C3.69257 21.076 4.08058 21.076 4.47937 21.0733C4.89164 21.0733 5.31469 21.0706 5.75121 21.0706H5.93445V19.8944C5.93445 19.086 5.93445 18.2749 5.93176 17.4665C5.92906 15.7144 5.92637 13.9056 5.93715 12.1238C5.97218 6.13767 10.3347 1.30333 16.3086 0.630094C16.7101 0.58413 17.117 0.5625 17.5211 0.5625C22.7432 0.5625 27.3994 4.34507 28.5905 9.55794C28.8357 10.6259 28.8761 11.7534 28.8868 12.5077C28.9165 14.4815 28.9111 16.4174 28.9057 18.4669C28.903 19.2672 28.9003 20.0756 28.9003 20.8867V21.0706H29.0835C29.5012 21.0706 29.9108 21.0733 30.315 21.076C30.7084 21.0787 31.0964 21.0814 31.4817 21.0814C32.0988 21.0814 32.6027 21.076 33.0688 21.0625H33.1362C33.4703 21.0625 33.6994 21.1328 33.8341 21.2734C33.9715 21.4194 34.0308 21.66 34.0119 22.0115C33.9904 22.4306 33.9958 22.8578 34.0012 23.2687C34.0038 23.4634 34.0065 23.6554 34.0065 23.8501C34.0065 24.4341 33.9985 24.7693 33.8611 24.9099C33.7182 25.0559 33.3518 25.0965 32.7132 25.1587L32.5488 25.1749V31.0772C32.5488 35.5249 32.5488 39.9726 32.5488 44.4176C32.5488 45.5559 32.5272 45.5775 31.3659 45.5802H31.3255C31.1449 45.5802 30.9644 45.5775 30.7811 45.5748C30.5979 45.5721 30.4147 45.5694 30.2314 45.5694C29.962 45.5694 29.741 45.5748 29.5336 45.5884C29.4824 45.5911 29.4338 45.5938 29.388 45.5938C28.7979 45.5938 28.5635 45.3558 28.4961 44.6826C28.197 41.7409 27.8575 38.7532 27.5315 35.8656C27.4372 35.0193 27.3402 34.1757 27.2459 33.3295C27.227 33.1618 27.192 32.9942 27.1596 32.832C27.1435 32.7563 27.1273 32.6779 27.1138 32.6022L27.0869 32.4534H7.71556L7.49459 34.3839C7.34369 35.7115 7.19282 37.0282 7.04462 38.345C6.98803 38.8533 6.92875 39.3616 6.87216 39.8699C6.68893 41.484 6.49761 43.1496 6.33325 44.7934C6.27396 45.3721 6.05571 45.5857 5.52757 45.5857H5.4683C5.09106 45.5748 4.68685 45.564 4.27458 45.564C3.90812 45.564 3.57669 45.5721 3.26681 45.5911C3.21562 45.5938 3.1725 45.5965 3.12939 45.5965ZM3.44736 44.4609H5.26351L6.58382 32.4724H3.44736V44.4609ZM29.5767 44.4284H31.4171V32.4697H28.2482L29.5767 44.4284ZM3.43927 31.2773H16.8017V25.1749H3.43927V31.2773ZM18.0412 31.2692H31.409V25.1641H18.0412V31.2692ZM1.96534 23.9501H32.864V22.2332H1.96534V23.9501ZM17.4322 3.51772C22.2043 3.52313 25.9605 7.34625 25.9821 12.2184C25.9902 13.984 25.9875 15.7793 25.9875 17.5151C25.9875 18.3073 25.9848 19.0995 25.9848 19.8944V21.0571H27.8009V20.8732C27.8009 19.9161 27.8036 18.9698 27.809 18.0261C27.8171 15.9064 27.8252 13.9029 27.7956 11.8534C27.7201 6.53512 23.5004 2.07931 18.1921 1.7089C17.9469 1.69268 17.699 1.68186 17.4511 1.68186C12.2182 1.68186 7.83143 5.43739 7.24401 10.4177C6.98533 12.6186 7.00688 14.8844 7.02843 17.0771C7.03921 18.0424 7.0473 19.0401 7.03383 20.0161C7.03113 20.2054 7.0446 20.3946 7.05807 20.5785C7.06346 20.665 7.07156 20.7488 7.07425 20.8354L7.08235 21.0084H8.84997V20.8245C8.84997 19.9134 8.84997 19.0103 8.84727 18.11C8.84458 16.1632 8.84189 14.1516 8.85267 12.1833C8.87692 7.32192 12.6386 3.51231 17.4214 3.51231H17.4322V3.51772ZM18.7903 7.12725C15.8774 10.0473 13.1263 12.8079 10.3266 15.6333C10.1191 15.8442 9.96822 16.1849 9.96283 16.4634C9.94128 17.5313 9.94399 18.5831 9.94668 19.6971C9.94668 20.0702 9.94935 20.4433 9.94935 20.8245V21.0084H24.8719V20.8245C24.8719 19.9161 24.8746 19.013 24.88 18.1127C24.8881 15.9496 24.8989 13.7136 24.8531 11.5263C24.8261 10.1933 24.3627 8.9604 23.4384 7.75452L23.3118 7.58959L18.0493 12.8998L17.1196 12.213L22.6705 6.68654L20.6199 5.29409L18.7903 7.12725ZM17.0307 4.54245C15.1014 4.54245 13.1963 5.49958 11.8032 7.16781C10.27 9.00637 9.62332 11.3722 10.0302 13.6623L10.0922 14.0056L19.181 4.94531L18.9008 4.85068C18.2945 4.64789 17.6666 4.54245 17.0307 4.54245Z">
    </path>
    <path
        d="M14.7046 45.5956C14.489 45.5929 14.295 45.5929 14.1172 45.5902C13.2872 45.5875 12.8318 45.5848 12.6594 45.409C12.4842 45.2306 12.4869 44.7628 12.495 43.9112C12.4977 43.7381 12.4977 43.5516 12.4977 43.3461C12.4977 42.4944 12.4977 41.6427 12.4977 40.791C12.4977 39.3607 12.495 37.9277 12.5004 36.4974C12.5085 35.0293 13.2818 34.2506 14.7423 34.2425C15.6396 34.2371 16.5342 34.2344 17.4315 34.2344C18.3234 34.2344 19.218 34.2371 20.1099 34.2425C21.5192 34.2506 22.3329 35.0428 22.3383 36.4163C22.3464 37.6465 22.3437 38.8957 22.341 40.1043C22.3383 41.5886 22.3383 43.1244 22.3518 44.6358C22.3545 45.0008 22.2898 45.2468 22.1497 45.3874C22.015 45.5226 21.7886 45.5902 21.4572 45.5902H21.406C21.1311 45.5848 20.8886 45.5848 20.6731 45.5848H20.3551C19.6923 45.5848 19.3878 45.5686 19.2396 45.4253C19.0806 45.2685 19.0213 44.8899 18.9135 44.2005C18.8812 43.9896 18.8435 43.7516 18.7977 43.4786C18.7195 43.0135 18.636 42.5485 18.5524 42.0726L18.4043 41.2398H16.4399L16.413 41.3912C16.3564 41.713 16.2971 42.0347 16.2351 42.3592C16.0923 43.1108 15.9468 43.8895 15.8552 44.6709C15.7743 45.3631 15.4968 45.5956 14.7504 45.5956H14.7046ZM13.6402 44.7845L13.9151 44.625C14.0336 44.5547 14.1576 44.5006 14.2761 44.4438C14.5402 44.3221 14.7693 44.2167 14.8205 44.0085C14.9687 43.4056 15.0576 42.7999 15.1519 42.1591C15.1869 41.9266 15.2219 41.6914 15.2597 41.4507L15.2947 41.2398H13.6429V44.7845H13.6402ZM20.0776 44.4384H21.1931V41.2452H19.536L20.0776 44.4384ZM13.6267 40.0258H21.1985V38.3198H13.6267V40.0258ZM17.2752 35.3375C16.5126 35.3375 15.7474 35.3375 14.9848 35.3402C14.419 35.3429 14.0471 35.3916 13.8288 35.6349C13.6025 35.8891 13.5971 36.2865 13.6672 36.9354L13.686 37.0977H21.2066L21.212 36.9219C21.2389 36.2243 21.2093 35.8512 20.9803 35.6133C20.7593 35.3835 20.4063 35.3402 19.7892 35.3402C18.9512 35.3402 18.1132 35.3375 17.2752 35.3375Z">
    </path>
    <path d="M11.3367 26.9707H8.90625V27.9657H11.3367V26.9707Z"></path>
    <path d="M25.9445 26.9727H23.4844V27.9622H25.9445V26.9727Z"></path>
</svg>
