<svg xmlns:xlink="http://www.w3.org/1999/xlink" viewBox="0 0 19 17" fill="currentColor"
    xmlns="http://www.w3.org/2000/svg">
    <path
        d="M8.83349 1.13498C8.6063 1.41528 8.76533 1.90723 9.0834 1.90723C9.16973 1.90723 9.26515 1.85574 9.33331 1.76422C9.40601 1.67841 9.44691 1.55829 9.44691 1.4496C9.44691 1.34091 9.40601 1.22079 9.33331 1.13498C9.26515 1.04346 9.16973 0.991975 9.0834 0.991975C8.99707 0.991975 8.90165 1.04346 8.83349 1.13498Z">
    </path>
    <path
        d="M8.83376 2.5077L8.72016 2.64499V4.79583V6.94095H7.74778H6.77539L6.43461 6.71214C6.01203 6.42612 5.53492 6.22019 5.04419 6.1115C2.73137 5.59668 0.47308 7.63311 0.0641336 10.5962C-0.222129 12.6498 0.463992 14.7377 1.84078 15.9905C2.17248 16.2994 2.86769 16.7055 3.29026 16.8371C4.32172 17.1689 5.58945 16.963 6.45732 16.3166L6.75722 16.0935H9.06095H11.3647L11.6509 16.2937C12.5143 16.9057 13.5503 17.1346 14.5045 16.9229C15.4087 16.7227 16.1675 16.225 16.8355 15.3841C17.4443 14.6176 17.8079 13.8168 18.0169 12.7757C18.1486 12.1293 18.1396 10.8022 17.9987 10.1443C17.5807 8.19942 16.4083 6.71786 14.868 6.18587C14.4 6.0257 13.314 6.00854 12.8369 6.15727C12.4416 6.28311 11.9963 6.50621 11.6691 6.74646C11.4147 6.93523 11.3965 6.94095 10.9012 6.94095C10.4286 6.94095 10.3923 6.94667 10.2878 7.08396C10.2151 7.16976 10.1742 7.28989 10.1742 7.39858C10.1742 7.50726 10.2151 7.62739 10.2878 7.71319C10.3923 7.85048 10.4196 7.8562 10.9966 7.8562H11.601L11.9099 7.62739C13.4094 6.50049 15.2224 6.79794 16.4038 8.35387C16.94 9.06319 17.2399 9.77823 17.3807 10.7049C17.5398 11.7632 17.3671 12.9358 16.9127 13.8854C16.6719 14.3774 16.1221 15.081 15.7404 15.3841C14.5227 16.3337 13.0459 16.3223 11.8236 15.3498L11.61 15.1782H9.08367H6.55729L6.34373 15.3498C5.7712 15.8074 5.25775 16.0191 4.59889 16.0763C3.58107 16.1621 2.63141 15.7216 1.87258 14.8178C0.345852 12.9873 0.345852 10.0471 1.87258 8.21658C2.63141 7.31277 3.58107 6.87231 4.59889 6.95811C5.25775 7.01532 5.7712 7.22697 6.34373 7.68459L6.55729 7.8562H7.88864H9.22453L9.33358 7.71319L9.44718 7.57591V5.11045V2.64499L9.33358 2.5077C9.26542 2.41618 9.17 2.36469 9.08367 2.36469C8.99733 2.36469 8.90191 2.41618 8.83376 2.5077Z">
    </path>
    <path
        d="M3.98967 7.93135C3.73067 8.05147 3.54892 8.24024 3.41714 8.53198C3.30355 8.77795 3.28992 8.86376 3.27174 9.46439L3.25811 10.1337L2.72648 10.1508C2.22666 10.1737 2.17667 10.1852 1.9722 10.3453C1.32697 10.8487 1.32697 12.1873 1.9722 12.6907C2.17667 12.8508 2.22666 12.8623 2.72648 12.8851L3.25811 12.9023L3.27174 13.5716C3.28992 14.2008 3.299 14.2637 3.42623 14.5269C3.51257 14.6985 3.64888 14.8701 3.7852 14.9788C3.98513 15.1332 4.04874 15.1504 4.35772 15.1504C4.6667 15.1504 4.73032 15.1332 4.93025 14.9788C5.06656 14.8701 5.20288 14.6985 5.28921 14.5269C5.41644 14.2637 5.42552 14.2008 5.4437 13.5716L5.45733 12.9023L5.98896 12.8851C6.48878 12.8623 6.53877 12.8508 6.74778 12.6907C6.8841 12.582 7.02041 12.4104 7.10675 12.2387C7.22943 11.9871 7.24306 11.907 7.24306 11.518C7.24306 11.129 7.22943 11.0489 7.10675 10.7972C7.02041 10.6256 6.8841 10.454 6.74778 10.3453C6.53877 10.1852 6.48878 10.1737 5.98896 10.1508L5.45733 10.1337L5.4437 9.46439C5.42552 8.83516 5.41644 8.77223 5.28921 8.5091C5.09837 8.12012 4.81211 7.90846 4.43951 7.87986C4.26684 7.8627 4.08963 7.88558 3.98967 7.93135ZM4.60763 8.91524C4.71668 9.04681 4.72123 9.07541 4.72123 9.9163C4.72123 10.7572 4.72577 10.7858 4.83482 10.9174C4.93933 11.0546 4.96205 11.0604 5.63 11.0604C6.29794 11.0604 6.32066 11.0661 6.42517 11.2034C6.57512 11.3864 6.57512 11.6496 6.42517 11.8326C6.32066 11.9699 6.29794 11.9756 5.63 11.9756C4.96205 11.9756 4.93933 11.9813 4.83482 12.1186C4.72577 12.2502 4.72123 12.2788 4.72123 13.1082C4.72123 13.8633 4.71214 13.9834 4.6349 14.0979C4.51221 14.2866 4.20323 14.2866 4.08055 14.0979C4.0033 13.9834 3.99421 13.8633 3.99421 13.1082C3.99421 12.2788 3.98967 12.2502 3.88062 12.1186C3.77611 11.9813 3.75339 11.9756 3.08544 11.9756C2.4175 11.9756 2.39478 11.9699 2.29027 11.8326C2.21757 11.7468 2.17667 11.6267 2.17667 11.518C2.17667 11.4093 2.21757 11.2892 2.29027 11.2034C2.39478 11.0661 2.4175 11.0604 3.08544 11.0604C3.75339 11.0604 3.77611 11.0546 3.88062 10.9174C3.98967 10.7858 3.99421 10.7572 3.99421 9.9163C3.99421 9.07541 3.99876 9.04681 4.10781 8.91524C4.17597 8.82372 4.27139 8.77223 4.35772 8.77223C4.44405 8.77223 4.53947 8.82372 4.60763 8.91524Z">
    </path>
    <path
        d="M13.4419 7.93045C13.1829 8.05058 13.0012 8.23935 12.8694 8.53109C12.7604 8.7599 12.7422 8.86287 12.7422 9.23469C12.7422 9.61795 12.7604 9.69803 12.8785 9.94973C12.9648 10.1213 13.1012 10.2929 13.2375 10.4016C13.4374 10.5561 13.501 10.5732 13.81 10.5732C14.119 10.5732 14.1826 10.5561 14.3825 10.4016C14.5188 10.2929 14.6551 10.1213 14.7415 9.94973C14.8642 9.69803 14.8778 9.61795 14.8778 9.22897C14.8778 8.83998 14.8642 8.7599 14.7415 8.50821C14.5506 8.11922 14.2644 7.90757 13.8918 7.87897C13.7191 7.86181 13.5419 7.88469 13.4419 7.93045ZM14.0599 8.91435C14.2871 9.19464 14.1281 9.68659 13.81 9.68659C13.6237 9.68659 13.4465 9.4635 13.4465 9.22897C13.4465 8.99443 13.6237 8.77134 13.81 8.77134C13.8963 8.77134 13.9917 8.82282 14.0599 8.91435Z">
    </path>
    <path
        d="M11.6236 10.2185C11.3646 10.3387 11.1828 10.5274 11.0511 10.8192C10.942 11.048 10.9238 11.151 10.9238 11.5228C10.9238 11.906 10.942 11.9861 11.0601 12.2378C11.1465 12.4094 11.2828 12.581 11.4191 12.6897C11.619 12.8442 11.6827 12.8613 11.9916 12.8613C12.3006 12.8613 12.3642 12.8442 12.5642 12.6897C12.7005 12.581 12.8368 12.4094 12.9231 12.2378C13.0458 11.9861 13.0594 11.906 13.0594 11.5171C13.0594 11.1281 13.0458 11.048 12.9231 10.7963C12.7323 10.4073 12.446 10.1957 12.0734 10.1671C11.9008 10.1499 11.7235 10.1728 11.6236 10.2185ZM12.2415 11.2024C12.4687 11.4827 12.3097 11.9747 11.9916 11.9747C11.8053 11.9747 11.6281 11.7516 11.6281 11.5171C11.6281 11.2825 11.8053 11.0594 11.9916 11.0594C12.078 11.0594 12.1734 11.1109 12.2415 11.2024Z">
    </path>
    <path
        d="M15.2583 10.2185C14.9993 10.3387 14.8176 10.5274 14.6858 10.8192C14.5768 11.048 14.5586 11.151 14.5586 11.5228C14.5586 11.906 14.5768 11.9861 14.6949 12.2378C14.7812 12.4094 14.9176 12.581 15.0539 12.6897C15.2538 12.8442 15.3174 12.8613 15.6264 12.8613C15.9354 12.8613 15.999 12.8442 16.1989 12.6897C16.3352 12.581 16.4716 12.4094 16.5579 12.2378C16.6806 11.9861 16.6942 11.906 16.6942 11.5171C16.6942 11.1281 16.6806 11.048 16.5579 10.7963C16.367 10.4073 16.0808 10.1957 15.7082 10.1671C15.5355 10.1499 15.3583 10.1728 15.2583 10.2185ZM15.8763 11.2024C16.1035 11.4827 15.9445 11.9747 15.6264 11.9747C15.4401 11.9747 15.2629 11.7516 15.2629 11.5171C15.2629 11.2825 15.4401 11.0594 15.6264 11.0594C15.7127 11.0594 15.8082 11.1109 15.8763 11.2024Z">
    </path>
    <path
        d="M13.4419 12.5076C13.1829 12.6277 13.0012 12.8165 12.8694 13.1082C12.7604 13.337 12.7422 13.44 12.7422 13.8118C12.7422 14.1951 12.7604 14.2752 12.8785 14.5269C12.9648 14.6985 13.1012 14.8701 13.2375 14.9788C13.4374 15.1332 13.501 15.1504 13.81 15.1504C14.119 15.1504 14.1826 15.1332 14.3825 14.9788C14.5188 14.8701 14.6551 14.6985 14.7415 14.5269C14.8642 14.2752 14.8778 14.1951 14.8778 13.8061C14.8778 13.4171 14.8642 13.337 14.7415 13.0854C14.5506 12.6964 14.2644 12.4847 13.8918 12.4561C13.7191 12.439 13.5419 12.4618 13.4419 12.5076ZM14.0599 13.4915C14.2871 13.7718 14.1281 14.2637 13.81 14.2637C13.6237 14.2637 13.4465 14.0406 13.4465 13.8061C13.4465 13.5716 13.6237 13.3485 13.81 13.3485C13.8963 13.3485 13.9917 13.4 14.0599 13.4915Z">
    </path>
    <path
        d="M7.37922 13.4914C7.30652 13.5772 7.26562 13.6974 7.26562 13.806C7.26562 13.9147 7.30652 14.0349 7.37922 14.1207C7.48373 14.258 7.52008 14.2637 7.99264 14.2637C8.4652 14.2637 8.50155 14.258 8.60606 14.1207C8.67876 14.0349 8.71966 13.9147 8.71966 13.806C8.71966 13.6974 8.67876 13.5772 8.60606 13.4914C8.50155 13.3541 8.4652 13.3484 7.99264 13.3484C7.52008 13.3484 7.48373 13.3541 7.37922 13.4914Z">
    </path>
    <path
        d="M9.56086 13.4914C9.48816 13.5772 9.44727 13.6974 9.44727 13.806C9.44727 13.9147 9.48816 14.0349 9.56086 14.1207C9.66537 14.258 9.70172 14.2637 10.1743 14.2637C10.6468 14.2637 10.6832 14.258 10.7877 14.1207C10.8604 14.0349 10.9013 13.9147 10.9013 13.806C10.9013 13.6974 10.8604 13.5772 10.7877 13.4914C10.6832 13.3541 10.6468 13.3484 10.1743 13.3484C9.70172 13.3484 9.66537 13.3541 9.56086 13.4914Z">
    </path>
</svg>
