<svg xmlns:xlink="http://www.w3.org/1999/xlink" viewBox="0 0 46 47" fill="currentColor"
    xmlns="http://www.w3.org/2000/svg">
    <path
        d="M0.990671 46.0218C0.193076 46.0083 0.0313856 45.8541 0.0313856 45.0971C0.0259965 37.7753 0.0259965 30.5751 0.0313856 23.7022C0.0313856 23.0154 0.114929 22.7937 1.08767 22.7937C4.86816 22.7937 8.65138 22.791 12.4319 22.791H25.7242V16.4344C25.7242 14.0119 25.7215 11.5893 25.7269 9.16941C25.7296 8.32313 25.8805 8.16361 26.6862 8.16361C29.6179 8.16091 32.5469 8.1582 35.4786 8.1582C38.4103 8.1582 41.3393 8.1582 44.271 8.16361C45.0551 8.16361 45.2249 8.32854 45.2249 9.08289C45.2303 21.677 45.2303 33.4601 45.2249 45.1079C45.2249 45.7541 45.2249 46.0191 44.0797 46.0218C36.3813 46.0218 1.16043 46.0218 1.16043 46.0218H1.04994H0.990671ZM27.0553 44.6996H43.8857V24.151H27.0553V44.6996ZM19.7827 44.6915H25.6757V29.5991H19.7827V44.6915ZM1.34634 44.6888H18.3788V29.6261H1.34634V44.6888ZM1.34634 28.2121H25.6811V24.1267H1.34634V28.2121ZM27.0769 22.745H43.9099V9.51009H27.0769V22.745Z">
    </path>
    <path
        d="M5.1939 17.4938C3.83853 17.4938 2.48047 17.4938 1.12509 17.4911C0.168518 17.4911 0.0338034 17.3613 0.0284142 16.4312C0.0257196 16.1203 0.0310811 15.8121 0.0337757 15.5011V15.4687C0.0391649 14.8441 0.0472657 14.2033 0.0176254 13.5679C-0.00393126 13.0921 0.146965 12.773 0.556541 12.427C2.1652 11.0724 3.88974 9.60422 5.61157 8.05767C6.0427 7.67103 6.35796 6.98968 6.38222 6.40566C6.42533 5.31605 6.41724 4.21832 6.41185 3.16114C6.40916 2.67987 6.40646 2.2013 6.40916 1.72003C6.41185 0.816975 6.55466 0.668268 7.41692 0.665564C8.50823 0.66286 9.6022 0.660156 10.6935 0.660156C11.7848 0.660156 12.8789 0.66286 13.9702 0.665564C14.8297 0.668268 14.9725 0.816975 14.9752 1.72274C14.9752 2.07152 14.9779 2.42301 14.9806 2.7718C14.9887 3.89386 14.9968 5.04837 14.959 6.17314C14.9294 7.02483 15.2231 7.65751 15.9075 8.228C16.7456 8.92287 17.5836 9.64748 18.3946 10.3478C19.1653 11.0129 19.9629 11.7023 20.7659 12.3702C21.232 12.7595 21.3991 13.1191 21.3668 13.6572C21.329 14.2655 21.3398 14.8766 21.3479 15.4633V15.4984C21.3506 15.7526 21.356 16.004 21.3533 16.2582C21.3506 17.3992 21.2617 17.4911 20.1596 17.4938C18.8608 17.4938 13.4716 17.4938 13.4716 17.4938H5.1939ZM9.49713 8.34967C8.98516 8.34967 8.5702 8.35508 8.18487 8.3686C7.63248 8.38482 7.03161 8.60653 6.61664 8.94721C6.02653 9.43118 5.44449 9.93949 4.88402 10.4289C4.12145 11.0967 3.33194 11.7835 2.52626 12.4053C1.4107 13.2624 1.06041 14.2872 1.4161 15.6282L1.56161 16.1717H19.8443L19.9791 15.612C20.3051 14.2547 19.9359 13.2246 18.8123 12.3702C17.4677 11.3455 16.2309 10.2288 15.1989 9.27166C14.5064 8.63087 13.7519 8.33075 12.8223 8.33075C12.763 8.33075 12.701 8.33075 12.6391 8.33345C12.2133 8.34967 11.7606 8.35779 11.1705 8.35779C10.8929 8.35779 10.6154 8.35508 10.3379 8.35508C10.0576 8.35238 9.77737 8.34967 9.49713 8.34967ZM7.74566 2.6258C7.74027 2.66635 7.73489 2.70421 7.72951 2.73935C7.71064 2.85021 7.69178 2.96647 7.69178 3.09896C7.68908 3.8479 7.68908 4.59414 7.68908 5.36742V7.00049H13.6279V1.99041H7.8292L7.74566 2.6258Z">
    </path>
    <path
        d="M31.7778 32.2975C31.4787 32.2975 31.2308 32.0299 31.2012 31.6757C31.1769 31.381 31.1823 31.0754 31.1904 30.751V30.7294C31.1931 30.578 31.1958 30.4265 31.1958 30.2751C31.1958 30.1318 31.1931 29.9912 31.1904 29.8479C31.185 29.5343 31.1796 29.2396 31.1985 28.9557C31.2254 28.5555 31.468 28.2933 31.8183 28.2852C32.1686 28.2852 32.438 28.5366 32.4542 28.8854C32.5053 29.9615 32.5027 30.8889 32.4488 31.7244C32.438 31.8974 32.4138 32.2597 31.8129 32.2975C31.8021 32.2975 31.7913 32.2975 31.7778 32.2975Z">
    </path>
    <path
        d="M13.6031 39.1493C13.0723 39.1493 12.9807 38.6707 12.9726 38.3841C12.9537 37.6433 12.951 36.8484 12.9699 35.9561C12.978 35.5938 13.0938 35.1585 13.595 35.1504C14.1312 35.1504 14.231 35.6344 14.2417 35.9237C14.2525 36.1967 14.2498 36.4698 14.2471 36.7591C14.2444 36.897 14.2444 37.0349 14.2444 37.1728C14.2444 37.2945 14.2444 37.4189 14.2471 37.5405C14.2498 37.8136 14.2525 38.0732 14.2444 38.3327C14.231 38.7004 14.1124 39.1384 13.6166 39.1466L13.6031 39.1493Z">
    </path>
    <path
        d="M31.7799 18.58C31.4754 18.58 31.2248 18.3204 31.2086 17.9879C31.1574 16.9253 31.1601 15.9952 31.214 15.1489C31.2383 14.7731 31.4269 14.6001 31.8472 14.5703C31.858 14.5703 31.8715 14.5703 31.885 14.5703C32.1895 14.5703 32.432 14.8299 32.4616 15.1868C32.4858 15.4842 32.4805 15.7951 32.4724 16.125V16.152C32.4697 16.2953 32.467 16.4413 32.467 16.5846C32.467 16.7441 32.4697 16.9064 32.4751 17.0659C32.4832 17.3876 32.4912 17.6878 32.4616 17.9662C32.4158 18.3799 32.2353 18.5503 31.8203 18.58C31.8042 18.58 31.7906 18.58 31.7799 18.58Z">
    </path>
</svg>
