<svg xmlns:xlink="http://www.w3.org/1999/xlink" width="47" height="47" viewBox="0 0 47 47"
    xmlns="http://www.w3.org/2000/svg">
    <path
        d="M34.6422 46.0611C33.012 46.0611 31.4923 46.0503 30.0022 46.026C29.8216 46.0233 29.4417 45.6907 29.4067 45.5041C29.2315 44.574 29.3689 43.7845 29.8055 43.2195C30.2528 42.6381 31.0126 42.2975 31.9988 42.2353C32.085 42.2299 32.1686 42.2164 32.2656 42.2001C32.3141 42.192 32.368 42.1839 32.43 42.1758L32.5863 42.1542V16.7198L32.4273 16.6982C31.8587 16.6225 31.2901 16.5522 30.7243 16.4792C29.3824 16.3088 27.9947 16.1304 26.6393 15.933C25.7744 15.8059 24.8771 15.6221 23.8963 15.3706C22.8104 15.0922 22.2121 14.1648 22.3738 13.0075C22.8858 9.33042 24.0794 5.66681 26.1327 1.47868C26.5746 0.575619 27.3264 0.0943476 28.3019 0.0916438C30.2447 0.0835325 32.2252 0.078125 34.1868 0.078125C36.3641 0.078125 38.5871 0.0835326 40.7886 0.0943477C41.702 0.0997552 42.3891 0.510728 42.7798 1.28941C42.8607 1.45164 42.8122 1.82206 42.6883 1.97347C42.6694 1.98699 42.5508 2.02484 42.3783 2.02484C42.2706 2.02484 42.2005 2.00862 42.1735 1.9978C41.6212 1.18667 40.9287 1.07852 40.3251 1.07852C40.1257 1.07852 39.9236 1.09204 39.7269 1.10556C39.5302 1.11908 39.3443 1.12989 39.161 1.12989C39.0155 1.12989 38.8889 1.12178 38.773 1.10556L38.5359 1.07041L40.352 15.2949L40.5434 15.2571C40.9018 15.1841 41.2682 15.1165 41.6346 15.0462C42.7313 14.838 43.8631 14.6217 44.9732 14.3216C45.3586 14.2161 45.7061 13.3509 45.6037 12.9427C45.081 10.8716 44.4882 8.78426 43.9169 6.76454C43.7687 6.24542 43.6233 5.729 43.4777 5.20988C43.4212 5.00709 43.3349 4.81783 43.2541 4.63398L43.2353 4.59071C43.1302 4.35819 43.0332 4.09593 43.1059 3.91477C43.1436 3.81473 43.2352 3.73632 43.3834 3.67414C43.475 3.63358 43.5613 3.61465 43.6367 3.61465C43.8604 3.61465 44.0355 3.80392 44.1541 4.17704C44.8789 6.43198 45.6307 8.76533 46.3528 11.1284C46.4956 11.5989 46.5684 12.1072 46.6358 12.602L46.6789 12.8967C46.8702 14.2107 46.2909 15.0813 45.0055 15.4139C44.6499 15.5058 44.2915 15.5896 43.9196 15.6789C43.7472 15.7194 43.2487 15.8384 43.2487 15.8384V21.2297C43.2487 21.3108 43.2568 21.3946 43.2649 21.4812C43.2783 21.6299 43.2945 21.784 43.2487 21.8732C43.1409 22.0895 42.982 22.2842 42.8149 22.4897C42.7879 22.5221 42.7637 22.5546 42.7367 22.587C42.6963 22.5437 42.6532 22.5032 42.6128 22.4626C42.4457 22.2977 42.2598 22.1111 42.2517 21.9705C42.2005 20.8241 42.2059 19.6561 42.214 18.5232C42.2167 18.1204 42.2194 17.7175 42.2194 17.3146V16.1196H42.0361C41.9364 16.1196 41.8529 16.1169 41.7748 16.1169C41.7101 16.1142 41.6508 16.1142 41.5942 16.1142C41.508 16.1142 41.4406 16.1169 41.376 16.125C40.1715 16.2602 38.9697 16.4008 37.741 16.5441L36.4691 16.6928V42.1785L36.6389 42.192C36.7656 42.2028 36.8814 42.2082 36.9946 42.2164C37.2182 42.2299 37.4149 42.2434 37.6089 42.265C38.3311 42.3461 39.0047 42.8004 39.4116 43.4817C39.8239 44.1739 39.902 44.9688 39.6245 45.6637C39.5598 45.8259 39.2284 46.0368 39.0317 46.0395C37.4634 46.053 36.0326 46.0611 34.6422 46.0611ZM34.4105 43.2113C33.5132 43.2113 32.6887 43.2168 31.8884 43.2303C30.8914 43.2465 30.4683 43.7007 30.436 44.8066L30.4306 44.9958H38.6922L38.6814 44.8039C38.6275 43.771 38.1183 43.2411 37.1752 43.2303C36.1539 43.2168 35.2512 43.2113 34.4105 43.2113ZM33.6964 42.1677H35.3455V16.6955H33.6964V42.1677ZM34.9171 1.10015C34.1491 1.10015 33.2384 1.10285 32.306 1.13259C31.9881 1.14341 31.6405 1.60846 31.5866 1.89776L31.5004 2.37092C31.1501 4.30682 30.789 6.31031 30.533 8.29758C30.3309 9.86847 30.1854 11.4799 30.0452 13.04C29.9833 13.7349 29.9213 14.4351 29.8512 15.1354L29.8351 15.303L29.9995 15.3328C30.9938 15.5193 32.5486 15.6248 34.265 15.6248C36.0704 15.6248 38.3042 15.4977 39.1664 15.1435L39.2958 15.0894L37.5039 1.10556H37.3422C36.9057 1.10556 36.4853 1.10556 36.0704 1.10285C35.6796 1.10285 35.2943 1.10015 34.9171 1.10015ZM28.5659 1.08393C27.7306 1.08393 27.1621 1.50031 26.8198 2.35199C26.6366 2.81164 26.4237 3.27398 26.219 3.7174C25.8956 4.41767 25.5642 5.13958 25.3297 5.88852C24.6776 7.95691 24.1172 10.0875 23.5756 12.1505L23.4435 12.6479C23.3304 13.0751 23.2469 13.5645 23.4705 13.9376C23.6025 14.1594 23.8262 14.3081 24.1334 14.3811C25.1735 14.6271 26.2298 14.8245 27.251 15.0164C27.6741 15.0949 28.0971 15.1733 28.5094 15.2544L28.7007 15.2922L30.5114 1.10285H30.304C30.1639 1.10285 30.0156 1.10556 29.8647 1.11096C29.7111 1.11367 29.5549 1.11908 29.3959 1.11908C29.1803 1.11908 29.0024 1.11096 28.8354 1.09474C28.7438 1.08663 28.6522 1.08393 28.5659 1.08393Z">
    </path>
    <path
        d="M4.77581 46.0802C4.53869 46.0802 4.26113 46.0559 3.94856 46.0072C2.98929 45.8585 2.92728 45.2691 2.90842 44.3147C2.90303 44.0821 2.89767 43.8388 2.87073 43.6036L2.85184 43.4576L2.38299 43.4143C2.1782 43.3954 1.99494 43.3791 1.81441 43.3656C1.36441 43.3305 1.16775 43.1331 1.11386 42.6654C0.402487 36.7089 0.224637 31.3474 0.566848 26.2724C0.583015 26.0237 0.91178 25.6019 1.06537 25.5829C1.09501 25.5802 1.1246 25.5775 1.15155 25.5775C1.38328 25.5775 1.51805 25.7046 1.52344 26.3508L1.54232 28.0082C1.57735 31.3312 1.61233 34.7649 1.69586 38.1446C1.71742 39.0639 1.81984 39.9589 1.92762 40.9079C1.97613 41.3351 2.02463 41.7677 2.06505 42.2057L2.07854 42.3571L2.22938 42.3706C6.50029 42.7708 10.8251 42.9763 15.0852 42.9763C19.3265 42.9763 23.6513 42.7735 27.9357 42.376L28.0812 42.3625L28.1 42.2165C29.0054 34.7487 29.0054 27.4648 28.1027 19.9483L28.0839 19.8023L27.9384 19.7888C23.6513 19.3967 19.3265 19.1993 15.0826 19.1993C10.8251 19.1993 6.50569 19.3994 2.24826 19.7942L2.10005 19.8077L1.9815 20.9C1.90066 21.6354 1.82249 22.3546 1.74974 23.0765C1.68507 23.7092 1.5261 23.7958 1.36174 23.7958C1.31593 23.7958 1.26471 23.7876 1.20813 23.7714C1.05723 23.7309 0.782438 23.2793 0.793216 23.0279C0.844413 21.7706 0.971032 20.5566 1.17043 19.4211C1.20546 19.2237 1.60427 18.8965 1.85756 18.856C2.67671 18.7235 3.50127 18.6559 4.29886 18.591C4.59257 18.5667 4.88088 18.5423 5.16112 18.518L5.39551 18.4964L5.31473 18.2747C5.17191 17.8826 5.04521 17.477 4.92126 17.0823C4.64372 16.2036 4.35814 15.2951 3.89198 14.5056C3.21564 13.3592 3.68445 12.5264 4.18295 11.6423C4.36618 11.3179 4.55483 10.9799 4.68687 10.6284C4.8216 10.2607 5.03173 9.92272 5.25269 9.56582C5.43592 9.27111 5.62458 8.96558 5.7674 8.64113C6.10422 7.88137 6.36021 6.97831 5.70543 6.04011C5.57609 5.85355 5.54373 5.66698 5.61379 5.52639C5.68654 5.38579 5.859 5.30198 6.09073 5.29927C7.2979 5.28035 8.5536 5.26953 9.82275 5.26953C10.9679 5.26953 12.1616 5.27764 13.3742 5.29387C13.6221 5.29657 13.808 5.38309 13.8834 5.52909C13.9562 5.6751 13.9185 5.87247 13.7757 6.07525C13.1532 6.95398 13.3823 7.78944 13.6517 8.41672C13.835 8.84662 14.064 9.25759 14.2822 9.65775C14.4089 9.89027 14.5409 10.1282 14.6622 10.3661C15.2254 11.4747 15.6781 12.3913 16.0903 13.2538C16.1227 13.3214 16.1173 13.4592 16.0822 13.5512C15.6403 14.657 15.1903 15.7602 14.7107 16.9282L14.1987 18.18H14.4709C14.5895 18.18 14.708 18.1773 14.8211 18.1773C14.9316 18.1746 15.0395 18.1746 15.1472 18.1746C15.2712 18.1746 15.3924 18.1773 15.5164 18.1827C16.8825 18.2503 18.2487 18.3179 19.6148 18.3855C22.4145 18.5261 25.3111 18.6694 28.162 18.7992C28.7925 18.8289 29.0216 19.0587 29.1051 19.7536C29.8596 26.0534 29.9836 32.4289 29.4689 38.7016C29.4204 39.3019 29.3638 39.9021 29.3072 40.5023C29.2722 40.8728 29.2372 41.2432 29.2048 41.6136C29.1294 42.4518 29.0916 42.8708 28.8949 43.0817C28.6982 43.2926 28.2752 43.3656 27.4345 43.5062L27.297 43.5306L27.2836 43.6712C27.2647 43.8604 27.2593 44.0632 27.254 44.2579C27.227 45.2096 27.2054 46.0315 25.8743 46.0802C25.6884 46.0883 25.524 46.091 25.3731 46.091C24.3708 46.091 24.2333 45.9342 23.5354 43.9956L23.4923 43.8739H6.84523L6.79405 43.9659C6.68087 44.1659 6.57844 44.3849 6.47874 44.5958C6.2497 45.0798 6.01531 45.58 5.64885 45.8828C5.48179 46.0072 5.18 46.0802 4.77581 46.0802ZM24.5675 43.6657L24.8989 45.0474L26.2165 44.9852V43.5495L24.5675 43.6657ZM3.95125 44.9122L4.08059 44.9473C4.30963 45.0068 4.50092 45.0366 4.66799 45.0366C4.93745 45.0366 5.14224 44.9554 5.27966 44.7959C5.4575 44.5877 5.51142 44.2606 5.44136 43.7928L5.41979 43.6468L3.88659 43.5522L3.95125 44.9122ZM4.93745 14.1568C5.14223 15.6655 5.74585 16.9471 6.78865 18.0719C6.98536 18.2855 7.36526 18.3612 7.62933 18.3612H7.6536C9.02784 18.3395 10.491 18.3071 11.9272 18.2125C12.3314 18.1854 12.8622 17.9664 13.0508 17.6447C13.4981 16.8822 13.8969 16.0792 14.3146 15.2329C14.4763 14.9031 14.646 14.5651 14.8211 14.2163L14.9559 13.9513H4.90784L4.93745 14.1568ZM7.38684 6.44567C7.27636 6.80798 7.17933 7.16217 7.08502 7.50555C6.87753 8.25719 6.68082 8.96829 6.39789 9.63341C6.11765 10.2904 5.74583 10.9204 5.34972 11.5855C5.16649 11.8938 4.97515 12.2128 4.78653 12.5508L4.63299 12.8239H14.6837L14.6002 12.5805C14.3496 11.8451 13.9562 11.1692 13.5763 10.5175C12.846 9.26029 12.1562 8.07334 12.4419 6.53219L12.4823 6.31589H7.42184L7.38684 6.44567Z">
    </path>
    <path
        d="M15.107 41.2085C11.6176 41.2085 8.07154 41.0815 4.57128 40.8327C3.87069 40.784 3.62548 40.5407 3.56351 39.8323C3.0731 34.3842 3.02188 29.3147 3.4072 24.337C3.42876 24.072 3.45301 23.8044 3.47726 23.5394C3.51499 23.1149 3.55538 22.6742 3.57963 22.2389C3.61196 21.6251 3.85449 21.3845 4.47425 21.3602C7.09337 21.2493 9.74756 21.1141 12.3182 20.9843C13.2451 20.9384 14.1747 20.8897 15.0989 20.8438C16.0313 20.8897 16.9771 20.9384 17.9229 20.987C20.4612 21.1168 23.0857 21.2493 25.6617 21.3521C26.3299 21.3791 26.5644 21.6278 26.6318 22.3768C27.1464 28.1439 27.1491 34.0003 26.6344 39.7864C26.5671 40.5299 26.3111 40.7867 25.5728 40.8381C22.1049 41.0842 18.583 41.2085 15.107 41.2085ZM4.52003 39.8107L5.5332 39.8675C6.06403 39.8972 6.54637 39.9242 7.026 39.954C9.55891 40.1216 12.2265 40.2054 14.9561 40.2054C18.0279 40.2054 21.213 40.1027 24.6944 39.8918C25.3707 39.8512 25.6617 39.5673 25.694 38.9103C25.7156 38.4912 25.7507 38.0613 25.783 37.6477C25.8288 37.1042 25.8746 36.5445 25.888 35.9903C25.9123 35.0196 25.9069 34.0327 25.9015 33.0756C25.8988 32.6619 25.8961 32.2482 25.8961 31.8346V31.6507H4.12663L4.52003 39.8107ZM15.0962 21.9604C11.6526 21.9604 8.14965 22.101 4.67904 22.3741L4.52003 22.3876L4.12663 30.5259H26.0578L25.6617 22.3822L25.5027 22.3687C22.0133 22.0983 18.513 21.9604 15.0962 21.9604Z">
    </path>
    <path
        d="M15.0787 28.3765C14.5155 28.3738 13.9846 28.1413 13.5858 27.7249C13.1871 27.3112 12.9769 26.7732 12.9931 26.2108C13.0254 25.0806 13.9684 24.1641 15.0948 24.1641C15.6741 24.1668 16.2023 24.3939 16.593 24.7967C16.9891 25.205 17.1992 25.7485 17.1858 26.3244C17.1588 27.4545 16.2211 28.3765 15.0948 28.3765H15.0787ZM15.0625 25.1996C14.6987 25.2131 14.3996 25.3483 14.2163 25.5862C14.052 25.7998 13.9981 26.0729 14.0655 26.373C14.1275 26.6515 14.3241 26.8786 14.572 27.1652C14.696 27.3085 14.8361 27.4708 14.9816 27.6627L15.1352 27.8655L15.2781 27.6573C15.4155 27.4545 15.5529 27.2842 15.6714 27.1355C15.9113 26.8327 16.1026 26.592 16.143 26.3082C16.1834 26.0134 16.1107 25.7404 15.9355 25.5403C15.7469 25.3213 15.4532 25.2023 15.1137 25.2023L15.0625 25.1996Z">
    </path>
    <path
        d="M15.0862 38.0098C14.5311 38.0098 14.0057 37.7854 13.6015 37.3771C13.1973 36.9661 12.9791 36.4308 12.9845 35.8684C12.9979 34.7301 13.9437 33.8027 15.0889 33.8027C15.1104 33.8027 15.132 33.8027 15.1563 33.8027C16.3041 33.8379 17.1907 34.768 17.1772 35.9225C17.1637 37.0635 16.2314 37.999 15.0997 38.0071H15.0862V38.0098ZM15.1105 34.8139C15.0889 34.8139 15.0674 34.8139 15.0458 34.8166C14.6874 34.8329 14.3883 34.9762 14.2078 35.2141C14.0434 35.4304 13.9922 35.717 14.065 36.0144C14.1297 36.2929 14.329 36.52 14.5823 36.8039C14.709 36.9472 14.8491 37.1067 14.9973 37.2987L15.1536 37.5015L15.2937 37.2879C15.4284 37.0824 15.5605 36.9094 15.6764 36.758C15.9108 36.4497 16.0967 36.2064 16.1344 35.9198C16.1721 35.6251 16.0967 35.352 15.9215 35.1492C15.7329 34.9329 15.4446 34.8139 15.1105 34.8139Z">
    </path>
</svg>