<svg xmlns:xlink="http://www.w3.org/1999/xlink" viewBox="0 0 14 20" fill="currentColor"
    xmlns="http://www.w3.org/2000/svg">
    <path
        d="M4.31169 0.0624969C4.23983 0.0984272 3.63928 0.49366 2.972 0.940223C2.2072 1.44838 1.73497 1.79742 1.69904 1.87441C1.66311 1.96167 1.64258 2.51089 1.64258 3.5426V5.08247L1.7709 5.20566C1.84789 5.28779 1.95569 5.33398 2.05321 5.33398C2.15074 5.33398 2.25853 5.28779 2.33552 5.20566L2.46384 5.08247V3.67093V2.25938L3.25944 1.72042C3.70087 1.42272 4.07044 1.17634 4.08071 1.17634C4.0961 1.17634 4.10637 2.05406 4.10637 3.12684V5.08247L4.23469 5.20566C4.31169 5.28779 4.41948 5.33398 4.517 5.33398C4.61453 5.33398 4.72232 5.28779 4.79931 5.20566L4.92763 5.08247V2.66488V0.247281L4.79931 0.124092C4.66072 -0.0196294 4.5016 -0.0350281 4.31169 0.0624969Z">
    </path>
    <path
        d="M0.949586 5.87307C0.821264 5.99626 0.821264 5.99626 0.821264 7.10497V8.20854H0.538954C0.302841 8.20854 0.23098 8.22907 0.128322 8.33686L0 8.46005V13.1721C0 18.2485 0 18.228 0.266911 18.6745C0.538954 19.1365 1.02145 19.5009 1.5296 19.6292C1.79651 19.7011 2.10962 19.7114 3.42878 19.696C4.92758 19.6806 5.01998 19.6703 5.29715 19.5625C5.64106 19.4239 6.03116 19.0903 6.25187 18.7413C6.57524 18.2382 6.57011 18.3665 6.57011 13.1721V8.46005L6.44179 8.33686L6.3186 8.20854H4.92758H3.53657L3.41338 8.33686C3.24399 8.50112 3.24399 8.73723 3.41338 8.90148C3.53657 9.02981 3.53657 9.02981 4.64527 9.02981H5.74885L5.73858 13.5365L5.72318 18.0483L5.5692 18.2998C5.47167 18.4538 5.31768 18.6078 5.1637 18.7053L4.91218 18.8593H3.28506H1.65793L1.40641 18.7053C1.25243 18.6078 1.09844 18.4538 1.00092 18.2998L0.846928 18.0483L0.83153 13.5365L0.821264 9.02981H1.10357C1.33969 9.02981 1.41155 9.00927 1.51421 8.90148C1.64253 8.77829 1.64253 8.77829 1.64253 7.66959V6.56601H3.28506H4.92758V6.84832C4.92758 7.19223 5.07644 7.38728 5.33822 7.38728C5.43574 7.38728 5.54353 7.34108 5.62052 7.25896C5.74371 7.1409 5.74885 7.09984 5.74885 6.56601C5.74885 6.03219 5.74371 5.99113 5.62052 5.87307L5.49733 5.74475H3.28506H1.07278L0.949586 5.87307Z">
    </path>
    <path
        d="M2.18133 8.33636C1.92469 8.58787 2.10434 9.0293 2.46364 9.0293C2.67409 9.0293 2.87428 8.82911 2.87428 8.61866C2.87428 8.40822 2.67409 8.20803 2.46364 8.20803C2.36612 8.20803 2.25833 8.25423 2.18133 8.33636Z">
    </path>
    <path
        d="M8.88943 12.3917C8.39154 12.5303 7.92958 12.8896 7.65754 13.3464C7.40602 13.7673 7.39062 13.9418 7.39062 16.7957V19.4545L7.51895 19.5777L7.64214 19.7061H10.6757H13.7092L13.8324 19.5777L13.9607 19.4545V16.7957C13.9607 13.9059 13.9505 13.7827 13.6733 13.3105C13.4834 12.9871 13.0317 12.597 12.6878 12.4584C12.4055 12.3455 12.3336 12.3403 10.7783 12.3301C9.48998 12.3198 9.10501 12.3352 8.88943 12.3917ZM12.5543 13.3156C12.7083 13.4131 12.8623 13.5671 12.9598 13.7211L13.1138 13.9726L13.1292 16.4313L13.1446 18.8848H10.6757H8.20676L8.22215 16.4364L8.23755 13.9829L8.38127 13.7416C8.45827 13.6082 8.59172 13.4491 8.67898 13.3875C9.01775 13.1462 9.12041 13.1359 10.7578 13.1513L12.3028 13.1616L12.5543 13.3156Z">
    </path>
</svg>
