<svg xmlns:xlink="http://www.w3.org/1999/xlink" width="13" height="20" viewBox="0 0 13 20"
    xmlns="http://www.w3.org/2000/svg">
    <path fill-rule="evenodd" clip-rule="evenodd"
        d="M3.31426 0.0918814C3.24257 0.171032 3.23113 0.325861 3.23113 1.21433C3.23113 2.50658 3.15969 2.41116 4.12673 2.41116H4.83857V3.13175C4.83857 3.96807 4.86197 4.0186 5.24917 4.0186C5.61644 4.0186 5.64229 3.95971 5.64229 3.123V2.41116H6.04415H6.44601V3.13175C6.44601 3.96807 6.46941 4.0186 6.85661 4.0186C7.22388 4.0186 7.24973 3.95971 7.24973 3.123V2.41116H7.95964H8.66949L9.91204 2.81302C11.7169 3.39672 11.6377 3.42919 11.6609 2.09778C11.6835 0.799606 11.8321 0.965236 10.1393 0.401282L8.93484 0H6.16612C3.5476 0 3.3929 0.00501528 3.31426 0.0918814ZM9.76801 1.15749L10.8665 1.51125V1.86077C10.8665 2.05296 10.8567 2.21023 10.8447 2.21023C10.8327 2.21023 10.4338 2.07463 9.95814 1.90887L9.09334 1.60744H6.56412H4.03485V1.20558V0.803721H6.3522H8.66955L9.76801 1.15749ZM3.31426 4.51235C3.26276 4.56925 3.23113 4.69045 3.23113 4.83107C3.23113 5.24457 3.10124 5.22418 5.73417 5.22418H8.05345V5.94477C8.05345 6.81857 8.0458 6.80687 8.66318 6.87702C9.8552 7.01243 10.7289 7.70594 11.1059 8.81579L11.2423 9.21765L11.2577 14.0526L11.273 18.8874H6.04415H0.815334L0.833016 14.0526C0.852627 8.69008 0.834367 8.98515 1.18852 8.31349C1.78481 7.1825 2.51067 6.88248 4.73813 6.84629C6.48542 6.81787 6.44601 6.82751 6.44601 6.42977C6.44601 6.0173 6.49262 6.02791 4.67937 6.02791C3.26938 6.02791 3.05424 6.03871 2.70986 6.12679C1.46712 6.44462 0.433342 7.47737 0.115969 8.71812C-0.0335875 9.30297 -0.0409175 19.4731 0.108124 19.608C0.257874 19.7436 11.8661 19.735 11.9889 19.5993C12.1293 19.4442 12.1146 9.27436 11.9732 8.72153C11.7594 7.88591 11.1936 7.09377 10.475 6.62446C10.0093 6.3202 9.70899 6.20466 8.99528 6.05497L8.85717 6.02598V5.30636C8.85717 4.67296 8.84618 4.57677 8.76529 4.5036C8.61657 4.36903 3.43643 4.37732 3.31426 4.51235ZM6.94837 6.1284C6.69021 6.38649 6.88105 6.83163 7.24973 6.83163C7.51766 6.83163 7.65159 6.69769 7.65159 6.42977C7.65159 6.29583 7.61809 6.19534 7.55116 6.1284C7.48416 6.0614 7.38366 6.02791 7.24973 6.02791C7.1158 6.02791 7.0153 6.0614 6.94837 6.1284ZM1.70682 9.33467C1.57167 9.48403 1.58009 17.4761 1.71557 17.5987C1.86499 17.7339 10.2589 17.7255 10.3815 17.59C10.5166 17.4406 10.5082 9.44854 10.3727 9.32592C10.2233 9.19071 1.82944 9.19913 1.70682 9.33467ZM9.66089 13.4623V16.8781H6.04415H2.4274V13.4623V10.0465H6.04415H9.66089V13.4623ZM5.73031 10.9684C5.38188 11.2914 4.60967 12.443 4.27706 13.1358C3.57139 14.6055 4.44706 16.0493 6.04415 16.0493C7.27776 16.0493 8.02831 15.3158 8.02831 14.1103V13.5757L7.74186 13C7.46538 12.4444 6.78299 11.4249 6.42846 11.0378C6.21434 10.8041 5.93741 10.7765 5.73031 10.9684ZM6.45707 12.5367C7.21424 13.6454 7.34913 14.1291 7.04771 14.6547C6.33516 15.8971 4.4277 14.9482 4.99192 13.6319C5.20712 13.13 5.96423 11.9873 6.06042 12.0194C6.09128 12.0296 6.26977 12.2625 6.45707 12.5367Z">
    </path>
</svg>