<svg xmlns:xlink="http://www.w3.org/1999/xlink" viewBox="0 0 51 39" fill="currentColor"
    xmlns="http://www.w3.org/2000/svg">
    <path
        d="M12.7621 38.5155C9.60948 38.5155 6.4595 38.5155 3.30684 38.5155C1.37483 38.5155 0.623053 37.7665 0.620358 35.8414C0.620358 34.4625 0.617659 33.0836 0.614964 31.702C0.60688 27.3462 0.598839 22.8417 0.658119 18.4156C0.671592 17.4747 0.96528 16.4419 1.44491 15.6524C3.17483 12.8107 4.98022 9.94743 6.72362 7.17878C7.79606 5.47811 8.90349 3.72065 9.98402 1.98484C10.5984 0.99796 11.3448 0.576172 12.4765 0.576172C16.6881 0.589691 21.0183 0.597802 25.3647 0.597802C29.5736 0.597802 33.9281 0.592395 38.3041 0.578876C39.4385 0.578876 40.1687 0.979034 40.7534 1.91724C41.8043 3.60169 42.8822 5.31047 43.9223 6.95977C45.733 9.83117 47.6057 12.8026 49.403 15.747C49.8476 16.477 50.1197 17.4423 50.1305 18.3318C50.1844 22.9472 50.1764 27.6436 50.1683 32.1832C50.1656 33.4405 50.1629 34.6977 50.1629 35.955C50.1629 37.7503 49.3842 38.5155 47.5626 38.5155C44.2375 38.5182 40.9124 38.5182 37.5873 38.5182H12.7621V38.5155ZM1.64701 21.2086C1.63623 21.3222 1.62549 21.4249 1.6174 21.5169C1.59854 21.7007 1.58234 21.8602 1.58234 22.0252V23.0472C1.57965 27.2651 1.57695 31.6262 1.58504 35.9171C1.58773 37.3312 2.06198 37.5827 3.40118 37.5827C10.8571 37.5827 18.313 37.5854 25.7689 37.5854C32.9769 37.5854 40.1822 37.5854 47.3875 37.5827C48.8883 37.5827 49.2117 37.2528 49.2117 35.7252C49.2171 31.2261 49.2144 26.727 49.2117 22.228C49.2117 22.0225 49.1956 21.8251 49.1767 21.5953C49.1659 21.4817 49.1578 21.3573 49.147 21.2194L49.1255 20.8788H34.5209C27.1835 20.8788 19.2884 20.8788 11.2612 20.868C11.14 20.868 11.0107 20.8761 10.8813 20.8842C10.7574 20.8923 10.6308 20.9004 10.5068 20.9004C10.2454 20.9004 10.0783 20.8625 10.0002 20.7814C9.91397 20.6922 9.89784 20.5138 9.90053 20.3813C9.90592 19.9865 10.0217 19.8838 10.4583 19.8838C10.5903 19.8838 10.7331 19.8946 10.8732 19.9054C11.0161 19.9162 11.1616 19.927 11.299 19.927C19.3612 19.9162 27.2832 19.9162 34.6421 19.9162H49.1605V17.5667H1.63892V19.9162L4.14219 19.9189C4.64069 19.9189 5.1392 19.9189 5.63769 19.9162H5.73736C6.44603 19.9162 6.55383 20.0217 6.56191 20.384C6.56461 20.5462 6.53495 20.6625 6.47297 20.7274C6.32747 20.8788 5.9152 20.8788 5.6673 20.8788C5.17149 20.8815 4.67575 20.8815 4.17725 20.8815H1.68207L1.64701 21.2086ZM12.6247 1.50627C11.7759 1.50627 11.1939 1.83883 10.7358 2.58237C9.46936 4.63453 8.15979 6.70832 6.89334 8.71181C6.36251 9.55539 5.82901 10.3963 5.29817 11.2398C4.63531 12.2943 3.97515 13.3488 3.29073 14.4384L2.0135 16.477H48.6593L48.3925 15.9471C48.3575 15.8741 48.3279 15.8146 48.301 15.7605C48.2498 15.6551 48.2093 15.5686 48.1554 15.4848C47.4037 14.287 46.6491 13.0892 45.8947 11.8941C43.9411 8.79022 41.9175 5.57814 39.9451 2.41203C39.452 1.61983 38.7648 1.51438 38.1585 1.51438C34.052 1.51979 29.9482 1.52249 25.847 1.52249C21.0318 1.52249 16.7097 1.51708 12.6301 1.50897H12.6247V1.50627Z">
    </path>
    <path
        d="M16.1808 35.1567C16.0245 35.1567 15.8683 35.035 15.7659 34.9323C15.3671 34.5348 14.971 34.1347 14.5722 33.7372C14.2057 33.3695 13.8393 33.0045 13.4728 32.6368C13.2384 32.4042 13.1683 32.2096 13.1764 32.1149C13.1791 32.0933 13.1845 32.0284 13.3084 31.9473C13.3192 31.9392 13.3812 31.904 13.5429 31.904C13.7504 31.904 14.0144 31.9635 14.2219 32.0555C14.3054 32.0933 14.4186 32.3015 14.5021 32.4556C14.5641 32.5665 14.6261 32.6827 14.6988 32.7882L14.9063 33.091L15.6312 32.5827L15.6338 32.3907V25.0338L15.0168 25.6259C14.8902 25.7476 14.777 25.8719 14.6773 25.9828C14.4941 26.1883 14.3324 26.364 14.1761 26.4289C14.0764 26.4695 13.947 26.4884 13.7557 26.4884C13.6695 26.4884 13.5806 26.4857 13.4916 26.4803C13.4755 26.4803 13.4593 26.4803 13.4459 26.4776C13.4432 26.4505 13.4405 26.4235 13.4405 26.3965C13.427 26.2397 13.4027 25.9449 13.4459 25.8746C14.1761 25.0067 14.9764 24.2037 15.8252 23.4899C15.8494 23.471 15.9734 23.4277 16.162 23.4277C16.3722 23.4277 16.5042 23.4764 16.5338 23.5007C17.388 24.2172 18.1883 25.0203 18.9132 25.8882C18.9509 25.9558 18.9212 26.2451 18.9078 26.4019C18.9051 26.4289 18.9024 26.456 18.8997 26.4857C18.8835 26.4857 18.8674 26.4857 18.8485 26.4857C18.7757 26.4884 18.703 26.4911 18.6302 26.4911C18.4874 26.4911 18.3069 26.483 18.1883 26.4235C18.0725 26.364 17.9539 26.1667 17.838 25.972C17.7707 25.8584 17.7033 25.7422 17.6224 25.634L17.38 25.3014L16.6901 25.9476V33.3614L17.3018 32.799C17.4446 32.6665 17.5712 32.5367 17.6817 32.4205C17.8919 32.2015 18.059 32.0284 18.2314 31.9554C18.3096 31.923 18.4147 31.9068 18.5656 31.9068C18.6572 31.9068 18.7542 31.9122 18.8485 31.9176C18.862 31.9176 18.8781 31.9203 18.8916 31.9203C18.897 31.9554 18.8997 31.9879 18.9051 32.023C18.9239 32.1879 18.959 32.461 18.9213 32.5367C18.3419 33.2289 17.6629 33.8859 17.0054 34.5213C16.8518 34.6673 16.7009 34.816 16.55 34.9647C16.4207 35.0918 16.2967 35.1567 16.1808 35.1567Z">
    </path>
    <path
        d="M25.4022 35.157C25.2432 35.157 25.0843 35.0326 24.9819 34.9271C24.7717 34.7162 24.5561 34.508 24.3405 34.2972C23.772 33.7429 23.1819 33.1697 22.6726 32.5586C22.6268 32.491 22.6483 32.1936 22.6591 32.0341C22.6618 32.0071 22.6618 31.9827 22.6645 31.9557C22.678 31.9557 22.6941 31.9557 22.7076 31.953C22.8046 31.9476 22.8989 31.9449 22.9932 31.9449C23.1738 31.9449 23.2977 31.9611 23.3974 32.0017C23.5429 32.0584 23.6992 32.2288 23.8798 32.4261C23.9849 32.5424 24.1061 32.6722 24.2463 32.8047L24.8606 33.3914V25.0367L24.2436 25.6262C24.1115 25.7532 23.9929 25.883 23.8879 25.9966C23.6992 26.2048 23.5376 26.3832 23.3786 26.4454C23.2951 26.4779 23.1873 26.4941 23.0391 26.4941C22.934 26.4941 22.8208 26.486 22.7023 26.4779C22.6861 26.4779 22.6726 26.4752 22.6564 26.4752C22.6564 26.4481 22.6537 26.4238 22.6537 26.3967C22.6456 26.2318 22.6295 25.9263 22.6807 25.8614C23.2007 25.2395 23.8017 24.6528 24.3837 24.0877C24.5858 23.8903 24.7879 23.693 24.99 23.4956C25.1328 23.3523 25.2675 23.2793 25.3888 23.2793C25.5235 23.2793 25.6744 23.3658 25.8441 23.5362C26.0651 23.7579 26.2887 23.9742 26.5124 24.1932C27.0513 24.7177 27.6064 25.2585 28.086 25.8344C28.148 25.9101 28.1453 26.1967 28.1426 26.3859C28.1426 26.4049 28.1426 26.4265 28.1426 26.4454C28.1237 26.4454 28.1076 26.4481 28.0887 26.4481C27.9782 26.4562 27.8651 26.4616 27.7573 26.4616C27.5902 26.4616 27.477 26.4427 27.3962 26.4021C27.3127 26.3616 27.2049 26.1128 27.1348 25.9452C27.0809 25.8208 27.0243 25.6911 26.9543 25.5694L26.736 25.1828L25.9115 25.8938V32.4667L26.7226 33.2454L26.9543 32.8425C27.0243 32.7236 27.0809 32.5965 27.1375 32.4748C27.2265 32.2774 27.3288 32.053 27.4312 31.9962C27.5336 31.9368 27.7088 31.9287 27.8489 31.9287C27.9189 31.9287 27.9917 31.9314 28.0645 31.9341C28.0833 31.9341 28.1022 31.9341 28.121 31.9368C28.1237 31.9665 28.1264 31.9935 28.1291 32.0233C28.148 32.1882 28.1776 32.4667 28.1399 32.537C27.5525 33.24 26.8654 33.9024 26.2025 34.5405C26.057 34.6811 25.9115 34.8217 25.766 34.9623C25.6366 35.0948 25.5127 35.157 25.4022 35.157Z">
    </path>
    <path
        d="M34.6153 35.1582C34.494 35.1582 34.3593 35.0851 34.2165 34.9446C34.0225 34.7526 33.8284 34.5633 33.6317 34.3741C33.0416 33.8009 32.4326 33.2114 31.9072 32.5788C31.8533 32.5139 31.8667 32.2056 31.8748 32.0407C31.8748 32.0218 31.8775 32.0029 31.8775 31.9839H32.0554C32.3114 31.9839 32.5161 31.9947 32.6886 32.0542C32.8045 32.0948 32.9446 32.2489 33.1063 32.4301C33.206 32.5409 33.3218 32.668 33.4566 32.7978L34.0709 33.3845V25.0596L33.4566 25.6436C33.3272 25.7653 33.2141 25.8923 33.1117 26.0005C32.9257 26.2033 32.7641 26.379 32.6078 26.4412C32.5216 26.4764 32.4084 26.4926 32.2548 26.4926C32.147 26.4926 32.0366 26.4845 31.9288 26.4791C31.9126 26.4791 31.8991 26.4764 31.8829 26.4764C31.8829 26.4493 31.8802 26.425 31.8775 26.3979C31.8694 26.2357 31.8506 25.9302 31.9045 25.8653C32.4192 25.2488 33.0174 24.6675 33.594 24.1079C33.8015 23.9051 34.009 23.7023 34.2138 23.4995C34.3593 23.3562 34.4913 23.2832 34.6126 23.2832C34.7446 23.2832 34.8982 23.3697 35.0652 23.5374C35.2835 23.7564 35.5071 23.9754 35.7281 24.1917C36.267 24.7162 36.8248 25.2597 37.3044 25.8356C37.3664 25.9113 37.3637 26.1979 37.361 26.3871C37.361 26.4061 37.361 26.4277 37.361 26.4466C37.3422 26.4466 37.326 26.4493 37.3071 26.4493C37.194 26.4574 37.0808 26.4655 36.9703 26.4655C36.8059 26.4655 36.6927 26.4466 36.6119 26.4061C36.5257 26.3655 36.4152 26.1168 36.3398 25.9518C36.2832 25.8274 36.2239 25.6977 36.1538 25.5787L35.9329 25.2029L35.1272 25.8923V33.4034L35.7416 32.8221C35.8871 32.6842 36.011 32.549 36.1242 32.4273C36.3182 32.2165 36.488 32.0326 36.6443 31.9731C36.7143 31.9461 36.8032 31.9326 36.9218 31.9326C37.0403 31.9326 37.1724 31.9461 37.3098 31.9596C37.3314 31.9623 37.3529 31.965 37.3745 31.965C37.3772 31.9893 37.3772 32.0164 37.3799 32.0407C37.3907 32.1948 37.4122 32.4517 37.3745 32.5193C36.7979 33.1952 36.1377 33.836 35.4991 34.4579C35.332 34.6228 35.1622 34.785 34.9952 34.95C34.8631 35.0906 34.7338 35.1582 34.6153 35.1582Z">
    </path>
    <path
        d="M6.96364 35.157C6.83969 35.157 6.70227 35.084 6.55945 34.9406C6.35736 34.7379 6.15257 34.5405 5.94778 34.3404C5.36845 33.778 4.77024 33.194 4.25288 32.5749C4.19899 32.51 4.2125 32.2044 4.22058 32.0395C4.22058 32.0206 4.22328 32.0017 4.22328 31.98C4.23675 31.98 4.25289 31.98 4.26637 31.98C4.33643 31.98 4.40379 31.9773 4.47385 31.9773C4.6517 31.9773 4.85378 31.9854 5.00738 32.0503C5.0963 32.0882 5.21489 32.2855 5.3092 32.4424C5.37387 32.5505 5.44124 32.6614 5.51938 32.7668L5.72148 33.0372L6.41394 32.6019V25.0557L5.79957 25.6424C5.66753 25.7695 5.54902 25.8992 5.44393 26.0128C5.25261 26.2237 5.0882 26.4049 4.92652 26.467C4.86185 26.4914 4.77834 26.5049 4.67055 26.5049C4.5466 26.5049 4.41187 26.4887 4.26637 26.4724C4.24481 26.4697 4.22056 26.467 4.199 26.4643C4.19631 26.44 4.1963 26.413 4.19361 26.3886C4.18283 26.2345 4.16398 25.975 4.2044 25.9074C4.78642 25.226 5.45199 24.5771 6.09599 23.9525C6.25767 23.7957 6.42205 23.6362 6.58373 23.4767C6.71846 23.3442 6.84508 23.2793 6.96364 23.2793C7.08759 23.2793 7.22502 23.3523 7.37052 23.4956C7.55915 23.6822 7.75049 23.8687 7.94181 24.0553C8.53461 24.6312 9.14896 25.226 9.6771 25.8614C9.73099 25.9263 9.71479 26.2318 9.7067 26.3994C9.7067 26.4238 9.70407 26.4508 9.70407 26.4779C9.6906 26.4779 9.67708 26.4806 9.66092 26.4806C9.54774 26.4887 9.43727 26.4941 9.32679 26.4941C9.1732 26.4941 9.06271 26.4779 8.97379 26.4454C8.83097 26.3913 8.67743 26.2264 8.48612 26.0182C8.37294 25.8965 8.24625 25.7587 8.09805 25.6181L7.48368 25.0367V33.3779L8.09535 32.8128C8.24086 32.6776 8.36755 32.5451 8.47803 32.4261C8.67473 32.2207 8.84178 32.0395 9.00076 31.9827C9.07082 31.9557 9.16244 31.9422 9.27831 31.9422C9.39956 31.9422 9.52889 31.9557 9.66901 31.9692C9.69056 31.9719 9.70942 31.9746 9.73098 31.9746C9.73367 31.999 9.73368 32.0233 9.73637 32.0503C9.74715 32.2071 9.76601 32.4667 9.72828 32.5343C9.13008 33.2373 8.44567 33.9024 7.7828 34.5459C7.63999 34.6865 7.49446 34.8244 7.35164 34.965C7.20883 35.0921 7.07951 35.157 6.96364 35.157Z">
    </path>
    <path
        d="M43.8387 35.1488C43.6985 35.1488 43.5341 35.0542 43.3509 34.8704C43.1273 34.6432 42.8955 34.4188 42.6665 34.1971C42.1572 33.7023 41.6291 33.194 41.1872 32.6451C41.1144 32.5559 41.1171 32.2558 41.1225 32.0395C41.1225 32.0206 41.1225 32.0017 41.1225 31.9827C41.1279 31.9827 41.1333 31.9827 41.1387 31.9827C41.427 31.9881 41.6991 31.9908 41.9174 32.0692C42.0332 32.1098 42.1734 32.2639 42.3351 32.4424C42.4348 32.5532 42.5506 32.6776 42.6827 32.8047L43.297 33.3887V25.08L42.6854 25.6478C42.5452 25.7776 42.424 25.9101 42.3135 26.0236C42.1195 26.2318 41.9524 26.4103 41.7934 26.4697C41.7288 26.4941 41.6507 26.5049 41.5483 26.5049C41.4216 26.5049 41.2815 26.4887 41.1306 26.4697C41.109 26.467 41.0875 26.4643 41.0659 26.4616C41.0659 26.4373 41.0632 26.413 41.0632 26.3886C41.0551 26.2399 41.0417 25.9668 41.0848 25.902C41.6749 25.2098 42.3512 24.5555 43.0033 23.9201C43.1569 23.7714 43.3132 23.62 43.4668 23.4686C43.5961 23.3415 43.7174 23.2793 43.8306 23.2793C43.9868 23.2793 44.1458 23.4037 44.2509 23.5064C44.9192 24.1688 45.582 24.8367 46.2449 25.5018L46.5413 25.7992C46.7731 26.0317 46.8431 26.2264 46.835 26.321C46.8323 26.3454 46.8269 26.4076 46.703 26.4887C46.6922 26.4968 46.6329 26.5292 46.4767 26.5292C46.2719 26.5292 46.0024 26.4697 45.7895 26.3751C45.7033 26.3373 45.5847 26.1291 45.4985 25.9777C45.4365 25.8695 45.3718 25.7559 45.2964 25.6505L45.0862 25.3558L44.3371 25.883V33.4157L44.9515 32.8371C45.0835 32.7127 45.1967 32.5911 45.2964 32.4829C45.4662 32.2991 45.6117 32.1422 45.7464 32.0882C46.0455 31.9692 46.3284 31.9016 46.5251 31.9016C46.6356 31.9016 46.6814 31.9232 46.6922 31.9287C46.8242 32.0071 46.8323 32.0774 46.835 32.1017C46.8512 32.2288 46.7461 32.4288 46.5709 32.6073C46.1964 32.9831 45.8219 33.3589 45.4473 33.7375C45.0593 34.1268 44.6712 34.5162 44.2832 34.9055C44.1162 35.0677 43.968 35.1488 43.8387 35.1488Z">
    </path>
    <path
        d="M14.4079 4.69063C14.3001 4.59059 14.1195 4.42566 14.0898 4.34454C14.1195 4.26614 14.2839 4.08498 14.4079 3.9525C14.4456 3.91194 14.4833 3.87139 14.521 3.82812C14.5614 3.8795 14.5991 3.92546 14.6369 3.97143C14.7366 4.0958 14.8686 4.25802 14.9117 4.34184C14.8524 4.44188 14.6584 4.58248 14.5156 4.68792C14.4967 4.70144 14.4752 4.71766 14.4563 4.73118C14.4402 4.72037 14.424 4.70415 14.4079 4.69063Z">
    </path>
    <path
        d="M36.1902 4.68792C36.0825 4.58518 35.9046 4.42025 35.875 4.33914C35.9046 4.26073 36.0744 4.08228 36.1983 3.94979C36.2361 3.90924 36.2738 3.86868 36.3142 3.82812C36.3519 3.8795 36.3924 3.92816 36.4274 3.97413C36.5244 4.0985 36.6537 4.26343 36.6969 4.34995C36.6349 4.44999 36.4409 4.58788 36.2954 4.69063C36.2765 4.70415 36.255 4.72037 36.2334 4.73389C36.2199 4.71767 36.2037 4.70415 36.1902 4.68792Z">
    </path>
    <path
        d="M12.8827 9.03634C12.7211 8.95793 12.5163 8.71459 12.457 8.53344C12.5433 8.41447 12.7857 8.23332 12.8962 8.20898C12.9717 8.24143 13.1468 8.40906 13.2761 8.53344C13.3165 8.57129 13.3597 8.61455 13.4028 8.65511C13.3516 8.69566 13.3031 8.73352 13.2546 8.77137C13.1307 8.866 12.9663 8.99308 12.8827 9.03634Z">
    </path>
    <path
        d="M37.8638 9.07466C37.7587 8.95028 37.6185 8.78265 37.5781 8.70154C37.6266 8.59609 37.8152 8.43927 37.958 8.3203C37.9715 8.30949 37.9877 8.29597 38.0011 8.28516C38.0119 8.29597 38.0227 8.30408 38.0335 8.3149C38.144 8.41494 38.3461 8.59879 38.3622 8.6772C38.3514 8.73939 38.1844 8.93947 38.0632 9.08817C38.0335 9.12332 38.0012 9.16118 37.9715 9.20173C37.9311 9.15577 37.8988 9.11521 37.8638 9.07466Z">
    </path>
    <path
        d="M20.2574 13.2737C20.1523 13.1575 20.0121 13.0034 19.9609 12.9222C20.0148 12.8168 20.1981 12.6654 20.3355 12.5518C20.3544 12.5356 20.3732 12.5221 20.3921 12.5059C20.4083 12.5194 20.4244 12.5329 20.4406 12.5437C20.5564 12.6383 20.7451 12.7925 20.7801 12.8709C20.7558 12.9493 20.6049 13.1412 20.4918 13.2845C20.4594 13.3278 20.4244 13.3711 20.3867 13.417C20.3409 13.363 20.2978 13.317 20.2574 13.2737Z">
    </path>
    <path
        d="M30.2986 13.2779C30.1881 13.1373 30.0372 12.9454 30.0156 12.8643C30.0507 12.7858 30.242 12.6344 30.3578 12.5398C30.374 12.5263 30.3902 12.5155 30.4063 12.502C30.4252 12.5182 30.444 12.5344 30.4629 12.5506C30.6003 12.6669 30.7809 12.8183 30.8321 12.9264C30.7809 13.0076 30.638 13.159 30.5303 13.2752C30.4898 13.3185 30.4467 13.3645 30.4036 13.4131C30.3659 13.3645 30.3309 13.3185 30.2986 13.2779Z">
    </path>
    <path
        d="M39.6954 13.2243C39.593 13.1675 39.4475 12.9701 39.3398 12.8214C39.329 12.8052 39.3182 12.7917 39.3047 12.7755C39.3155 12.7647 39.3263 12.7538 39.3344 12.7457C39.4394 12.6403 39.6361 12.4456 39.7143 12.4375C39.7762 12.451 39.9675 12.6268 40.1077 12.7565C40.1427 12.7863 40.1751 12.8187 40.2128 12.8512C40.167 12.8863 40.1212 12.9215 40.0781 12.9539C39.9514 13.054 39.7816 13.1864 39.6954 13.2243Z">
    </path>
    <path
        d="M21.2642 9.03709C21.1645 8.9749 21.0244 8.77753 20.922 8.62882C20.9085 8.60989 20.8924 8.58826 20.8789 8.56663C20.8924 8.55311 20.9085 8.53689 20.922 8.52337C21.0325 8.40981 21.213 8.22325 21.2912 8.20703C21.3451 8.22325 21.5337 8.40441 21.6711 8.53689C21.7088 8.57204 21.7465 8.60989 21.7869 8.64774C21.7357 8.6856 21.6899 8.72345 21.6441 8.7613C21.5175 8.86405 21.3504 8.99383 21.2642 9.03709Z">
    </path>
    <path
        d="M29.6141 9.03949C29.5386 9.00975 29.3689 8.80156 29.2799 8.69071C29.2665 8.67448 29.2557 8.66097 29.2422 8.64474C29.2584 8.62582 29.2719 8.60959 29.288 8.59067C29.4066 8.45278 29.5656 8.26892 29.676 8.21484C29.7569 8.26622 29.9078 8.40952 30.021 8.52037C30.0614 8.56093 30.1072 8.60148 30.1503 8.64474C30.1072 8.67989 30.0641 8.71504 30.0237 8.74749C29.8808 8.86104 29.6922 9.01786 29.6141 9.03949Z">
    </path>
    <path
        d="M11.2356 13.2192C11.1278 13.1705 10.9688 12.984 10.8503 12.8434C10.8368 12.8298 10.826 12.8136 10.8125 12.8001C10.8233 12.7893 10.8314 12.7785 10.8422 12.7677C10.9392 12.6568 11.1224 12.4459 11.1978 12.4297C11.2571 12.4405 11.4592 12.6027 11.6047 12.7217C11.6424 12.7514 11.6802 12.7839 11.7206 12.8136C11.6775 12.8515 11.637 12.8866 11.5966 12.9218C11.478 13.0326 11.3191 13.1759 11.2356 13.2192Z">
    </path>
    <path
        d="M22.0781 4.80828C22.0053 4.77854 21.8518 4.58657 21.7601 4.47031C21.7494 4.45679 21.7386 4.44327 21.7305 4.43246C21.7439 4.41623 21.7574 4.40001 21.7736 4.38379C21.8894 4.2513 22.0431 4.07286 22.1481 4.02148C22.229 4.07015 22.3799 4.21345 22.4958 4.3216C22.5362 4.35945 22.5793 4.40272 22.6251 4.44327C22.582 4.47572 22.5389 4.50816 22.4984 4.5379C22.3529 4.64335 22.1562 4.78935 22.0781 4.80828Z">
    </path>
    <path
        d="M28.6249 4.84885C28.5279 4.72718 28.3986 4.56766 28.3555 4.48655C28.4121 4.3811 28.5926 4.2405 28.7408 4.12424C28.7542 4.11343 28.7704 4.10261 28.7839 4.0918C28.7946 4.10261 28.8055 4.11072 28.8135 4.12154C28.9186 4.21887 29.1072 4.39732 29.1315 4.47844C29.1045 4.55414 28.9483 4.73529 28.8324 4.86778C28.8001 4.90563 28.765 4.94619 28.73 4.98674C28.6977 4.93537 28.66 4.89211 28.6249 4.84885Z">
    </path>
</svg>
