<svg xmlns:xlink="http://www.w3.org/1999/xlink" width="12" height="18" viewBox="0 0 12 18"
    xmlns="http://www.w3.org/2000/svg">
    <path fill-rule="evenodd" clip-rule="evenodd"
        d="M5.33134 0.0585212C4.21138 0.271167 3.66452 1.02808 3.70545 2.30909L3.72294 2.85721L3.48817 2.9339C2.69258 3.19379 1.94407 3.77655 1.53723 4.45275C1.37223 4.7271 1.33584 4.75871 1.13079 4.80665C-0.248122 5.12877 -0.410044 6.93812 0.889205 7.50525L1.20958 7.64505L5.83093 7.645H10.4523L10.7652 7.51546C12.1208 6.95439 11.9709 5.2257 10.5305 4.80858C10.3173 4.74681 10.2767 4.70978 10.0874 4.4044C9.74838 3.85744 9.11237 3.33236 8.45647 3.0579L7.93091 2.83796L7.91355 2.08618C7.87856 0.571472 6.85648 -0.231111 5.33134 0.0585212ZM6.23744 0.820161C6.91745 1.07841 7.18594 1.79719 6.96232 2.76097C6.83939 3.29095 6.87151 3.33767 7.48568 3.52302C8.03748 3.68947 8.60658 4.00244 8.91627 4.30968C9.33453 4.72453 9.68314 4.68336 5.75481 4.68336H2.2796L2.44205 4.50419C2.79261 4.11757 3.42173 3.73578 3.95197 3.58788C4.52053 3.4293 4.57208 3.40521 4.63738 3.26757C4.67184 3.1949 4.68699 3.07872 4.67104 3.00949C4.65514 2.9402 4.61455 2.77077 4.58089 2.63295C4.44194 2.06372 4.61408 1.2745 4.93011 1.03216C5.25022 0.786742 5.88034 0.68456 6.23744 0.820161ZM10.3217 5.5743C10.5904 5.71223 10.7392 5.93053 10.7392 6.18698C10.7392 6.44343 10.5904 6.66173 10.3217 6.79966C10.035 6.94675 1.53195 6.94675 1.24523 6.79966C0.589732 6.46332 0.72795 5.65799 1.46805 5.50151C1.90941 5.40825 10.1297 5.47585 10.3217 5.5743ZM0.879924 8.10073C0.810347 8.16145 0.775559 8.25261 0.775559 8.37409C0.775559 8.49558 0.810347 8.58674 0.879924 8.64751C0.949433 8.70822 1.0538 8.73861 1.19288 8.73861C1.33197 8.73861 1.43633 8.70822 1.50591 8.64751C1.57542 8.58674 1.61021 8.49558 1.61021 8.37409C1.61021 8.25261 1.57542 8.16145 1.50591 8.10073C1.43633 8.03996 1.33197 8.00957 1.19288 8.00957C1.0538 8.00957 0.949433 8.03996 0.879924 8.10073ZM10.043 8.45744C9.96425 8.53349 9.95664 8.85969 9.95624 12.2052C9.95571 16.7581 9.97594 16.6162 9.27857 16.9588L8.99165 17.0997H5.78346H2.57526L2.28835 16.9588C1.59726 16.6193 1.61121 16.7101 1.61068 12.5617C1.61014 8.81315 1.64593 9.10313 1.1838 9.10313C0.739101 9.10313 0.771285 8.79437 0.787377 12.9126L0.801666 16.553L0.94142 16.8135C1.13666 17.1774 1.50297 17.5032 1.91663 17.6811L2.2601 17.8288H5.78346H9.30681L9.65029 17.6811C10.0639 17.5032 10.4303 17.1774 10.6255 16.8135L10.7652 16.553L10.7794 12.5479C10.7954 8.01214 10.8306 8.37409 10.374 8.37409C10.2032 8.37409 10.1033 8.39923 10.043 8.45744ZM3.36584 8.82195C3.24432 8.93924 3.24999 9.29349 3.37493 9.39224C3.45632 9.45657 3.60936 9.46765 4.41824 9.46765H5.36613V11.4725V13.4774H4.40916C3.30749 13.4774 3.27951 13.4866 3.27951 13.8498C3.27951 14.1944 3.31763 14.2064 4.41824 14.2064H5.36613V15.2245C5.36613 16.5264 5.19907 16.3935 6.83585 16.3935C8.29862 16.3935 8.28741 16.3964 8.28741 16.021C8.28741 15.6764 8.24928 15.6645 7.14868 15.6645H6.20078V13.6596V11.6548H7.15776C8.25943 11.6548 8.28741 11.6455 8.28741 11.2823C8.28741 10.9377 8.24928 10.9257 7.14868 10.9257H6.20078V9.90758C6.20078 8.97908 6.19237 8.88278 6.10536 8.81402C5.95319 8.6937 3.49131 8.70082 3.36584 8.82195Z">
    </path>
</svg>