<svg xmlns:xlink="http://www.w3.org/1999/xlink" width="47" height="44" viewBox="0 0 47 44"
    xmlns="http://www.w3.org/2000/svg">
    <path
        d="M7.19994 43.2659C5.21404 43.2659 4.69936 42.7414 4.69936 40.7162C4.69936 39.7023 4.69937 38.6857 4.70206 37.6718C4.70476 34.6517 4.70742 31.5315 4.67509 28.46C4.6697 27.968 4.438 27.3623 4.09848 26.9486C3.59729 26.3403 3.05566 25.7482 2.53291 25.1777C2.04519 24.645 1.54133 24.0935 1.07247 23.5338C0.843434 23.258 0.649379 22.7064 0.757162 22.4739C0.875724 22.2197 1.42272 21.9953 1.76763 21.9926C5.44303 21.9764 9.04568 21.9683 12.4705 21.9683C16.2213 21.9683 19.9156 21.9791 23.4482 21.998C23.8739 22.0007 24.3886 22.3036 24.6796 22.601C25.5203 23.4608 26.3179 24.353 27.1613 25.2993C27.4847 25.6616 27.8108 26.0267 28.1476 26.3998L28.2284 26.489L28.3092 26.3998C28.646 26.0267 28.9748 25.6589 29.2982 25.2939C30.1308 24.3557 30.9176 23.4716 31.761 22.6253C32.1167 22.2684 32.7068 22.0062 33.1622 22.0007C35.1912 21.9764 37.301 21.9629 39.4351 21.9629C41.4911 21.9629 43.6387 21.9737 45.8213 21.998C46.2093 22.0007 46.794 22.2468 46.9692 22.5577C47.0689 22.7335 46.7994 23.3202 46.5192 23.6582C45.6839 24.664 44.765 25.6806 43.7115 26.7675C43.1968 27.2974 42.9812 27.8544 42.9866 28.6277C43.0135 31.9074 43.0081 35.2384 43.0028 38.464L43.0001 40.7919C42.9974 42.5953 42.4531 43.1496 40.6639 43.155L37.3899 43.1658C27.3365 43.201 17.283 43.2334 7.22685 43.2659H7.19994ZM5.87686 28.8548C5.87686 29.9201 5.87956 30.9854 5.87956 32.0507C5.88495 34.9572 5.88762 37.9638 5.85798 40.919C5.85259 41.3651 5.93078 41.6436 6.11132 41.8275C6.33767 42.0573 6.70414 42.0897 7.06251 42.0897H7.09212C12.0528 42.0627 17.0971 42.0573 21.9743 42.0519C23.4778 42.0492 27.579 42.0465 27.579 42.0465V27.9842H5.87416V28.8548H5.87686ZM37.2822 35.6602C37.8157 35.6602 38.1741 36.136 38.1956 36.8742C38.2145 37.515 38.2118 38.1666 38.2064 38.7966C38.2037 39.0696 38.2037 39.3427 38.2037 39.6158C38.2037 41.9573 38.2468 42.0032 40.4914 42.0249H40.618C41.1031 42.0249 41.3914 41.941 41.5827 41.7491C41.774 41.5544 41.8576 41.2543 41.8522 40.7811C41.8198 37.98 41.8226 35.1302 41.828 32.3751C41.8307 31.2125 41.8306 30.0499 41.8306 28.8899C41.8306 28.7088 41.8145 28.5276 41.7983 28.3384C41.7902 28.2464 41.7821 28.1491 41.7767 28.0491L41.7686 27.9463H41.6663C41.4669 27.9463 41.2756 27.9463 41.087 27.9436C40.9064 27.9436 40.7312 27.9409 40.5588 27.9409C40.327 27.9409 40.1007 27.9436 39.8744 27.9463H39.8097C39.489 27.9463 39.2842 27.8896 39.1657 27.7706C39.0741 27.6787 39.031 27.5435 39.031 27.3569C39.0336 26.9297 39.2681 26.7702 39.8959 26.7675H39.9902C40.1304 26.7675 40.2732 26.7675 40.4133 26.7702C40.5561 26.7702 40.6962 26.7729 40.839 26.7729C41.1139 26.7729 41.3375 26.7675 41.5396 26.7567C41.863 26.7377 42.1863 26.6972 42.3588 26.5133C43.0594 25.786 43.7195 25.0506 44.4201 24.2719C44.6518 24.0151 44.8863 23.7555 45.1207 23.4959L45.2204 23.3851L45.0857 23.3229C45.0183 23.2904 44.9698 23.2661 44.9321 23.2472C44.8647 23.212 44.8189 23.1877 44.7623 23.1877C42.2618 23.185 39.7585 23.1796 37.2579 23.1796C35.9322 23.1796 34.6064 23.1796 33.2807 23.1823C33.0759 23.1823 32.7822 23.2391 32.6286 23.4013C31.9254 24.1475 31.2221 24.9262 30.4757 25.7482C30.2332 26.0185 29.5541 26.7648 29.5541 26.7648H32.2945C33.6364 26.7648 34.9783 26.7648 36.3175 26.7675C36.9346 26.7675 37.1851 26.9378 37.1878 27.3569C37.1878 27.5354 37.1447 27.6651 37.0504 27.7598C36.9211 27.8896 36.7002 27.949 36.3499 27.949C35.5442 27.9436 34.7547 27.9436 33.9678 27.9436L30.958 27.9463H28.894V41.9978H32.4831V41.887C32.4831 41.3543 32.4804 40.8325 32.4804 40.3188C32.475 39.1264 32.4723 37.9989 32.4912 36.8607C32.5047 36.1442 32.8712 35.6629 33.402 35.6629C33.6445 35.6629 33.9086 35.7629 34.1672 35.9495C34.6011 36.2658 34.9756 36.4118 35.3421 36.4118C35.7113 36.4118 36.0885 36.2631 36.5304 35.9414C36.7837 35.7575 37.0451 35.6602 37.2822 35.6602ZM33.6822 41.941H36.9992V36.8904L36.8133 37.0661C36.3014 37.5528 35.819 37.7908 35.3394 37.7908C34.8571 37.7908 34.3747 37.5501 33.8655 37.058L33.6795 36.8796V41.941H33.6822ZM2.47364 23.3553C2.75657 23.669 3.02333 23.9637 3.28201 24.2449C3.84518 24.8613 4.37867 25.4453 4.86639 26.0402C5.29214 26.5593 5.77987 26.781 6.49663 26.781C10.3014 26.7648 14.0361 26.7648 17.5067 26.7648H25.5338C25.7251 26.7648 25.9164 26.754 26.1563 26.7405C26.2883 26.7323 26.4365 26.7242 26.6089 26.7188L26.8407 26.708L26.6844 26.535C26.4176 26.2375 26.1644 25.9509 25.9192 25.6725C25.3317 25.0073 24.7793 24.3774 24.1838 23.8015C23.8173 23.45 23.2515 23.2012 22.8069 23.1985C18.6519 23.1742 14.4888 23.1715 10.9643 23.1715L2.30924 23.1742L2.47364 23.3553Z">
    </path>
    <path
        d="M33.4592 14.9121C33.4376 14.9121 33.4188 14.9094 33.3972 14.9067C33.3487 14.8985 33.249 14.8174 33.1386 14.6552C32.985 14.4254 32.8879 14.1469 32.9203 14.0198C33.0038 13.6791 33.0846 13.3358 33.1655 12.9897C33.4888 11.6081 33.8202 10.1778 34.44 8.92321C36.0082 5.74899 38.6327 3.59138 42.2408 2.51258C42.6989 2.37469 43.0249 2.3125 43.2647 2.3125C43.7686 2.3125 44.0084 2.53962 44.0111 3.83472V4.47011C44.0111 4.56744 44.0084 4.66207 44.0057 4.75671C44.0003 4.9649 43.9977 5.1812 44.0138 5.3948C44.0704 6.07615 43.7929 6.43034 43.0572 6.6169C39.1771 7.59837 36.3801 10.0101 34.7445 13.7819C34.7122 13.8576 34.6852 13.9387 34.661 14.0171C34.6125 14.1685 34.564 14.3253 34.4777 14.3875L34.4319 14.42C34.1301 14.6417 33.7529 14.9121 33.4592 14.9121ZM42.6531 3.59949C39.169 4.70533 36.7627 6.77101 35.2995 9.9209L35.4828 10.0399C37.1966 8.0526 39.2391 6.63583 41.5537 5.8301L41.5725 5.8247C42.9333 5.35154 42.9683 5.29205 42.7959 3.69413L42.7824 3.56164L42.6531 3.59949Z">
    </path>
    <path
        d="M14.1718 15.0208C13.8296 15.0208 13.579 14.8045 13.3823 14.3368C13.1964 13.8987 13.0239 13.5148 12.8542 13.1687C11.2051 9.78091 8.57787 7.60437 5.04528 6.69591C4.09948 6.45257 3.77879 6.03889 3.86502 5.17098C3.90813 4.73838 3.89738 4.29766 3.88929 3.87047C3.8839 3.65957 3.87851 3.44868 3.8812 3.24049C3.8839 2.64836 4.14259 2.29688 4.56563 2.29688C4.66533 2.29688 4.7758 2.3158 4.89167 2.35365C6.30632 2.82411 7.66979 3.43246 8.81499 3.9651C8.89313 4.00295 8.93889 4.27603 8.96853 4.45719C8.982 4.5383 8.99552 4.61941 9.01169 4.69512C8.93354 4.71675 8.85268 4.74108 8.77723 4.76812C8.61016 4.8222 8.43501 4.87897 8.29758 4.87897C8.24908 4.87897 8.20598 4.87086 8.17095 4.85734C7.49191 4.59237 6.83173 4.26792 6.13383 3.92454C5.85898 3.78936 5.57608 3.65146 5.28507 3.51087L5.15034 3.44598L5.12876 3.59468C4.89702 5.29806 4.91862 5.34132 6.31171 5.81989C8.66408 6.63102 10.6958 8.06672 12.3583 10.0945L12.4257 10.1757L12.8083 9.87824L12.1912 9.02926C11.7035 8.35872 11.1996 7.66386 10.7092 6.9771L10.6499 6.89328C10.5044 6.6932 10.3401 6.46338 10.332 6.2633C10.3266 6.12 10.5718 5.81448 10.6742 5.80907C10.6877 5.80907 10.7038 5.80907 10.72 5.80907C10.9814 5.80907 11.2939 5.93074 11.4475 6.09026C13.1936 7.90449 14.3254 10.1243 14.8077 12.6902C14.8724 13.0308 14.9317 13.4013 14.9936 13.8582C15.0853 14.5233 14.9263 14.8478 14.452 14.9803C14.3496 15.0073 14.258 15.0208 14.1718 15.0208Z">
    </path>
    <path
        d="M25.8228 9.06657C25.4456 9.06657 25.0522 8.88272 24.6265 8.50419C24.3947 8.2987 24.1738 8.19866 23.9555 8.19866C23.7265 8.19866 23.4947 8.30681 23.2253 8.53663C22.8103 8.89353 22.4304 9.06657 22.0639 9.06657C21.7783 9.06657 21.4953 8.95842 21.2178 8.74482C20.6088 8.27437 20.4903 7.64169 20.854 6.81704C21.1316 6.18706 20.9915 5.76798 20.3879 5.41649C19.6253 4.97307 19.3505 4.37013 19.5768 3.62929C19.7816 2.95065 20.2585 2.62079 21.0346 2.62079C21.1046 2.62079 21.1774 2.62349 21.2528 2.6289C21.3148 2.63431 21.3714 2.63701 21.428 2.63701C22.0396 2.63701 22.3738 2.35041 22.5085 1.70692C22.6324 1.1202 22.9828 0.419922 23.9474 0.419922H23.9717C24.7154 0.430737 25.2139 0.874155 25.3756 1.66906C25.5157 2.35582 25.8767 2.63701 26.6231 2.63701H26.7471C27.2806 2.63701 27.6902 2.78031 27.965 3.0615C28.2533 3.35892 28.3935 3.81045 28.3827 4.40528C28.3342 4.46476 28.2776 4.53506 28.2183 4.61617C28.027 4.86492 27.7683 5.20559 27.445 5.44082C26.898 5.84368 26.7875 6.20599 27.03 6.77919C27.4045 7.65521 27.2752 8.30952 26.6366 8.77727C26.3671 8.96653 26.095 9.06657 25.8228 9.06657ZM23.9771 6.94141C24.5968 6.94141 25.2219 7.24423 25.8902 7.8688L26.06 7.73361C25.2031 6.27358 25.5345 5.20289 27.1701 4.15383L27.3938 4.01053L27.1351 3.95375C26.8764 3.89697 26.6204 3.86182 26.3725 3.82937C25.8471 3.75908 25.3917 3.69689 25.0764 3.45896C24.7369 3.2021 24.524 2.74787 24.3219 2.31256C24.2303 2.11518 24.1442 1.93133 24.0445 1.75829L23.9501 1.59606L23.8558 1.75829C23.7507 1.93674 23.6537 2.13681 23.5621 2.33149C23.3492 2.7749 23.1309 3.23184 22.7833 3.486C22.4627 3.72122 21.9911 3.78341 21.4468 3.85371C21.1666 3.88886 20.8783 3.92671 20.5711 3.9916L20.2235 4.0646L20.5495 4.20249C22.1851 4.88925 22.6001 5.97887 21.8941 7.73902L22.0693 7.86069C22.7403 7.23883 23.3627 6.94141 23.9771 6.94141Z">
    </path>
    <path
        d="M42.7353 16.4225C42.2934 16.4225 41.9027 16.1197 41.7384 15.6519C41.574 15.1842 41.3989 14.9165 40.8842 14.7489C40.5447 14.638 40.1566 14.2297 40.1027 13.9269C40.0462 13.6214 40.2644 13.1023 40.542 12.8779C40.9704 12.5345 41.062 12.2344 41.089 11.7666C41.1106 11.4016 41.3854 10.9257 41.6575 10.7878C41.7518 10.7392 41.8812 10.7148 42.0321 10.7148C42.2935 10.7148 42.5871 10.7905 42.7838 10.9095C43.029 11.0582 43.2311 11.1502 43.4629 11.1502C43.603 11.1502 43.7485 11.1177 43.9209 11.0474C44.0691 10.9879 44.2201 10.9555 44.371 10.9555C44.6485 10.9555 44.9072 11.0636 45.1012 11.2583C45.3114 11.4692 45.4272 11.7693 45.4326 12.1019C45.0123 12.6643 45.306 13.1726 45.5889 13.662C45.6428 13.7539 45.6967 13.8458 45.7479 13.9431C45.8826 14.1973 45.8719 14.4947 45.7183 14.7597C45.5296 15.0841 45.1767 15.2923 44.794 15.3031C44.3306 15.3167 43.9506 15.368 43.6111 15.9061C43.3982 16.2359 43.0829 16.4225 42.7353 16.4225ZM42.8431 14.5677L44.0907 13.908L43.7647 12.5994L42.4875 12.3587L41.8785 13.5808L42.0482 13.7133L42.2584 13.5322L42.8431 14.5677Z">
    </path>
    <path
        d="M28.6051 20.7107C28.4893 20.7107 28.3976 20.6755 28.3249 20.6025C28.2009 20.4754 28.1363 20.2321 28.1417 19.9022C28.1498 19.256 28.1498 18.626 28.1471 17.8257C28.1471 17.4634 28.1444 17.0714 28.1444 16.6361C28.0177 14.6948 28.174 11.7477 29.6452 8.67889C29.6748 8.6194 29.7018 8.55722 29.7287 8.49503C29.8231 8.28414 29.9201 8.06513 30.0683 7.93535C30.2057 7.81638 30.4752 7.71094 30.6342 7.71094C30.6854 7.71094 30.7042 7.72175 30.7096 7.72446C30.8524 7.81909 30.9305 8.08406 31.0006 8.31388C31.0167 8.36795 31.033 8.42203 31.0491 8.4734C31.0518 8.50314 31.0006 8.59237 30.971 8.64374C30.9548 8.67078 30.9413 8.69511 30.9278 8.71944C29.7422 10.9879 29.2087 13.5484 29.2977 16.5441C29.3273 17.5608 29.3542 18.7423 29.2707 19.9103C29.2491 20.1996 28.9285 20.6647 28.7237 20.7025C28.6833 20.7052 28.6429 20.7107 28.6051 20.7107Z">
    </path>
    <path
        d="M19.066 20.7126C18.8962 20.7126 18.7804 20.6396 18.6996 20.4828C18.6295 20.3449 18.5917 20.1421 18.5917 19.8961C18.5917 19.4391 18.5918 18.9822 18.5891 18.5252C18.5864 17.6276 18.5837 16.7002 18.5917 15.7863C18.6079 13.2205 18.0987 10.9574 17.0316 8.86468C16.7676 8.34826 16.6301 7.98866 17.0936 7.73991C17.2122 7.67502 17.3226 7.64258 17.4169 7.64258C17.7214 7.64258 17.8992 7.99136 18.069 8.32663L18.0906 8.36719C19.6992 11.5279 19.8798 14.6129 19.745 16.6461C19.745 17.0706 19.7504 17.4491 19.7531 17.8006C19.7639 18.6145 19.772 19.258 19.7154 19.9042C19.6885 20.2043 19.3786 20.6639 19.1819 20.6991C19.1415 20.7099 19.101 20.7126 19.066 20.7126Z">
    </path>
    <path
        d="M23.9355 20.4837C23.4612 20.4783 23.375 20.1863 23.375 19.6131C23.3777 17.1634 23.3804 13.9297 23.375 10.6474C23.375 10.377 23.3939 10.0796 23.5502 9.92275C23.6364 9.83623 23.7657 9.79297 23.9409 9.79297C24.4286 9.79838 24.5176 10.1039 24.5149 10.6663C24.5095 11.7072 24.5122 12.7482 24.5122 13.7891V15.0599V16.355C24.5122 17.4473 24.5122 18.5424 24.5149 19.6347C24.5149 19.9186 24.496 20.2052 24.3424 20.3566C24.2562 20.4431 24.1268 20.4864 23.949 20.4864L23.9355 20.4837Z">
    </path>
    <path
        d="M37.8667 20.435C37.7805 20.435 37.6107 20.216 37.5191 20.097C37.4814 20.0484 37.4464 20.0024 37.4141 19.9672C37.6458 18.3666 38.2009 17.2229 39.1628 16.3712C39.206 16.3334 39.2868 16.3145 39.408 16.3145C39.4996 16.3145 39.6048 16.3253 39.7045 16.3361C39.7826 16.3442 39.8634 16.3523 39.9415 16.355C39.9442 16.428 39.9523 16.501 39.9577 16.574C39.9793 16.7984 39.9982 17.012 39.9281 17.1743C39.5185 18.1287 39.0686 19.0399 38.5916 19.8834C38.4542 20.1268 38.1308 20.408 37.8667 20.435Z">
    </path>
    <path
        d="M16.787 37.4593C14.3161 37.4593 11.8802 37.4539 9.55208 37.4458C8.61975 37.4431 8.08891 36.9132 8.05927 35.9533C8.03233 35.107 8.03233 34.2175 8.05927 33.309C8.08891 32.3222 8.5847 31.8166 9.5305 31.8111C10.9883 31.8003 12.1011 31.7949 13.1466 31.7949C14.731 31.7949 16.1403 31.8057 17.4525 31.8328C17.7193 31.8382 18.1909 32.168 18.2259 32.3735C18.2529 32.5358 18.2313 32.6574 18.1585 32.7439C18.0454 32.8791 17.8029 32.9467 17.4202 32.9467H9.24216V36.1967H24.2725V32.9467C24.2725 32.9467 22.6989 32.9494 22.4079 32.9494C21.9929 32.9494 21.5806 32.9467 21.1684 32.944C21.1684 32.944 20.8827 32.9467 20.8342 32.9467C20.3654 32.9467 20.1256 32.8602 20.1148 32.3898C20.1094 32.1897 20.1498 32.0491 20.2388 31.9571C20.3789 31.8111 20.651 31.8003 20.8935 31.8003H21.1145C21.3732 31.8003 21.6211 31.7976 21.8663 31.7976C22.1708 31.7949 22.4752 31.7949 22.7797 31.7949C23.1677 31.7949 23.5585 31.7976 23.9465 31.8057C24.9354 31.8247 25.442 32.3005 25.4905 33.2577C25.539 34.1661 25.5363 35.0854 25.4905 35.9885C25.442 36.9267 24.8923 37.4458 23.9465 37.4485C21.5564 37.4566 19.1717 37.4593 16.787 37.4593Z">
    </path>
</svg>