<svg xmlns:xlink="http://www.w3.org/1999/xlink" viewBox="0 0 42 48" fill="currentColor"
    xmlns="http://www.w3.org/2000/svg">
    <path
        d="M35.9532 47.0921C35.6757 47.0921 35.4844 47.0326 35.3658 46.911C35.2365 46.7812 35.1772 46.5595 35.1826 46.2404C35.1961 45.1643 35.1934 44.0693 35.1907 43.0121C35.188 42.5633 35.188 42.1145 35.188 41.6656V28.4145L33.9512 28.4118C33.7356 28.4118 33.5227 28.4118 33.3098 28.4145H33.2775C32.965 28.4145 32.7386 28.3496 32.6443 28.2333C32.5823 28.1603 32.5661 28.0549 32.5931 27.9116C32.6254 27.7439 33.0458 27.4222 33.2991 27.4141C34.2907 27.3816 35.2688 27.3789 36.2658 27.3789H36.9044C37.5835 27.3789 38.3056 27.3789 39.0385 27.3654C39.9924 27.3492 40.7091 26.7327 40.8681 25.7999C41.0244 24.8698 40.6607 24.1263 39.8388 23.7099C39.5613 23.5693 39.1894 23.4909 38.7933 23.4909C31.8224 23.4855 24.8489 23.4828 17.8807 23.4828C13.0925 23.4828 8.30689 23.4828 3.51862 23.4855C2.85576 23.4855 2.27641 23.7045 1.88839 24.102C1.53809 24.4589 1.36027 24.932 1.36835 25.4701C1.38722 26.6462 2.236 27.3789 3.58059 27.3789C9.31196 27.3843 15.046 27.3843 20.7774 27.3843H29.3758C29.4674 27.3843 29.559 27.3789 29.6533 27.3735C29.7423 27.3681 29.8285 27.3654 29.9174 27.3654C30.0818 27.3654 30.203 27.3843 30.2973 27.4222C30.5183 27.5141 30.7581 27.7926 30.7554 27.9116C30.7527 28.0197 30.5237 28.2658 30.2596 28.3983C30.203 28.4253 30.1275 28.4388 30.0225 28.4388C29.947 28.4388 29.8689 28.4334 29.7908 28.4253C29.7045 28.4172 29.6156 28.4118 29.5321 28.4118H19.8423V33.7652C19.8423 37.8101 19.8423 41.8576 19.8423 45.9025C19.8423 47.0516 19.81 47.084 18.6837 47.084C16.2236 47.084 13.7607 47.084 11.3005 47.084C8.84038 47.084 6.37756 47.084 3.91741 47.084C2.84228 47.084 2.80182 47.0407 2.79912 45.9538V44.4154C2.79643 39.554 2.79374 34.525 2.80722 29.5798C2.80991 28.9471 2.7426 28.3928 1.91536 28.0143C0.915672 27.5574 0.365976 26.6435 0.363281 25.4484C0.363281 24.3102 0.877932 23.4314 1.89918 22.8366C2.04738 22.7501 2.20906 22.6771 2.38152 22.6014C2.46774 22.5635 2.55666 22.523 2.64828 22.4797L2.79912 22.4094L2.74255 22.2526C2.16052 20.6493 2.50544 19.4515 3.7665 18.689L3.90662 18.6052L3.83926 18.4565C3.65333 18.0455 3.45126 17.64 3.25726 17.2479C2.81265 16.3503 2.39226 15.504 2.13897 14.5982C1.66741 12.9165 1.95035 11.178 2.95543 9.57192C3.0713 9.38806 3.4539 9.17717 3.67216 9.17717C3.69911 9.17717 3.71533 9.17987 3.72611 9.18257C3.86084 9.22583 3.94435 9.28802 3.97938 9.36913C4.03597 9.50432 3.98205 9.72873 3.81768 10.0532C2.27369 13.0787 2.81264 15.8906 5.33207 17.9752C5.74973 18.3186 6.37483 18.37 6.97842 18.4186C7.23979 18.4403 7.50928 18.4619 7.7491 18.5052L7.89192 18.5322L8.1371 17.9617L8.04553 17.8725C7.86229 17.6967 7.68175 17.5183 7.49852 17.3425C7.1078 16.9667 6.70089 16.5774 6.31826 16.1826C4.49403 14.3116 4.50213 11.9864 6.33984 10.1154C7.02426 9.4178 7.70599 8.74186 8.42813 8.02536C8.75148 7.70361 9.0802 7.37916 9.41163 7.0466L9.54906 6.9087L7.9431 5.49734L7.82185 5.62712C7.64671 5.81368 7.47157 6.00835 7.29642 6.20302C6.84104 6.70592 6.36946 7.22775 5.8521 7.68739C5.74162 7.78743 5.48833 7.79284 5.24582 7.80095C5.18924 7.80365 5.13268 7.80365 5.0734 7.80635C5.07609 7.75228 5.0761 7.70091 5.07879 7.64954C5.08688 7.39268 5.09224 7.15204 5.19194 6.99793C5.39943 6.67348 5.70931 6.39228 6.01111 6.12191C6.10811 6.03268 6.20777 5.94346 6.30208 5.85423C6.93261 5.254 7.64669 4.57265 7.60628 3.28565C7.57125 2.17981 8.26917 1.27675 9.52485 0.811706C9.8967 0.673814 10.2658 0.603516 10.6188 0.603516C11.3382 0.603516 12.0173 0.887411 12.637 1.4498C12.9038 1.69043 13.1625 1.9581 13.4131 2.21226C13.7284 2.53671 14.0544 2.86927 14.4074 3.16939C14.5825 3.3181 14.8897 3.41814 15.17 3.41814C15.2939 3.41814 15.4017 3.39921 15.4906 3.36136C16.2262 3.04502 16.8918 2.8909 17.525 2.8909C18.5813 2.8909 19.546 3.33162 20.4756 4.23738C20.7127 4.4672 20.9445 4.70243 21.1789 4.93766C21.3945 5.15666 21.6127 5.37567 21.8337 5.59197C22.0223 5.77853 22.1193 5.95698 22.1193 6.12461C22.1193 6.29495 22.0169 6.4761 21.8202 6.66536L19.8558 8.54178L19.9151 8.66345C20.7774 10.3912 20.6184 11.716 19.4139 12.83C18.8723 13.3302 18.301 13.5654 17.6166 13.5654C17.0022 13.5654 16.2882 13.3734 15.4394 12.976L15.3128 12.9165C15.3128 12.9165 14.0247 14.4225 13.6421 14.8686C13.4211 15.1282 13.2083 15.2606 13.0116 15.2606C12.8203 15.2606 12.6128 15.1363 12.3918 14.8929C12.1386 14.6117 11.8691 14.3468 11.6051 14.0872C11.4191 13.9034 11.2251 13.7141 11.0419 13.5221C9.69996 12.1162 9.43589 10.3668 10.2982 8.59586L10.317 8.558C10.3332 8.52556 10.3494 8.49041 10.3655 8.46067L10.0853 8.23625C9.77001 8.51745 9.45204 8.79323 9.13138 9.07172C8.23139 9.8504 7.30182 10.6561 6.49614 11.5538C5.62579 12.5244 5.7551 14.1061 6.8006 15.239C7.62783 16.134 8.53592 17.0451 9.57872 18.0293C9.8401 18.2753 10.2739 18.37 10.5919 18.3781C11.2063 18.3916 11.8583 18.397 12.7098 18.397C13.0789 18.397 13.4481 18.397 13.8173 18.3943C14.1864 18.3943 14.5556 18.3916 14.922 18.3916H15.0622C16.3124 18.3916 17.199 18.7107 17.7002 19.3406C18.2013 19.9679 18.3145 20.9088 18.0424 22.1336L18.002 22.3121L18.1798 22.3526C18.2283 22.3634 18.2768 22.377 18.3253 22.3905C18.4466 22.4229 18.5705 22.4554 18.7025 22.4662C18.7429 22.4689 18.7834 22.4716 18.8238 22.4716C18.9155 22.4716 19.0097 22.4635 19.1175 22.4554C19.1849 22.45 19.2603 22.4446 19.3412 22.4391L19.5217 22.431L19.5136 22.2499C19.4516 20.9575 19.8693 20.1977 20.8582 19.784C21.1519 19.6624 21.1923 19.0892 21.1977 18.9161C21.222 18.2537 21.2166 17.5805 21.2139 16.9289L21.2112 16.4395C21.2112 16.1745 21.2705 15.9825 21.389 15.8609C21.5103 15.7392 21.707 15.6797 21.9765 15.6797C22.1597 15.6797 22.3349 15.6797 22.51 15.6797C22.8926 15.6797 23.2753 15.6797 23.6606 15.677C24.0432 15.677 24.4259 15.6743 24.8085 15.6743C25.6492 15.6743 26.2932 15.6797 26.9022 15.696C27.9827 15.723 28.9042 16.2178 29.7207 17.2074L29.8689 17.3885L30.009 17.1992C31.0113 15.842 32.3964 15.6581 33.617 15.6581C33.7814 15.6581 33.9458 15.6608 34.1102 15.6689C34.5521 15.6851 35.0182 15.6932 35.5814 15.6932C36.0125 15.6932 36.4464 15.6878 36.8775 15.6824C37.1443 15.6797 37.4083 15.677 37.6751 15.6743C37.9931 15.6743 38.2005 15.7365 38.3245 15.8663C38.443 15.9907 38.4942 16.188 38.4808 16.4719C38.4673 16.7856 38.47 17.1019 38.4727 17.4074C38.4754 17.6427 38.4781 17.886 38.4727 18.1239L38.47 18.205C38.4511 18.9756 38.4322 19.7056 39.4508 20.2058C40.3346 20.6384 40.216 21.6956 40.0652 22.2877L40.0409 22.3851L40.1083 22.4581C40.2888 22.6527 40.4694 22.8312 40.6445 23.0042C40.9948 23.3476 41.3262 23.6721 41.5472 24.0452C41.9567 24.7319 42.0564 25.5647 41.822 26.3326C41.5876 27.095 41.0433 27.7223 40.3238 28.0576C39.6124 28.3901 39.4778 28.8092 39.4804 29.4689C39.4912 34.1032 39.4912 38.8132 39.4885 43.369V45.843C39.4885 47.1029 39.4886 47.1029 38.2248 47.1056H38.1897C37.9715 47.1056 37.7532 47.1029 37.535 47.1029C37.314 47.1002 37.0958 47.1002 36.8775 47.1002C36.5515 47.1002 36.2847 47.1056 36.0341 47.1137C36.0017 47.0894 35.9775 47.0921 35.9532 47.0921ZM36.2766 46.0268H38.408V28.4631H36.2766V46.0268ZM3.86623 46.0214H18.7322V28.4767H3.86623V46.0214ZM7.34491 19.4136C6.63085 19.4136 5.91949 19.4163 5.20543 19.419C4.1761 19.4271 3.49169 20.0003 3.46474 20.8818C3.45127 21.2955 3.58598 21.6632 3.85275 21.9389C4.17071 22.2688 4.64227 22.4446 5.21622 22.4473C6.92458 22.4554 8.63019 22.4581 10.3385 22.4581C12.0577 22.4581 13.7742 22.4554 15.4906 22.4473C16.0538 22.4446 16.5361 22.2634 16.8514 21.9335C17.1182 21.6524 17.2529 21.2846 17.234 20.871C17.199 19.9814 16.528 19.4271 15.4825 19.419C14.7846 19.4136 14.0894 19.4136 13.3915 19.4136C12.8957 19.4136 10.3898 19.4163 10.3898 19.4163C9.88321 19.4163 7.85418 19.4136 7.34491 19.4136ZM37.9445 22.4581C38.2975 22.4581 39.1167 22.4581 39.1274 21.6172C39.1301 21.3549 39.0574 21.1467 38.9146 21.0007C38.6694 20.752 38.2787 20.7304 37.9338 20.7304H37.9068C36.7077 20.7358 35.5087 20.7358 34.3123 20.7358C33.2695 20.7358 32.2266 20.7358 31.1865 20.7385C31.0356 20.7385 30.8875 20.7655 30.7473 20.7926C30.6854 20.8034 30.626 20.8169 30.5641 20.825L30.4078 20.8493V22.4581H34.6518H37.9445ZM21.7717 20.7331C21.4052 20.7331 21.0306 20.7547 20.7962 20.9953C20.6507 21.1467 20.5807 21.3658 20.5914 21.6415C20.6211 22.45 21.3055 22.4527 21.7582 22.4527H21.7798C22.6986 22.4554 23.6148 22.4554 24.5336 22.4554C25.8917 22.4554 27.2497 22.4527 28.6105 22.45C28.7452 22.45 28.8719 22.4202 28.9985 22.3932C29.0524 22.3797 29.109 22.3689 29.1656 22.358L29.3165 22.331V20.7304H25.2369C24.0809 20.7304 22.9358 20.7304 21.7879 20.7277H21.7717V20.7331ZM34.4604 16.6909C33.7787 16.6909 33.2183 16.7018 32.6982 16.7234C32.0138 16.7504 31.4102 17.0478 30.9952 17.5561C30.5668 18.0807 30.3862 18.7918 30.5021 19.5083L30.5264 19.6624H37.4271V16.7072H37.2439C36.7616 16.7072 36.2873 16.7018 35.8212 16.699C35.3631 16.6936 34.9104 16.6909 34.4604 16.6909ZM22.2782 19.657H29.2464L29.2599 19.4893C29.3192 18.7215 29.101 17.986 28.659 17.4723C28.2926 17.0478 27.8075 16.7991 27.2551 16.7612C26.6893 16.7207 26.083 16.7018 25.342 16.7018C24.8624 16.7018 24.3827 16.7099 23.9031 16.718C23.4234 16.7261 22.9438 16.7342 22.4615 16.7342H22.2782V19.657ZM17.4388 3.87508C16.625 3.87508 15.8355 4.24549 15.0945 4.97551C14.7873 5.27833 14.4801 5.59467 14.1864 5.9002C13.6744 6.43284 13.1436 6.98171 12.5832 7.47379C11.3625 8.54989 10.7724 9.5638 10.7805 10.5696C10.7886 11.597 11.4137 12.6299 12.699 13.733C12.8068 13.8249 12.8634 13.8249 12.8877 13.8249H13.0251L13.0655 13.6898L20.8097 5.92724L20.4513 5.58926C20.26 5.41082 20.0418 5.20533 19.8289 4.99714C19.0636 4.2536 18.2606 3.87508 17.4388 3.87508ZM16.5334 12.3757L16.8271 12.4649C17.0427 12.5298 17.261 12.565 17.4712 12.565C18.002 12.565 18.4843 12.3487 18.8669 11.9404C19.4624 11.305 19.6376 10.5561 19.3412 9.93692L19.2307 9.7071L16.5334 12.3757ZM10.5541 1.62554C10.0152 1.62554 9.50598 1.84184 9.12066 2.23118C8.37696 2.98824 8.33381 4.15897 9.02093 4.95388C9.49248 5.50004 9.99095 6.01646 10.4733 6.51395C10.6754 6.72214 10.8721 6.92763 11.0607 7.12771L11.1874 7.26019L14.1837 4.38068L14.049 4.2482C13.8173 4.01837 13.5909 3.79396 13.3699 3.57225C12.8741 3.07476 12.4053 2.6043 11.9068 2.15548C11.5323 1.8121 11.0499 1.62554 10.5541 1.62554Z">
    </path>
    <path
        d="M8.69894 44.3429C8.13038 44.3429 7.5645 44.3429 6.99595 44.3375C5.95315 44.3294 5.55706 43.9481 5.53551 42.9261C5.50856 41.6689 5.50857 40.5062 5.53821 39.3761C5.56246 38.3919 5.95856 38.008 6.95016 37.9998C8.41601 37.9917 9.88454 37.9863 11.3154 37.9863C12.7812 37.9863 14.2497 37.9917 15.6806 37.9998C16.6883 38.008 17.0871 38.4162 17.1006 39.4626C17.1141 40.5279 17.1141 41.631 17.1006 42.8342C17.0871 43.9508 16.6937 44.3321 15.5458 44.3348C14.98 44.3375 14.4141 44.3375 13.8482 44.3375L11.2723 44.3348C10.8411 44.3402 9.12738 44.3429 8.69894 44.3429ZM6.60794 43.2614H16.0201V39.0976H6.60794V43.2614Z">
    </path>
    <path
        d="M11.2914 36.471L8.68848 36.4737C8.1307 36.4737 7.57293 36.4737 7.01785 36.4683C5.9481 36.4629 5.56009 36.0979 5.53583 35.0813C5.50889 33.9241 5.50889 32.729 5.53583 31.5313C5.56009 30.52 5.93731 30.1415 6.92891 30.1334C8.34356 30.1226 9.81479 30.1172 11.2968 30.1172C12.7034 30.1172 14.172 30.1226 15.6567 30.1334C16.6779 30.1415 17.0821 30.5444 17.0982 31.5799C17.1144 32.7588 17.1144 33.9241 17.0982 35.0435C17.0821 36.0628 16.6779 36.4656 15.6567 36.471C15.08 36.4765 14.5007 36.4765 13.924 36.4765C13.4848 36.4737 11.7306 36.471 11.2914 36.471ZM6.59748 35.3868H16.015V31.2041H6.59748V35.3868Z">
    </path>
    <path
        d="M11.2988 34.8975C10.4338 34.8894 9.73867 34.2053 9.71173 33.3455C9.69826 32.9291 9.85721 32.5263 10.1563 32.2126C10.4581 31.8963 10.8731 31.7124 11.2961 31.707H11.3177C12.188 31.707 12.9236 32.437 12.9263 33.3023C12.9263 33.7213 12.762 34.1188 12.4602 34.4216C12.153 34.7298 11.7488 34.9002 11.3177 34.9002L11.2988 34.8975Z">
    </path>
    <path
        d="M11.3127 42.76C10.4504 42.76 9.74712 42.0841 9.7121 41.2243C9.69593 40.8079 9.84948 40.405 10.1459 40.0887C10.445 39.7696 10.8599 39.5804 11.283 39.5723H11.3154C12.1938 39.5723 12.9159 40.2807 12.9267 41.1513C12.9321 41.5703 12.7704 41.9705 12.4686 42.2733C12.1588 42.587 11.7492 42.76 11.3127 42.76Z">
    </path>
    <path
        d="M11.2988 34.8975C10.4338 34.8894 9.73867 34.2053 9.71173 33.3455C9.69826 32.9291 9.85721 32.5263 10.1563 32.2126C10.4581 31.8963 10.8731 31.7124 11.2961 31.707H11.3177C12.188 31.707 12.9236 32.437 12.9263 33.3023C12.9263 33.7213 12.762 34.1188 12.4602 34.4216C12.153 34.7298 11.7488 34.9002 11.3177 34.9002L11.2988 34.8975Z">
    </path>
</svg>
