<svg xmlns:xlink="http://www.w3.org/1999/xlink" viewBox="0 0 46 47" fill="currentColor"
    xmlns="http://www.w3.org/2000/svg">
    <path
        d="M37.1535 46.0965C35.3562 46.0533 33.8553 44.6095 33.7367 42.8088C33.7152 42.5005 33.7206 42.1842 33.726 41.8462C33.7287 41.6813 33.7314 41.511 33.7314 41.3379V40.9729H12.2232V41.3379C12.2232 41.5001 12.2259 41.6624 12.2286 41.8219C12.234 42.1544 12.2394 42.4681 12.2205 42.779C12.1128 44.6122 10.6577 46.0371 8.83346 46.0965C8.79304 46.0965 8.75532 46.0993 8.7149 46.0993C6.88259 46.0993 5.37901 44.7501 5.29279 43.0251C5.21734 41.538 5.03141 40.1023 3.58981 38.891C2.69521 38.1394 2.58204 36.7983 2.58473 35.7114L2.58743 34.2513C2.59282 31.2529 2.59821 28.1516 2.56318 25.1018C2.55779 24.607 2.3045 24.0149 1.93265 23.6228C0.194645 21.7924 -0.363133 19.8213 0.22698 17.5988C0.838649 15.2925 2.33144 13.8325 4.66495 13.2593C5.45985 13.0646 5.72931 12.6428 5.90445 12.0264C6.89606 8.5385 8.90082 5.55895 11.7005 3.40675C14.4948 1.25725 17.8872 0.0865206 21.5114 0.0162227C22.0719 0.00540759 22.5273 0 22.9396 0C25.2219 0 27.8922 0.1433 30.3982 1.20858C35.2484 3.26886 38.4846 6.87298 40.0124 11.9182C40.2172 12.5969 40.5028 13.0322 41.3597 13.2512C43.6178 13.8325 45.1267 15.3223 45.7195 17.5664C46.3043 19.7808 45.7411 21.8113 44.0462 23.6012C43.6609 24.0068 43.3995 24.634 43.3941 25.1613C43.3537 28.4193 43.3618 31.7287 43.3699 34.93L43.3726 35.6789C43.3779 37.5229 42.7124 38.9316 41.3382 39.986C41.004 40.2429 40.837 40.7215 40.7965 41.054C40.7534 41.4001 40.748 41.7462 40.7426 42.0815C40.7373 42.4194 40.7319 42.7412 40.6914 43.0548C40.4732 44.7906 38.9885 46.0993 37.2397 46.0993C37.2101 46.0965 37.1804 46.0965 37.1535 46.0965ZM7.09546 41.3406C7.10085 41.5218 7.09007 41.7137 7.07929 41.8976C7.03887 42.6411 6.99037 43.5631 8.01161 44.0173C8.18946 44.0958 8.41041 44.1363 8.65292 44.1363C9.04903 44.1363 9.43705 44.0282 9.69303 43.847C10.558 43.2387 10.4421 42.3275 10.3505 41.5975C10.337 41.4947 10.3236 41.392 10.3128 41.2892L10.2778 40.9621H7.08737L7.09546 41.3406ZM35.5933 41.3406C35.5933 41.5001 35.5825 41.6597 35.5718 41.8327C35.5259 42.5357 35.4667 43.4117 36.3586 43.92C36.5849 44.0471 36.8921 44.1201 37.2262 44.1201C37.5738 44.1201 37.8918 44.0444 38.1262 43.9092C38.9993 43.4009 38.9292 42.5627 38.8699 41.8895C38.8537 41.7002 38.8376 41.5218 38.8403 41.3487L38.843 40.9783H35.596L35.5933 41.3406ZM6.09308 14.8869C4.36046 14.8869 2.78413 16.0117 2.16708 17.6881C1.47457 19.5699 2.04312 21.4382 3.64909 22.5602C4.25537 22.982 4.47633 23.4417 4.47094 24.2528C4.44399 27.8975 4.45208 31.6016 4.46016 35.1841V35.4978C4.46555 37.9258 5.55685 39.01 7.99545 39.0127C10.1026 39.0154 12.2071 39.0154 14.3142 39.0154H37.7813C40.4489 39.0154 41.489 37.9744 41.4917 35.3058L41.4944 33.5835C41.4971 30.4931 41.4998 27.2972 41.4864 24.1528C41.4837 23.4282 41.675 23.0118 42.1654 22.6603C43.9573 21.3814 44.5609 19.3157 43.6986 17.3933C43.025 15.8846 41.5052 14.9113 39.8319 14.9113C39.5301 14.9113 39.2256 14.9437 38.9238 15.0059C36.9406 15.4169 35.5933 17.1284 35.5691 19.2643C35.5583 20.2134 35.561 21.1786 35.561 22.1114C35.5637 23.1253 35.5664 24.1744 35.5502 25.2045C35.5421 25.8156 35.7658 26.1914 36.3181 26.5077C37.2208 27.0215 37.846 27.8326 38.0723 28.7924C38.2933 29.7171 38.1154 30.677 37.5738 31.4908C36.8625 32.5615 35.8197 33.1076 34.4724 33.1076C31.3062 33.1103 28.1374 33.1131 24.9686 33.1131C20.4552 33.1131 15.9418 33.1103 11.4283 33.1022C11.0376 33.1022 10.6442 33.04 10.2831 32.9265C8.96819 32.5074 8.15982 31.6341 7.87958 30.3282C7.72868 29.6279 7.53198 27.9029 8.94124 27.0431C10.3667 26.1725 10.4421 25.0531 10.3882 23.785C10.3559 23.0226 10.364 22.2412 10.3694 21.4868C10.3748 20.9245 10.3775 20.3459 10.3667 19.7727C10.3559 19.1589 10.2912 18.6317 10.1727 18.1558C9.70111 16.2794 8.1194 14.9681 6.23589 14.8951C6.19547 14.8869 6.14427 14.8869 6.09308 14.8869ZM18.3157 27.8894C16.2274 27.8894 14.1418 27.8894 12.0535 27.8921H12.0131C11.6789 27.8921 11.3313 27.8921 10.9864 27.9597C10.17 28.1219 9.69303 28.6924 9.67417 29.5279C9.65531 30.3552 10.108 30.9446 10.9191 31.1501C11.2397 31.2312 11.5712 31.2393 11.9107 31.2393C15.6211 31.242 19.3288 31.242 23.0393 31.242C26.7039 31.242 30.3685 31.242 34.0358 31.2393C34.3242 31.2393 34.6825 31.2393 35.0247 31.1555C35.8358 30.9554 36.2939 30.366 36.2777 29.5414C36.2643 28.7059 35.7873 28.13 34.9736 27.9651C34.6233 27.8948 34.2757 27.8948 33.9361 27.8948H33.9065C31.8101 27.8921 29.7137 27.8921 27.6201 27.8921H18.3157V27.8894ZM23.395 1.83586C22.4303 1.83586 21.3983 1.88993 20.1534 2.00349C16.2705 2.36039 12.9885 4.13677 10.4017 7.28395C9.03825 8.94407 8.10592 10.807 7.63168 12.824L7.56162 13.1268L7.84725 13.2458C10.9433 14.5382 12.3822 16.8986 12.2448 20.4675C12.2017 21.6193 12.2125 22.7495 12.2232 23.9446C12.2286 24.4799 12.234 25.0207 12.234 25.5668V25.9318H33.7206V25.5641C33.7206 24.8774 33.7179 24.196 33.7152 23.5201C33.7098 21.9708 33.7017 20.5054 33.7287 19.0129C33.7637 16.9986 34.6233 15.3736 36.2831 14.1813C36.6415 13.9244 37.043 13.7243 37.4714 13.5134C37.6708 13.4134 37.8729 13.3134 38.0696 13.2079L38.2313 13.1214L38.2582 12.9402L38.2636 12.924C38.2771 12.8672 38.2987 12.7753 38.2798 12.6645C38.2582 12.5347 38.2259 12.3995 38.1828 12.2616C36.9487 8.35735 34.5074 5.41294 30.9263 3.51219C28.776 2.3685 26.3832 1.83586 23.395 1.83586Z">
    </path>
</svg>
