<svg xmlns:xlink="http://www.w3.org/1999/xlink" width="46" height="46" viewBox="0 0 46 46"
    xmlns="http://www.w3.org/2000/svg">
    <path
        d="M39.9998 45.1241C39.4528 45.116 38.86 45.1106 38.1271 45.1106C37.7229 45.1106 37.3187 45.1106 36.9145 45.1133C36.5104 45.1133 36.1062 45.116 35.702 45.116C35.4945 45.116 35.287 45.116 35.0795 45.116C34.1122 45.1133 33.9667 44.97 33.9586 44.0264C33.9532 43.3748 33.6487 43.245 33.1556 43.245C29.9518 43.2504 26.756 43.2531 23.5575 43.2531C20.0761 43.2531 16.8373 43.2504 13.6576 43.2423C13.4232 43.2423 13.1726 43.2639 13.0056 43.4316C12.8385 43.5992 12.8169 43.856 12.8196 44.0832C12.8223 44.9376 12.6391 45.1106 11.7337 45.116C11.4373 45.1187 11.1436 45.1187 10.8472 45.1187C10.4646 45.1187 10.0846 45.1187 9.70201 45.116C9.31938 45.116 8.93675 45.1133 8.55682 45.1133C7.94515 45.1133 7.33347 45.116 6.72181 45.1241H6.68678C6.29607 45.1241 6.01852 45.0376 5.86224 44.8646C5.71943 44.7077 5.66015 44.4617 5.68979 44.1345C5.71943 43.8101 5.66823 43.5884 5.5335 43.4397C5.36644 43.2558 5.11045 43.2315 4.90566 43.2315C4.86524 43.2315 4.82483 43.2315 4.77902 43.2342C4.41794 43.2504 4.01915 43.2612 3.56376 43.2612C3.16497 43.2612 2.76347 43.2558 2.36467 43.2477L2.05749 43.2423C1.19523 43.2288 0.97158 43.0098 0.968886 42.177C0.963496 35.3987 0.963496 28.6041 0.968886 21.9799C0.968886 21.0822 1.15212 20.9119 2.12755 20.9119C3.07874 20.9119 4.02723 20.9092 4.97842 20.9065C6.51163 20.9038 8.04485 20.9011 9.57806 20.9011C12.4397 20.9011 14.7597 20.9119 16.8831 20.9335H16.9154C17.3088 20.9335 17.5648 20.8551 17.7265 20.6902C17.9528 20.4576 17.9447 20.0926 17.9366 19.7411V19.706C17.9259 19.1436 17.9124 18.611 16.9962 18.611C16.9693 18.611 16.945 18.611 16.9181 18.611C15.9858 18.638 14.978 18.6515 13.7412 18.6515C13.0136 18.6515 12.2834 18.6461 11.5559 18.6434C10.9469 18.6407 10.3379 18.6353 9.72896 18.6353C8.67268 18.6326 8.48675 18.4568 8.48675 17.451C8.48137 11.9327 8.48137 6.49267 8.48675 1.2744C8.48675 0.325378 8.69693 0.119891 9.66698 0.119891C11.8199 0.117188 13.9729 0.117188 16.1259 0.117188H30.7143C32.8376 0.117188 34.961 0.117188 37.087 0.119891C38.1056 0.119891 38.2996 0.314563 38.2996 1.33659C38.305 6.5143 38.305 11.9272 38.2996 17.4213C38.2996 18.4568 38.119 18.638 37.0924 18.6407C36.4996 18.6407 35.9068 18.6461 35.3167 18.6488C34.5676 18.6542 33.8185 18.6569 33.0694 18.6569C31.8407 18.6569 30.8329 18.6434 29.9033 18.6164C29.8736 18.6164 29.844 18.6164 29.817 18.6164C29.456 18.6164 29.2134 18.6921 29.0572 18.8516C28.8308 19.0841 28.8389 19.4356 28.847 19.8114V19.8358C28.8578 20.4036 28.8685 20.9416 29.8332 20.9416H29.8628C31.9943 20.92 34.2523 20.9119 37.1813 20.9119C38.5421 20.9119 39.9028 20.9146 41.2636 20.9146C42.3522 20.9173 43.4408 20.9173 44.5267 20.9173C45.7123 20.9173 45.8066 21.0146 45.8066 22.2205C45.8066 28.769 45.8066 35.3203 45.8066 41.8688C45.8066 43.1044 45.6611 43.245 44.3866 43.2477C44.1522 43.2477 43.9151 43.2504 43.6806 43.2531C43.4327 43.2558 43.1848 43.2585 42.9342 43.2585C42.5462 43.2585 42.2283 43.2531 41.9345 43.2396C41.8968 43.2369 41.8618 43.2369 41.8295 43.2369C41.6516 43.2369 41.3956 43.2585 41.2313 43.437C41.1019 43.5803 41.0534 43.7857 41.0804 44.0913C41.1127 44.4428 41.0561 44.6942 40.9052 44.8564C40.7435 45.0349 40.4633 45.1214 40.0483 45.1214L39.9998 45.1241ZM12.4801 41.6957C15.7675 41.6957 18.8097 41.7011 21.7845 41.712C22.1213 41.712 22.3261 41.6498 22.4635 41.5119C22.6279 41.3469 22.6602 41.1063 22.6575 40.7954C22.6333 36.4072 22.6333 32.5543 22.6602 29.0205C22.6629 28.6609 22.6036 28.4446 22.4581 28.2959C22.2803 28.1174 22.0135 28.0904 21.7495 28.0904H21.7171C20.4237 28.1012 19.0495 28.1066 17.2576 28.1066C16.4681 28.1066 15.6813 28.1066 14.8918 28.1039C14.1023 28.1039 13.3154 28.1012 12.5259 28.1012L8.02329 28.1039C6.46043 28.1039 4.89758 28.1012 3.33472 28.0931H3.30239C3.04641 28.0931 2.80389 28.1066 2.63683 28.2769C2.51018 28.4067 2.4509 28.6041 2.4536 28.8988C2.47785 32.657 2.47785 36.5694 2.45629 40.8576C2.45629 41.0712 2.47515 41.3388 2.64761 41.5119C2.81736 41.6822 3.07335 41.7038 3.30508 41.7038C6.36612 41.6984 9.42447 41.6957 12.4801 41.6957ZM34.2254 41.6957C37.3376 41.6957 40.4364 41.7011 43.4381 41.7093C43.783 41.7093 43.9878 41.6498 44.1279 41.5065C44.3058 41.328 44.3273 41.0495 44.3273 40.8008C44.3031 36.5397 44.3031 32.6868 44.33 29.0259C44.3327 28.769 44.3085 28.4797 44.1252 28.2959C43.9474 28.1147 43.6698 28.0904 43.4219 28.0904H43.3896C42.1016 28.1039 40.7301 28.1093 38.9436 28.1093C38.154 28.1093 37.3618 28.1093 36.5723 28.1066C35.7828 28.1066 34.9906 28.1039 34.2011 28.1039C33.417 28.1039 32.6329 28.1039 31.8487 28.1066C31.0646 28.1066 30.2805 28.1093 29.4964 28.1093C27.6937 28.1093 26.3114 28.1039 25.0126 28.0904H24.983C24.7512 28.0904 24.4899 28.1147 24.3201 28.285C24.1476 28.4581 24.1261 28.7231 24.1288 28.9853C24.153 32.6003 24.153 36.4829 24.1315 40.8522C24.1315 41.0847 24.153 41.3442 24.3201 41.5146C24.4548 41.6498 24.6461 41.7065 24.9641 41.7065C28.1006 41.6984 31.2155 41.6957 34.2254 41.6957ZM41.4091 26.5871C41.657 26.5871 41.9372 26.6195 42.2094 26.652C42.495 26.6844 42.7887 26.7196 43.0609 26.7196C43.5297 26.7196 43.8531 26.6168 44.0794 26.3978C44.5079 25.9787 44.4378 25.3109 44.3677 24.6647C44.33 24.3213 44.2923 23.9671 44.33 23.6616C44.3866 23.2074 44.3327 22.9154 44.1576 22.7153C43.9258 22.4503 43.5163 22.4152 43.1444 22.4152C34.5352 22.4341 25.8452 22.4368 18.4809 22.4368H3.70658C3.6473 22.4368 3.58801 22.4395 3.52873 22.4395C3.47215 22.4422 3.41826 22.4422 3.36167 22.4422C3.2997 22.4422 3.23772 22.4395 3.17844 22.4341C3.12994 22.4287 3.08413 22.426 3.04371 22.426C2.85778 22.426 2.71766 22.4774 2.61797 22.5801C2.46707 22.7369 2.45629 22.9748 2.46168 23.1398L2.46707 23.302C2.49132 23.9942 2.51827 24.7107 2.4536 25.4001C2.41048 25.8625 2.46707 26.1437 2.64222 26.3356C2.82006 26.533 3.10299 26.6168 3.58802 26.6168H3.61496C7.43587 26.5952 11.2218 26.5898 14.0915 26.5898C15.6382 26.5898 17.1848 26.5898 18.7342 26.5925C20.2809 26.5925 21.8276 26.5952 23.377 26.5952H32.1667C35.2466 26.5952 38.3265 26.5952 41.4064 26.5871H41.4091V26.5871ZM23.3608 20.8984C24.4117 20.8984 25.4761 20.9119 26.527 20.9389H26.5782C26.8826 20.9389 27.0982 20.8659 27.2302 20.7145C27.4269 20.4928 27.3865 20.171 27.3515 19.8898L27.3488 19.8682C27.338 19.7871 27.3515 19.679 27.3677 19.5654C27.3973 19.3221 27.4323 19.049 27.2545 18.8462C27.1278 18.7029 26.9258 18.6353 26.6374 18.6353C26.6105 18.6353 26.5862 18.6353 26.5566 18.638C26.1901 18.6515 25.794 18.6596 25.3171 18.6596C24.9964 18.6596 24.6731 18.6569 24.3524 18.6542C24.0318 18.6515 23.7111 18.6488 23.3905 18.6488C23.0806 18.6488 22.7707 18.6542 22.4581 18.6569C22.1483 18.6623 21.8411 18.665 21.5312 18.665C21.0597 18.665 20.6743 18.6542 20.3159 18.6299C20.2701 18.6272 20.227 18.6245 20.1893 18.6245C19.9118 18.6245 19.7124 18.6948 19.5803 18.8354C19.3782 19.0571 19.4025 19.3788 19.4294 19.6925L19.4321 19.733C19.4375 19.8168 19.4321 19.9088 19.424 20.0088C19.4052 20.2494 19.3863 20.5225 19.5696 20.7199C19.7043 20.8632 19.9172 20.9335 20.2243 20.9335H20.2782C21.2995 20.9119 22.3369 20.8984 23.3608 20.8984ZM10.9846 1.61237C10.7179 1.61237 10.4215 1.63941 10.2301 1.83138C10.0388 2.02605 10.0146 2.33157 10.0146 2.60195C10.0415 7.05235 10.0415 11.6325 10.0146 16.2154C10.0119 16.4723 10.0361 16.7562 10.2167 16.94C10.3945 17.1212 10.6721 17.1455 10.9415 17.1455C15.0373 17.1347 19.2489 17.132 23.474 17.132C27.4943 17.132 31.6466 17.1374 35.8152 17.1455C36.1439 17.1455 36.3918 17.1104 36.5616 16.94C36.7044 16.794 36.7663 16.5804 36.7636 16.2262C36.7313 11.1296 36.734 6.67653 36.769 2.61277C36.7717 2.23153 36.7044 1.9909 36.5481 1.83138C36.3487 1.62859 36.0496 1.61237 35.7343 1.61237H35.6912C33.8966 1.62319 31.97 1.62859 29.4398 1.62859C28.4401 1.62859 23.3959 1.62589 23.3959 1.62589C22.38 1.62589 18.3193 1.62859 17.3034 1.62859C14.7597 1.62859 12.8169 1.62319 11.0116 1.60967L10.9846 1.61237Z">
    </path>
    <path
        d="M28.0951 38.4925C27.8714 38.4925 27.6963 38.4303 27.5777 38.3087C27.4322 38.16 27.3568 37.9031 27.3594 37.5678C27.3675 36.9514 27.3648 36.3268 27.3621 35.7211C27.3621 35.4562 27.3621 34.7992 27.3621 34.7992C27.3648 33.9286 27.3648 33.0606 27.3621 32.19C27.3621 31.6303 27.5939 31.3546 28.0789 31.3438H28.1085C28.6124 31.3438 28.8603 31.6304 28.8603 32.2171C28.8603 32.9795 28.8603 33.742 28.8603 34.5045C28.8603 35.5346 28.8603 36.5647 28.863 37.5922C28.863 37.9085 28.7849 38.1545 28.6367 38.3032C28.5127 38.4276 28.3322 38.4925 28.1032 38.4925H28.0951V38.4925Z">
    </path>
    <path
        d="M13.7812 8.22852C13.439 8.22852 13.2262 8.12037 13.0914 7.87703C12.9917 7.69588 12.8597 7.34709 13.1238 7.07671C14.0157 6.14932 15.0585 5.07593 16.1282 4.06472C16.2576 3.94305 16.4004 3.88086 16.5567 3.88086C16.7399 3.88086 16.9312 3.97279 17.0983 4.14042C17.3219 4.36754 17.4809 4.73795 17.2007 5.03807C16.2818 6.02224 15.301 6.98208 14.3552 7.90947L14.1396 8.12037C14.0911 8.16633 13.986 8.19067 13.9079 8.20689C13.8783 8.215 13.8486 8.22041 13.8244 8.22581C13.8082 8.22852 13.7947 8.22852 13.7812 8.22852Z">
    </path>
    <path
        d="M15.1533 12.0346C15.0455 12.0346 14.9351 12.0075 14.8219 11.9561C14.5309 11.821 14.4015 11.583 14.415 11.2072C14.4096 10.9828 14.5497 10.7989 14.7599 10.5907C15.6895 9.66605 16.4656 8.89278 17.2605 8.08165C17.5299 7.80586 17.7778 7.66797 17.9961 7.66797C18.1659 7.66797 18.3275 7.74908 18.4919 7.91672C18.7263 8.15465 18.9635 8.54129 18.3356 9.16586C17.6431 9.85532 16.9533 10.5448 16.2662 11.2369L15.7704 11.7344C15.5683 11.9345 15.3608 12.0346 15.1533 12.0346Z">
    </path>
    <path
        d="M18.6683 38.4895C18.1698 38.4787 17.9192 38.1678 17.9219 37.5648C17.9273 36.0264 17.93 34.3473 17.9219 32.2817C17.9192 31.4732 18.3099 31.3597 18.6494 31.3516H18.6818C18.9189 31.3516 19.0913 31.4083 19.2099 31.53C19.3554 31.6787 19.4282 31.941 19.4228 32.3114C19.4147 32.9252 19.4174 33.547 19.4174 34.15C19.4174 34.4176 19.4201 34.6853 19.4201 34.953V35.7127C19.4201 36.34 19.4174 36.9673 19.4228 37.5946C19.4255 37.9163 19.3473 38.1651 19.2018 38.3111C19.0833 38.43 18.9135 38.4895 18.6952 38.4895H18.6683Z">
    </path>
    <path
        d="M28.0951 38.4913C27.8714 38.4913 27.6963 38.4291 27.5777 38.3075C27.4322 38.1587 27.3568 37.9019 27.3594 37.5666C27.3675 36.9664 27.3648 36.358 27.3648 35.7686C27.3648 35.4874 27.3648 35.2035 27.3648 34.9223V34.3951C27.3648 33.6597 27.3675 32.9243 27.3648 32.1861C27.3648 31.6264 27.5966 31.3507 28.0816 31.3398H28.1112C28.6151 31.3398 28.863 31.6264 28.863 32.2132C28.863 32.9756 28.863 33.7381 28.863 34.5005C28.863 35.5307 28.863 36.5608 28.8657 37.5883C28.8657 37.9046 28.7876 38.1506 28.6394 38.2993C28.5154 38.4237 28.3349 38.4886 28.1058 38.4886H28.0951V38.4913Z">
    </path>
</svg>