<svg xmlns:xlink="http://www.w3.org/1999/xlink" viewBox="0 0 37 48" fill="currentColor"
    xmlns="http://www.w3.org/2000/svg">
    <path
        d="M18.5414 47.2757C13.0418 47.2757 7.54486 47.2757 2.04523 47.2757C0.886558 47.2757 0.773394 47.1676 0.773394 46.0347C0.770699 36.4904 0.754537 26.9488 0.778788 17.4045C0.79765 9.9637 5.94697 3.20428 13.3598 1.2062C20.53 -0.726998 26.9242 0.797928 32.0655 6.3758C34.9783 9.5338 36.4712 13.3596 36.4873 17.683C36.5224 27.0434 36.4981 36.4039 36.4981 45.7643C36.4981 47.2622 36.4847 47.2757 34.9487 47.2757C29.4788 47.2757 24.0114 47.2757 18.5414 47.2757ZM35.1347 45.913C35.1589 45.6805 35.1831 45.5615 35.1831 45.4398C35.1858 36.0524 35.2208 26.6649 35.1643 17.2747C35.1454 14.2194 34.2158 11.367 32.3754 8.91734C28.2473 3.42869 22.7154 1.18997 15.9412 2.06329C8.10805 3.0718 2.23923 9.78796 2.23653 17.71C2.23114 26.7622 2.23653 35.8144 2.23653 44.8694C2.23653 45.2181 2.23653 45.5669 2.23653 45.9103C13.2843 45.913 24.1758 45.913 35.1347 45.913Z">
    </path>
    <path
        d="M18.5956 44.2969C14.1307 44.2969 9.66852 44.2996 5.20361 44.2969C3.93446 44.2969 3.84013 44.205 3.84013 42.9612C3.84552 34.5795 3.76743 26.1979 3.88868 17.8189C4.00455 9.87791 11.2233 3.26449 19.105 3.67006C27.4608 4.09996 33.4563 10.3862 33.5102 18.8815C33.5614 26.9279 33.5236 34.9716 33.5183 43.018C33.5183 44.1292 33.3539 44.2942 32.2545 44.2942C27.7061 44.2996 23.1522 44.2969 18.5956 44.2969ZM32.0685 30.3076C32.0685 26.6061 32.0685 22.9614 32.0685 19.3195C27.8138 19.3195 23.6129 19.3195 19.404 19.3195C19.404 23.0155 19.404 26.6332 19.404 30.3076C23.6453 30.3076 27.8515 30.3076 32.0685 30.3076ZM32.1009 31.8136C27.8111 31.8136 23.613 31.8136 19.4229 31.8136C19.4229 35.5286 19.4229 39.1732 19.4229 42.8152C23.6776 42.8152 27.8785 42.8152 32.1009 42.8152C32.1009 39.1273 32.1009 35.5042 32.1009 31.8136ZM5.25748 30.3049C9.523 30.3049 13.6996 30.3049 17.8978 30.3049C17.8978 26.6034 17.8978 22.9641 17.8978 19.3032C13.6565 19.3032 9.48258 19.3032 5.25748 19.3032C5.25748 22.975 5.25748 26.5926 5.25748 30.3049ZM17.9086 42.8558C17.9086 39.1327 17.9086 35.4907 17.9086 31.7947C13.6808 31.7947 9.50685 31.7947 5.27367 31.7947C5.27367 35.4961 5.27367 39.1624 5.27367 42.8558C9.49607 42.8558 13.6538 42.8558 17.9086 42.8558ZM8.90056 9.28849C6.68292 11.7381 5.46766 14.5122 5.25479 17.7675C9.14845 17.7675 12.9451 17.7675 16.9358 17.7675C14.1981 14.8772 11.579 12.1139 8.90056 9.28849ZM32.0174 17.781C31.8638 14.4851 30.6997 11.7003 28.4416 9.28308C25.7363 12.1383 23.1172 14.9042 20.393 17.781C24.3809 17.781 28.1614 17.781 32.0174 17.781ZM27.3611 8.34487C25.3941 6.40087 22.2118 5.10306 19.4499 5.07872C19.4499 8.90455 19.4499 12.7331 19.4499 16.6968C22.1444 13.8497 24.7339 11.1189 27.3611 8.34487ZM9.94609 8.30973C12.6056 11.1135 15.1816 13.8308 17.8843 16.6806C17.8843 12.6709 17.8843 8.87481 17.8843 5.04898C14.8879 5.30854 12.3012 6.34949 9.94609 8.30973Z">
    </path>
</svg>
