<svg xmlns:xlink="http://www.w3.org/1999/xlink" width="31" height="46" viewBox="0 0 31 46"
    xmlns="http://www.w3.org/2000/svg">
    <path
        d="M5.40202 45.8158C5.16219 45.8158 4.97958 45.7748 4.91145 45.7064C4.77245 45.5669 4.77791 45.0747 4.78064 44.6782C4.78336 44.3008 4.78609 43.9098 4.70161 43.5379L4.62529 43.207L4.32551 43.0484C4.27373 43.0155 4.12383 42.9198 3.91126 42.9116C1.25407 42.7831 -0.0268275 41.1861 0.000425757 38.0276C0.0685588 29.9003 0.0549249 21.6664 0.0440236 13.7059C0.038573 10.5584 0.0358563 7.41355 0.0358563 4.266C0.0358563 1.27707 1.29767 0 4.25192 0H16.3169C19.8217 0 23.3265 0 26.8312 0C29.6438 0 30.9519 1.32629 30.9519 4.17303C30.9546 12.9785 30.9519 21.784 30.9519 30.5894V38.3886C30.9519 41.3994 30.1043 42.4057 27.1692 42.8679C27.0356 42.8897 26.9266 42.928 26.8476 42.9581C26.8258 42.9663 26.8013 42.9745 26.7794 42.9827L26.3815 43.1112L26.2889 43.5187C26.2017 43.8961 26.2044 44.2899 26.2071 44.67C26.2098 45.0665 26.2126 45.5642 26.0736 45.7037C26.0054 45.772 25.8229 45.8131 25.583 45.8131C25.5612 45.8131 25.5367 45.8131 25.5149 45.8131C24.9835 45.7966 24.8826 45.7584 24.8908 44.5743C24.8935 44.2406 24.8962 43.8934 24.8445 43.5543L24.7518 42.9226H6.24686L6.1433 43.5406C6.08606 43.8906 6.08606 44.2461 6.08879 44.5907C6.09151 45.7584 5.99341 45.7966 5.46469 45.8103C5.44562 45.8158 5.42382 45.8158 5.40202 45.8158ZM1.3549 36.2528C1.3549 37.0404 1.3549 37.8088 1.3549 38.58C1.35763 40.7896 2.05532 41.5006 4.22468 41.5006H13.6815C18.0475 41.5006 26.8449 41.5006 26.8449 41.5006C27.082 41.5006 27.379 41.5006 27.6733 41.4732C28.7798 41.372 29.5238 40.6392 29.5674 39.6109C29.6138 38.5526 29.6056 37.4779 29.5947 36.4415C29.592 36.0094 29.5865 35.5746 29.5865 35.1371V34.396H1.3549V36.2528ZM4.25465 1.31535C2.05804 1.31535 1.3549 2.02362 1.3549 4.22498C1.3549 10.2083 1.3549 32.9412 1.3549 32.9412H14.7717V1.31535H7.6722H4.25465ZM23.1275 1.31535C21.3342 1.31535 19.541 1.31809 17.745 1.32082C17.5324 1.32082 17.3335 1.33996 17.1427 1.35637C17.0582 1.36457 16.9874 1.37004 16.9165 1.37551L16.2324 1.42474V32.9385H29.5102L29.5647 32.2603C29.5729 32.1673 29.5811 32.0825 29.5893 31.9978C29.6083 31.8145 29.6274 31.6259 29.6274 31.4262C29.6301 21.2398 29.6328 12.7433 29.6274 3.8941C29.6274 2.14121 28.8071 1.32356 27.0465 1.31809C25.7411 1.31535 24.4357 1.31535 23.1275 1.31535Z">
    </path>
    <path
        d="M11.7882 19.7716C11.4911 19.7716 11.1695 19.561 11.1504 19.1699C11.0905 17.7972 11.0905 16.4572 11.1504 15.1883C11.1695 14.7781 11.3685 14.6004 11.81 14.5977C12.0525 14.5977 12.3796 14.6633 12.4177 15.2376C12.4477 15.6724 12.4395 16.1099 12.4313 16.5748C12.4286 16.7881 12.4232 17.0014 12.4232 17.2147C12.4232 17.417 12.4259 17.6194 12.4286 17.8218C12.4368 18.2702 12.4422 18.6886 12.415 19.0988C12.3877 19.509 12.1506 19.7688 11.7963 19.7743L11.7882 19.7716Z">
    </path>
    <path
        d="M19.1365 19.7653C18.834 19.7653 18.5969 19.4973 18.5697 19.1254C18.5397 18.7234 18.5451 18.3187 18.5533 17.8921H18.5887L18.5642 17.1455C18.5642 16.9404 18.5615 16.7271 18.556 16.5166C18.5479 16.049 18.5397 15.6114 18.5724 15.1821C18.6024 14.7719 18.7659 14.6133 19.1747 14.5996C19.191 14.5996 19.2074 14.5996 19.2237 14.5996C19.7225 14.5996 19.7961 14.8703 19.807 15.0727C19.8833 16.3689 19.8887 17.7663 19.8206 19.2266C19.8151 19.3524 19.7961 19.7352 19.1638 19.768L19.1365 19.7653Z">
    </path>
    <path
        d="M16.4782 38.5958C16.4019 38.5958 16.3256 38.5958 16.2493 38.5931V38.5904L16.0667 38.5794L15.5134 38.5739C15.3363 38.5739 15.1618 38.5767 14.9847 38.5821H14.9629C14.8048 38.5849 14.6495 38.5904 14.4914 38.5904C14.2734 38.5904 14.0963 38.5822 13.9327 38.5685C13.3386 38.5111 13.2841 38.2102 13.2814 37.9313C13.2759 37.4992 13.4476 37.3133 13.8728 37.2887C14.4069 37.2586 14.9574 37.2422 15.5107 37.2422C16.0258 37.2422 16.5572 37.2559 17.0859 37.2832C17.5138 37.3051 17.6937 37.4938 17.71 37.9313C17.7291 38.4153 17.3394 38.5493 17.0096 38.5767C16.8543 38.5904 16.6853 38.5958 16.4782 38.5958Z">
    </path>
</svg>